<?xml version="1.0" encoding="UTF-8" standalone="no"?>
<!-- Created with Inkscape (http://www.inkscape.org/) -->

<svg
   width="279.68503"
   height="396.8504"
   viewBox="0 0 73.999995 105"
   version="1.1"
   id="svg5"
   inkscape:version="1.2 (56b05e47e7, 2022-06-09, custom)"
   sodipodi:docname="flex2.svg"
   xmlns:inkscape="http://www.inkscape.org/namespaces/inkscape"
   xmlns:sodipodi="http://sodipodi.sourceforge.net/DTD/sodipodi-0.dtd"
   xmlns="http://www.w3.org/2000/svg"
   xmlns:svg="http://www.w3.org/2000/svg">
  <sodipodi:namedview
     id="namedview7"
     pagecolor="#ffffff"
     bordercolor="#666666"
     borderopacity="1.0"
     inkscape:showpageshadow="2"
     inkscape:pageopacity="0.0"
     inkscape:pagecheckerboard="0"
     inkscape:deskcolor="#d1d1d1"
     inkscape:document-units="mm"
     showgrid="false"
     inkscape:zoom="0.75722503"
     inkscape:cx="-154.51153"
     inkscape:cy="126.11839"
     inkscape:window-width="1846"
     inkscape:window-height="1016"
     inkscape:window-x="74"
     inkscape:window-y="27"
     inkscape:window-maximized="1"
     inkscape:current-layer="layer1" />
  <defs
     id="defs2" />
  <g
     inkscape:label="Layer 1"
     inkscape:groupmode="layer"
     id="layer1">
    <path
       style="fill:#333333;stroke-width:0.264583"
       id="path58"
       d="m 3.1435828,4.8915809 c 1.7388438,0.9841021 3.2781301,2.2901095 4.8053609,3.5684094 2.3266773,1.9652087 4.5268443,4.0724987 6.7069993,6.1970457 0.88765,0.824963 1.743826,1.809434 2.973506,2.11001 0.820445,0.200544 1.161591,0.07366 2.060881,-0.01199 3.31232,-0.587034 6.616801,-1.314742 9.821006,-2.347518 2.050209,-0.734161 3.810577,-1.917614 5.684573,-3.061635 0.186082,-0.113598 0.332941,-0.28264 0.512173,-0.406769 0.176953,-0.122552 0.739042,-0.441723 0.554058,-0.331667 -0.882777,0.525209 -1.764961,1.051416 -2.647439,1.577123 3.013186,-1.103929 5.650346,-0.646869 8.670036,0.114313 4.456321,1.468193 8.72155,3.475235 12.866542,5.659597 2.124445,1.132198 4.088987,2.519909 6.072131,3.874355 0.89552,0.611622 1.481244,1.120437 2.530322,1.380274 0.31645,0.07838 0.650555,0.04377 0.975831,0.06565 3.929205,-0.963611 5.142484,-2.756979 6.655427,-5.784196 0.654928,-1.261629 1.14245,-2.593532 1.616662,-3.93011 0.486117,-1.40203 0.860542,-2.834586 1.172446,-4.284057 0,0 -3.513736,1.699432 -3.513736,1.699432 v 0 c -0.296566,1.440732 -0.696534,2.85476 -1.197417,4.238514 -0.466264,1.319238 -0.968459,2.62572 -1.608841,3.872336 -0.400672,0.788142 -0.793588,1.595035 -1.340604,2.29623 -0.180895,0.231878 -0.868516,0.751804 -0.590687,0.65536 0.68884,-0.239122 4.170172,-2.139644 1.928987,-1.031572 -0.311645,0.02138 -0.625539,0.107207 -0.934935,0.06415 -1.05783,-0.147196 -1.693695,-0.653277 -2.588254,-1.226621 -2.04075,-1.307963 -4.015986,-2.724111 -6.162858,-3.861577 -4.119232,-2.229257 -8.384116,-4.2424 -12.803491,-5.804123 -0.578697,-0.160896 -1.150427,-0.3493467 -1.736088,-0.4826874 -2.303642,-0.5244867 -4.693319,-0.59719 -6.976226,0.057619 -1.342324,0.7547024 -2.691945,1.4965734 -4.026974,2.2641074 -0.188593,0.108424 -0.36394,0.238512 -0.542396,0.362914 -1.644854,1.146636 0.709766,-0.307256 2.211345,-1.160423 0.25709,-0.146074 -0.510603,0.299783 -0.777415,0.427242 -0.326106,0.155783 -0.66599,0.280907 -0.998984,0.421361 -3.166293,1.103167 -6.45663,1.836237 -9.758278,2.40231 -0.741266,0.09361 -1.198225,0.220664 -1.909789,0.105799 -1.217894,-0.1966 -2.076761,-1.144054 -2.960193,-1.914106 C 15.660269,10.581331 13.487388,8.4356614 11.170303,6.4487255 9.6480573,5.1487874 8.1272728,3.8302176 6.4516801,2.7291845 c 0,0 -3.3080973,2.1623964 -3.3080973,2.1623964 z" />
    <path
       style="fill:#333333;stroke-width:0.264583"
       id="path108"
       d="m 0.67794187,24.77609 c 2.92328173,2.975275 5.71809743,6.085973 8.71953813,8.984113 2.615719,2.525692 4.962915,4.532175 7.690838,6.92939 1.724769,1.419913 4.587963,3.836366 6.486692,5.194488 1.406954,1.006366 2.547719,1.940462 4.329419,1.984137 2.002689,0.04909 5.30642,-2.754779 6.017003,-3.208743 0.832805,-0.86065 1.236893,-2.01767 1.961052,-2.950495 0.405218,-0.521978 0.861653,-1.007235 1.354035,-1.447943 0.513773,-0.459854 1.200247,-0.723514 1.653029,-1.243537 0.345911,-0.397285 -1.839079,0.759098 -1.322943,0.864429 0.78596,0.160393 1.54237,-0.441513 2.313556,-0.662271 0.890432,-0.129823 1.775476,-0.304403 2.671292,-0.389472 3.764954,-0.357534 7.576693,-0.236522 11.349915,-0.147402 2.931608,0.06924 5.862638,0.161139 8.794076,0.23713 3.938854,0.03359 7.885064,0.02619 11.816074,-0.262324 2.447158,-0.179617 3.102391,-0.306062 5.419172,-0.629737 0,0 2.906496,-2.178648 2.906496,-2.178648 v 0 c -0.830448,0.133337 -1.657784,0.28774 -2.491341,0.40001 -4.946345,0.666218 -9.948733,0.762418 -14.932578,0.706726 -4.250211,-0.108138 -8.499271,-0.305416 -12.750455,-0.367342 -1.872197,-0.02727 -5.296591,-0.05155 -7.22502,0.08506 -0.892588,0.06323 -1.776288,0.218292 -2.664431,0.327438 -0.776155,0.188563 -1.603663,0.230074 -2.328463,0.565692 -1.791604,0.829607 -4.882575,2.485139 -6.623518,4.126876 -1.463013,1.379646 -2.095767,2.895812 -3.396956,4.373449 0.67641,-0.288269 1.404824,-0.476541 2.029224,-0.864804 0.454729,-0.282755 -0.977942,0.501875 -1.511823,0.543078 -0.663329,0.05119 -1.35562,-0.03618 -1.977028,-0.273825 C 28.074231,45.130983 27.283539,44.566394 26.487326,44.04185 24.305815,42.60467 21.85407,40.574054 19.842006,38.977204 18.554784,37.8511 17.241975,36.753593 15.980342,35.598895 11.670431,31.654291 7.6381635,27.377119 4.0673737,22.750291 c 0,0 -3.38943183,2.025801 -3.38943183,2.025801 z" />
    <rect
       style="fill:#333333;stroke-width:2;fill-opacity:0.08087625;stroke:#000000;stroke-opacity:1;stroke-dasharray:none"
       id="rect60"
       width="73.67881"
       height="104.96943"
       x="0.19238546"
       y="0.2325964" />
  </g>
</svg>
