<?xml version="1.0" encoding="UTF-8" standalone="no"?>
<!-- Created with Inkscape (http://www.inkscape.org/) -->

<svg
   width="279.68503"
   height="396.8504"
   viewBox="0 0 73.999995 105"
   version="1.1"
   id="svg5"
   inkscape:version="1.2 (56b05e47e7, 2022-06-09, custom)"
   sodipodi:docname="flex1"
   xmlns:inkscape="http://www.inkscape.org/namespaces/inkscape"
   xmlns:sodipodi="http://sodipodi.sourceforge.net/DTD/sodipodi-0.dtd"
   xmlns="http://www.w3.org/2000/svg"
   xmlns:svg="http://www.w3.org/2000/svg">
  <sodipodi:namedview
     id="namedview7"
     pagecolor="#ffffff"
     bordercolor="#666666"
     borderopacity="1.0"
     inkscape:showpageshadow="2"
     inkscape:pageopacity="0.0"
     inkscape:pagecheckerboard="0"
     inkscape:deskcolor="#d1d1d1"
     inkscape:document-units="mm"
     showgrid="false"
     inkscape:zoom="0.75722503"
     inkscape:cx="122.81686"
     inkscape:cy="186.86651"
     inkscape:window-width="1846"
     inkscape:window-height="1016"
     inkscape:window-x="74"
     inkscape:window-y="27"
     inkscape:window-maximized="1"
     inkscape:current-layer="layer1" />
  <defs
     id="defs2" />
  <g
     inkscape:label="Layer 1"
     inkscape:groupmode="layer"
     id="layer1">
    <path
       style="fill:#333333;stroke-width:0.264583"
       id="path58"
       d="m 3.1435828,4.8915809 c 1.7388438,0.9841021 3.2781301,2.2901095 4.8053609,3.5684094 2.3266773,1.9652087 4.5268443,4.0724987 6.7069993,6.1970457 0.88765,0.824963 1.743826,1.809434 2.973506,2.11001 0.820445,0.200544 1.161591,0.07366 2.060881,-0.01199 3.31232,-0.587034 6.616801,-1.314742 9.821006,-2.347518 2.050209,-0.734161 3.810577,-1.917614 5.684573,-3.061635 0.186082,-0.113598 0.332941,-0.28264 0.512173,-0.406769 0.176953,-0.122552 0.739042,-0.441723 0.554058,-0.331667 -0.882777,0.525209 -1.764961,1.051416 -2.647439,1.577123 3.013186,-1.103929 5.650346,-0.646869 8.670036,0.114313 4.456321,1.468193 8.72155,3.475235 12.866542,5.659597 2.124445,1.132198 4.088987,2.519909 6.072131,3.874355 0.89552,0.611622 1.481244,1.120437 2.530322,1.380274 0.31645,0.07838 0.650555,0.04377 0.975831,0.06565 3.929205,-0.963611 5.142484,-2.756979 6.655427,-5.784196 0.654928,-1.261629 1.14245,-2.593532 1.616662,-3.93011 0.486117,-1.40203 0.860542,-2.834586 1.172446,-4.284057 0,0 -3.513736,1.699432 -3.513736,1.699432 v 0 c -0.296566,1.440732 -0.696534,2.85476 -1.197417,4.238514 -0.466264,1.319238 -0.968459,2.62572 -1.608841,3.872336 -0.400672,0.788142 -0.793588,1.595035 -1.340604,2.29623 -0.180895,0.231878 -0.868516,0.751804 -0.590687,0.65536 0.68884,-0.239122 4.170172,-2.139644 1.928987,-1.031572 -0.311645,0.02138 -0.625539,0.107207 -0.934935,0.06415 -1.05783,-0.147196 -1.693695,-0.653277 -2.588254,-1.226621 -2.04075,-1.307963 -4.015986,-2.724111 -6.162858,-3.861577 -4.119232,-2.229257 -8.384116,-4.2424 -12.803491,-5.804123 -0.578697,-0.160896 -1.150427,-0.3493467 -1.736088,-0.4826874 -2.303642,-0.5244867 -4.693319,-0.59719 -6.976226,0.057619 -1.342324,0.7547024 -2.691945,1.4965734 -4.026974,2.2641074 -0.188593,0.108424 -0.36394,0.238512 -0.542396,0.362914 -1.644854,1.146636 0.709766,-0.307256 2.211345,-1.160423 0.25709,-0.146074 -0.510603,0.299783 -0.777415,0.427242 -0.326106,0.155783 -0.66599,0.280907 -0.998984,0.421361 -3.166293,1.103167 -6.45663,1.836237 -9.758278,2.40231 -0.741266,0.09361 -1.198225,0.220664 -1.909789,0.105799 -1.217894,-0.1966 -2.076761,-1.144054 -2.960193,-1.914106 C 15.660269,10.581331 13.487388,8.4356614 11.170303,6.4487255 9.6480573,5.1487874 8.1272728,3.8302176 6.4516801,2.7291845 c 0,0 -3.3080973,2.1623964 -3.3080973,2.1623964 z" />
  </g>
</svg>
