<?xml version="1.0" encoding="UTF-8" standalone="no"?>
<!-- Created with Inkscape (http://www.inkscape.org/) -->

<svg
   width="279.68503"
   height="396.8504"
   viewBox="0 0 73.999995 105"
   version="1.1"
   id="svg5"
   inkscape:version="1.2 (56b05e47e7, 2022-06-09, custom)"
   sodipodi:docname="flex4.svg"
   xmlns:inkscape="http://www.inkscape.org/namespaces/inkscape"
   xmlns:sodipodi="http://sodipodi.sourceforge.net/DTD/sodipodi-0.dtd"
   xmlns="http://www.w3.org/2000/svg"
   xmlns:svg="http://www.w3.org/2000/svg">
  <sodipodi:namedview
     id="namedview7"
     pagecolor="#ffffff"
     bordercolor="#666666"
     borderopacity="1.0"
     inkscape:showpageshadow="2"
     inkscape:pageopacity="0.0"
     inkscape:pagecheckerboard="0"
     inkscape:deskcolor="#d1d1d1"
     inkscape:document-units="mm"
     showgrid="false"
     inkscape:zoom="0.75722503"
     inkscape:cx="-154.51153"
     inkscape:cy="126.11839"
     inkscape:window-width="1846"
     inkscape:window-height="1016"
     inkscape:window-x="74"
     inkscape:window-y="27"
     inkscape:window-maximized="1"
     inkscape:current-layer="layer1" />
  <defs
     id="defs2" />
  <g
     inkscape:label="Layer 1"
     inkscape:groupmode="layer"
     id="layer1">
    <path
       style="fill:#333333;stroke-width:0.264583"
       id="path58"
       d="m 3.1435828,4.8915809 c 1.7388438,0.9841021 3.2781301,2.2901095 4.8053609,3.5684094 2.3266773,1.9652087 4.5268443,4.0724987 6.7069993,6.1970457 0.88765,0.824963 1.743826,1.809434 2.973506,2.11001 0.820445,0.200544 1.161591,0.07366 2.060881,-0.01199 3.31232,-0.587034 6.616801,-1.314742 9.821006,-2.347518 2.050209,-0.734161 3.810577,-1.917614 5.684573,-3.061635 0.186082,-0.113598 0.332941,-0.28264 0.512173,-0.406769 0.176953,-0.122552 0.739042,-0.441723 0.554058,-0.331667 -0.882777,0.525209 -1.764961,1.051416 -2.647439,1.577123 3.013186,-1.103929 5.650346,-0.646869 8.670036,0.114313 4.456321,1.468193 8.72155,3.475235 12.866542,5.659597 2.124445,1.132198 4.088987,2.519909 6.072131,3.874355 0.89552,0.611622 1.481244,1.120437 2.530322,1.380274 0.31645,0.07838 0.650555,0.04377 0.975831,0.06565 3.929205,-0.963611 5.142484,-2.756979 6.655427,-5.784196 0.654928,-1.261629 1.14245,-2.593532 1.616662,-3.93011 0.486117,-1.40203 0.860542,-2.834586 1.172446,-4.284057 0,0 -3.513736,1.699432 -3.513736,1.699432 v 0 c -0.296566,1.440732 -0.696534,2.85476 -1.197417,4.238514 -0.466264,1.319238 -0.968459,2.62572 -1.608841,3.872336 -0.400672,0.788142 -0.793588,1.595035 -1.340604,2.29623 -0.180895,0.231878 -0.868516,0.751804 -0.590687,0.65536 0.68884,-0.239122 4.170172,-2.139644 1.928987,-1.031572 -0.311645,0.02138 -0.625539,0.107207 -0.934935,0.06415 -1.05783,-0.147196 -1.693695,-0.653277 -2.588254,-1.226621 -2.04075,-1.307963 -4.015986,-2.724111 -6.162858,-3.861577 -4.119232,-2.229257 -8.384116,-4.2424 -12.803491,-5.804123 -0.578697,-0.160896 -1.150427,-0.3493467 -1.736088,-0.4826874 -2.303642,-0.5244867 -4.693319,-0.59719 -6.976226,0.057619 -1.342324,0.7547024 -2.691945,1.4965734 -4.026974,2.2641074 -0.188593,0.108424 -0.36394,0.238512 -0.542396,0.362914 -1.644854,1.146636 0.709766,-0.307256 2.211345,-1.160423 0.25709,-0.146074 -0.510603,0.299783 -0.777415,0.427242 -0.326106,0.155783 -0.66599,0.280907 -0.998984,0.421361 -3.166293,1.103167 -6.45663,1.836237 -9.758278,2.40231 -0.741266,0.09361 -1.198225,0.220664 -1.909789,0.105799 -1.217894,-0.1966 -2.076761,-1.144054 -2.960193,-1.914106 C 15.660269,10.581331 13.487388,8.4356614 11.170303,6.4487255 9.6480573,5.1487874 8.1272728,3.8302176 6.4516801,2.7291845 c 0,0 -3.3080973,2.1623964 -3.3080973,2.1623964 z" />
    <path
       style="fill:#333333;stroke-width:0.264583"
       id="path108"
       d="m 0.67794187,24.77609 c 2.92328173,2.975275 5.71809743,6.085973 8.71953813,8.984113 2.615719,2.525692 4.962915,4.532175 7.690838,6.92939 1.724769,1.419913 4.587963,3.836366 6.486692,5.194488 1.406954,1.006366 2.547719,1.940462 4.329419,1.984137 2.002689,0.04909 5.30642,-2.754779 6.017003,-3.208743 0.832805,-0.86065 1.236893,-2.01767 1.961052,-2.950495 0.405218,-0.521978 0.861653,-1.007235 1.354035,-1.447943 0.513773,-0.459854 1.200247,-0.723514 1.653029,-1.243537 0.345911,-0.397285 -1.839079,0.759098 -1.322943,0.864429 0.78596,0.160393 1.54237,-0.441513 2.313556,-0.662271 0.890432,-0.129823 1.775476,-0.304403 2.671292,-0.389472 3.764954,-0.357534 7.576693,-0.236522 11.349915,-0.147402 2.931608,0.06924 5.862638,0.161139 8.794076,0.23713 3.938854,0.03359 7.885064,0.02619 11.816074,-0.262324 2.447158,-0.179617 3.102391,-0.306062 5.419172,-0.629737 0,0 2.906496,-2.178648 2.906496,-2.178648 v 0 c -0.830448,0.133337 -1.657784,0.28774 -2.491341,0.40001 -4.946345,0.666218 -9.948733,0.762418 -14.932578,0.706726 -4.250211,-0.108138 -8.499271,-0.305416 -12.750455,-0.367342 -1.872197,-0.02727 -5.296591,-0.05155 -7.22502,0.08506 -0.892588,0.06323 -1.776288,0.218292 -2.664431,0.327438 -0.776155,0.188563 -1.603663,0.230074 -2.328463,0.565692 -1.791604,0.829607 -4.882575,2.485139 -6.623518,4.126876 -1.463013,1.379646 -2.095767,2.895812 -3.396956,4.373449 0.67641,-0.288269 1.404824,-0.476541 2.029224,-0.864804 0.454729,-0.282755 -0.977942,0.501875 -1.511823,0.543078 -0.663329,0.05119 -1.35562,-0.03618 -1.977028,-0.273825 C 28.074231,45.130983 27.283539,44.566394 26.487326,44.04185 24.305815,42.60467 21.85407,40.574054 19.842006,38.977204 18.554784,37.8511 17.241975,36.753593 15.980342,35.598895 11.670431,31.654291 7.6381635,27.377119 4.0673737,22.750291 c 0,0 -3.38943183,2.025801 -3.38943183,2.025801 z" />
    <rect
       style="fill:#333333;stroke-width:2;fill-opacity:0.08087625;stroke:#000000;stroke-opacity:1;stroke-dasharray:none"
       id="rect60"
       width="73.67881"
       height="104.96943"
       x="0.19238546"
       y="0.2325964" />
    <path
       style="fill:#333333;fill-opacity:0.0808762;stroke:#000000;stroke-width:2;stroke-dasharray:none;stroke-opacity:1"
       id="path2351"
       d="m 4.1532029,62.832876 c 1.8629921,0.606721 3.7927018,0.987036 5.6486559,1.619335 2.2234552,0.757497 2.7802762,1.070073 4.9377532,2.040228 2.263834,1.001001 4.26601,2.490505 6.455029,3.625525 0.77497,0.401828 1.571728,0.761971 2.375985,1.101405 2.414499,1.019029 2.434681,0.934098 4.929473,1.603258 2.002636,0.438296 4.024278,0.66389 6.056381,0.285173 2.159175,-0.402399 4.137922,-1.429078 6.111055,-2.339914 5.012417,-2.56023 10.462773,-4.0172 15.947972,-5.143481 1.558964,-0.25822 3.121413,-0.616503 4.708011,-0.652254 1.031325,0.05661 2.062382,0.118084 3.093358,0.180716 0,0 3.144715,-2.257166 3.144715,-2.257166 v 0 c -1.014909,-0.05559 -2.032738,-0.101507 -3.040816,-0.237828 -1.672452,-0.09226 -3.326313,0.523626 -4.965298,0.73547 -5.48854,1.192903 -10.991043,2.585471 -16.040171,5.110319 -1.92971,0.898948 -3.873754,1.918387 -5.972233,2.376175 -2.020493,0.440777 -4.042569,0.28993 -6.056331,-0.112861 -2.451439,-0.620493 -2.536844,-0.544351 -4.899536,-1.543841 -3.091143,-1.307645 -5.82859,-3.269668 -8.848854,-4.719592 -1.751404,-0.805752 -3.084406,-1.460873 -4.888406,-2.128973 -1.781013,-0.659582 -3.6494123,-1.060185 -5.4223625,-1.743511 0,0 -3.2743806,2.201817 -3.2743806,2.201817 z" />
    <path
       style="fill:#333333;fill-opacity:0.0808762;stroke:#000000;stroke-width:2;stroke-dasharray:none;stroke-opacity:1"
       id="path2377"
       d="m 4.9176802,87.357626 c 1.4852025,1.457439 2.9021092,2.988313 4.6682577,4.118155 0.4079886,0.260998 0.8405861,0.481367 1.2608791,0.722051 2.271045,1.189783 4.720254,1.97885 7.090051,2.944595 0.843293,0.246182 1.729415,0.935405 2.658979,0.86864 0.27078,-0.01945 0.542836,-0.105182 0.778031,-0.24077 3.750144,-2.161913 2.972785,-1.448568 4.575199,-3.146409 0.206823,-0.21321 0.395155,-0.446064 0.620468,-0.639631 0.222928,-0.191516 0.974604,-0.65523 0.718648,-0.510799 -0.864639,0.487905 -1.768965,0.926968 -2.547628,1.542867 -0.224456,0.177539 0.551076,-0.190952 0.837257,-0.19001 0.946855,0.0031 1.843615,0.40858 2.712041,0.708565 2.354803,0.948322 4.585015,2.16627 6.949422,3.091592 1.573649,0.615855 1.579242,0.584571 3.141318,1.054301 1.380996,0.308621 2.870216,0.741506 4.276852,0.287603 0.306814,-0.09901 0.601681,-0.238006 0.881187,-0.398667 1.392381,-0.80034 2.753178,-1.654418 4.129765,-2.48163 1.573564,-1.395804 3.288562,-2.609792 5.002612,-3.822835 1.196649,-0.720174 3.699412,-2.439289 -1.724745,0.966163 -0.158525,0.09953 0.343665,-0.150286 0.522245,-0.206361 0.466445,-0.146469 0.655257,-0.14037 1.14539,-0.191543 1.608537,-0.04544 3.071188,0.662226 4.474323,1.366316 0.8288,0.441283 1.642415,0.915358 2.5262,1.239602 0.740044,0.285467 1.410308,-0.195797 2.063406,-0.511304 2.135748,-1.091036 4.270065,-2.218934 6.221735,-3.617474 0,0 -3.651412,1.43826 -3.651412,1.43826 v 0 c -0.138173,0.09436 -0.274354,0.191706 -0.414517,0.283085 -2.341446,1.5265 4.246446,-2.308069 1.544426,-0.872159 -0.215112,0.114316 -0.433308,0.222724 -0.649962,0.334087 -0.352277,0.172087 -0.709666,0.333877 -1.058461,0.512916 -0.277608,0.142496 -0.457634,0.284691 -0.780116,0.206174 -0.906486,-0.253037 -1.726721,-0.718236 -2.558944,-1.147199 -1.443791,-0.714317 -2.928538,-1.484781 -4.569473,-1.5517 -0.52796,0.01744 -0.689224,-0.0016 -1.200541,0.107876 -2.065534,0.442156 -3.73348,1.956451 -5.49523,3.066939 -1.699659,1.21875 -3.368,2.475651 -4.98144,3.80742 0.822312,-0.446463 1.640261,-0.901057 2.466936,-1.339387 0.277315,-0.147042 -0.529617,0.3429 -0.818616,0.465392 -1.362495,0.57749 -2.861508,0.199297 -4.241945,-0.06999 -1.520039,-0.420685 -1.632773,-0.41584 -3.158096,-0.99409 -2.370394,-0.898615 -4.601644,-2.106065 -6.917875,-3.128735 -0.66054,-0.259723 -1.979586,-0.838832 -2.742949,-0.928047 -0.301598,-0.03525 -0.632661,-0.03808 -0.906092,0.09398 -2.100575,1.014535 -3.8735,1.88172 -5.386639,3.511794 -1.423488,1.401715 -0.705828,0.569759 2.037611,-0.751938 0.23038,-0.11099 -0.40231,0.343791 -0.649955,0.407553 -0.799648,0.205891 -1.942722,-0.53754 -2.661342,-0.74065 -2.364663,-0.954927 -4.786914,-1.779069 -7.08299,-2.890504 -0.413237,-0.230408 -0.83835,-0.440698 -1.239711,-0.691219 -1.739779,-1.085932 -3.1618028,-2.57035 -4.4734868,-4.129418 0,0 -3.391073,2.046533 -3.391073,2.046533 z" />
  </g>
</svg>
