<?xml version="1.0" encoding="UTF-8" standalone="no"?>
<!-- Created with Inkscape (http://www.inkscape.org/) -->

<svg
   width="800"
   height="1200"
   viewBox="0 0 211.66666 317.5"
   version="1.1"
   id="svg5"
   sodipodi:docname="webtoon2.svg"
   inkscape:version="1.2 (56b05e47e7, 2022-06-09, custom)"
   xmlns:inkscape="http://www.inkscape.org/namespaces/inkscape"
   xmlns:sodipodi="http://sodipodi.sourceforge.net/DTD/sodipodi-0.dtd"
   xmlns="http://www.w3.org/2000/svg"
   xmlns:svg="http://www.w3.org/2000/svg">
  <sodipodi:namedview
     id="namedview7"
     pagecolor="#ffffff"
     bordercolor="#666666"
     borderopacity="1.0"
     inkscape:showpageshadow="2"
     inkscape:pageopacity="0.0"
     inkscape:pagecheckerboard="0"
     inkscape:deskcolor="#d1d1d1"
     inkscape:document-units="mm"
     showgrid="false"
     inkscape:zoom="1.0708779"
     inkscape:cx="462.23757"
     inkscape:cy="564.49012"
     inkscape:window-width="1846"
     inkscape:window-height="1016"
     inkscape:window-x="74"
     inkscape:window-y="27"
     inkscape:window-maximized="1"
     inkscape:current-layer="layer1" />
  <defs
     id="defs2" />
  <g
     inkscape:label="Layer 1"
     inkscape:groupmode="layer"
     id="layer1">
    <path
       style="fill:#333333;stroke-width:0.264583"
       id="path177"
       d="m 43.631916,60.550387 c -0.20727,3.731726 -0.446165,7.582453 -0.506998,11.300743 -0.05382,3.289829 -0.04053,6.580688 -0.0091,9.870808 0.06864,7.180103 0.269272,15.105017 0.662779,22.276342 0.186785,3.40406 0.478044,6.80157 0.717068,10.20236 0.450451,5.08635 0.756428,10.08456 1.655887,15.11186 0.262615,1.46781 0.985287,6.25372 2.950848,7.37013 2.694276,1.53031 7.709125,0.27777 10.187672,-0.0487 11.564131,-2.51635 22.566929,-6.99587 33.977403,-10.05701 1.337191,-0.35873 2.693789,-0.64076 4.040682,-0.96114 1.495901,-0.058 3.802883,-0.51632 5.178433,0.64676 1.73673,1.46845 3.65146,5.82645 4.377,7.51982 1.91657,4.47328 3.83677,10.10364 5.4553,14.64255 2.38156,6.89801 4.86161,13.76213 7.42075,20.59619 0.72469,1.93523 2.1694,5.87688 3.17164,7.92211 0.36478,0.74438 0.83787,1.43062 1.25679,2.14593 0.41101,0.36933 0.68269,1.15782 1.23301,1.108 1.20513,-0.10911 2.28803,-0.85091 3.2975,-1.51817 2.54788,-1.68417 5.05637,-3.45936 7.32549,-5.50369 1.94124,-1.74894 3.55867,-3.82937 5.24711,-5.82346 5.12042,-6.04733 6.09387,-7.70606 10.71543,-14.19655 3.31255,-5.69003 5.99163,-9.87696 8.58392,-15.91873 1.08024,-2.5177 1.97943,-5.1137 2.79482,-7.7292 1.16674,-3.74252 2.44401,-8.99565 2.52614,-13.02095 0.0374,-1.83399 -0.34085,-3.65288 -0.51127,-5.47933 -1.21167,-3.79846 -1.52871,-6.11838 -4.22579,-9.24264 -1.49136,-1.72757 -3.2422,-3.235996 -5.0753,-4.59557 -2.28372,-1.69381 -4.67901,-3.269597 -7.22792,-4.529545 -8.18859,-4.047691 -14.38966,-5.414341 -23.20742,-7.998219 -11.90485,-2.671207 -12.70359,-3.089879 -24.45381,-4.829763 -3.314575,-0.490796 -6.637644,-0.946168 -9.975638,-1.237866 -4.047489,-0.3537 -10.475946,-0.66906 -14.661088,0.262025 -1.847956,0.411123 -3.539001,1.345853 -5.308502,2.018781 -2.492259,1.971929 -5.279576,3.619667 -7.476776,5.91579 -3.503898,3.661653 -5.324615,9.496382 -6.62082,14.120427 -1.519679,5.42125 -2.899021,13.30141 -3.47799,18.90178 -0.317447,3.07068 -0.370946,6.16294 -0.556418,9.2444 -0.109612,6.8021 -0.08654,13.73765 1.587013,20.38638 0.328829,1.30638 0.658746,2.64397 1.310142,3.82314 1.452632,2.6296 2.971017,3.12154 5.40947,4.6236 5.135486,2.21167 10.619298,3.51549 15.74102,5.76103 2.123821,0.93115 4.197792,1.97961 6.227342,3.10148 4.631277,2.56002 6.664179,4.14126 10.90549,7.11276 2.701533,2.0956 4.503639,3.38649 6.949295,5.63832 1.32016,1.21552 3.0902,2.81259 3.51076,4.69343 0.0551,0.24641 -0.0116,0.50486 -0.0175,0.7573 -1.20013,1.46464 1.57513,-0.51019 2.03113,-1.1382 0.287,-0.39527 -0.94097,0.26962 -1.42229,0.35297 -3.30264,0.5719 -6.68635,0.67113 -10.024191,0.86009 -7.580595,0.29546 -15.16821,0.17859 -22.752245,0.16658 -4.155612,-0.0174 -8.310668,0.0585 -12.466198,0.0572 0,0 -3.142679,2.29013 -3.142679,2.29013 v 0 c 4.213151,-0.11884 8.427678,-0.17372 12.642421,-0.19131 7.610161,-0.0376 15.222019,0.0318 22.830026,-0.20074 2.78866,-0.13326 4.549523,-0.19395 7.288484,-0.40987 4.011672,-0.31625 4.411162,-0.3114 8.299182,-2.95992 0.179,-0.12193 0.13052,-0.41302 0.19578,-0.61953 -0.03,-0.28615 -0.004,-0.58392 -0.0901,-0.85846 -0.60245,-1.9214 -2.40147,-3.45236 -3.84455,-4.6991 -2.46475,-2.1294 -4.501737,-3.55512 -7.167223,-5.53747 -1.702141,-1.16623 -3.373226,-2.37914 -5.106427,-3.49869 -3.841803,-2.48159 -7.893753,-4.8996 -12.071027,-6.78386 -2.504765,-1.12983 -8.393996,-3.10653 -11.053415,-4.10554 -1.485025,-0.55784 -2.949962,-1.16776 -4.424942,-1.75165 -2.364695,-1.42105 -3.859049,-1.90665 -5.320827,-4.39277 -0.670396,-1.14017 -1.050515,-2.43609 -1.410546,-3.7088 -1.847165,-6.52974 -1.976374,-13.39482 -1.916171,-20.12276 0.178954,-3.06868 0.222724,-6.14823 0.536863,-9.20603 0.588643,-5.72978 1.932149,-13.35975 3.574828,-18.881381 0.843246,-2.83445 1.778863,-5.664817 3.084605,-8.318156 0.11308,-0.229785 4.470408,-6.694154 5.56972,-8.327067 1.776058,-0.71587 3.467145,-1.69659 5.328174,-2.14761 4.260339,-1.032486 10.773457,-0.835639 14.924079,-0.537228 3.387254,0.243527 6.762382,0.652949 10.126782,1.115131 11.756967,1.615112 12.659917,2.086674 24.523547,4.740418 4.11768,1.243732 8.30591,2.274128 12.35301,3.731196 6.75384,2.431571 11.86701,4.73414 17.45757,9.04185 1.77099,1.364607 3.43469,2.896857 4.87413,4.607577 2.66799,3.17081 2.94202,5.26615 4.18464,9.08792 0.17907,1.7951 0.55768,3.58141 0.53722,5.3853 -0.0452,3.98656 -1.21964,9.13893 -2.35642,12.85687 -0.79451,2.59852 -1.68913,5.17265 -2.75472,7.67226 -2.6804,6.28755 -5.09762,9.94368 -8.57805,15.86213 -4.50676,6.29023 -5.77961,8.37841 -10.83597,14.20693 -1.75516,2.02319 -3.71867,3.85884 -5.47944,5.87715 -1.52174,1.74433 -1.34849,3.15497 -4.23349,3.71741 -0.51439,0.10028 -0.83161,-0.638 -1.24742,-0.957 -0.44593,-0.68135 -0.94882,-1.32866 -1.3378,-2.04405 -1.11871,-2.05746 -2.60334,-5.76561 -3.40765,-7.76634 -2.717,-6.75861 -5.24746,-13.59186 -7.60425,-20.48431 -0.69881,-2.03066 -4.28101,-12.52931 -5.18589,-14.83041 -0.6504,-1.65397 -2.61308,-6.43654 -4.27254,-7.91969 -1.42351,-1.27227 -3.89729,-0.77055 -5.46026,-0.70508 -1.385071,0.34237 -2.78019,0.6464 -4.155225,1.02711 -11.391656,3.15402 -22.390562,7.67138 -33.979855,10.12577 -2.081424,0.27509 -7.324584,1.47475 -9.746366,0.21308 -2.005639,-1.04489 -2.863238,-5.56383 -3.181397,-7.0555 -1.093288,-5.12581 -1.41772,-9.65183 -1.984608,-14.91307 -0.26633,-3.38307 -0.59899,-6.76157 -0.798991,-10.1492 -0.425363,-7.204876 -0.612201,-15.104371 -0.543534,-22.319215 0.05567,-5.849254 0.259567,-11.299576 0.811392,-17.081518 0.142127,-1.489173 0.386017,-2.966871 0.579025,-4.450305 0,0 -3.499797,1.693045 -3.499797,1.693045 z" />
    <path
       style="fill:#333333;stroke-width:0.264583"
       id="path179"
       d="m 16.985688,14.928668 c 1.844015,-0.608894 4.067544,-1.39088 5.934147,-1.760359 5.411483,-1.07116 10.920426,-1.24156 16.382942,-0.456586 1.97209,0.283393 3.905242,0.791766 5.857864,1.187649 1.826205,0.5657 3.691697,1.017414 5.478613,1.697101 8.887021,3.380346 16.377716,9.30494 23.729691,15.164641 3.575465,2.547525 7.211293,6.392471 11.975248,6.327481 2.280205,-0.03111 3.450468,-0.875411 5.536337,-1.824503 5.853327,-3.250983 11.98162,-6.160979 18.44161,-8.002389 4.74872,-1.353617 6.91532,-1.551092 11.78243,-2.329575 11.19633,-1.336302 22.48747,-1.562625 33.75002,-1.386805 7.01528,0.135063 13.90038,1.467571 20.69165,3.121936 1.3709,0.3288 3.06717,0.894535 4.41801,0.122626 4.07063,-2.326073 3.13286,-1.409774 4.817,-3.347312 1.50476,-2.132144 2.41574,-4.584805 3.36283,-6.995088 0.54904,-1.409626 0.28515,-0.736223 0.79095,-2.020481 0,0 -3.53411,1.639975 -3.53411,1.639975 v 0 c -0.47941,1.273377 -0.22678,0.605791 -0.75859,2.002493 -0.93954,2.387226 -1.86009,4.82704 -3.44592,6.875428 -1.38365,1.418864 -1.12368,0.99334 1.83544,-0.574028 0.25647,-0.135849 -0.50578,0.294424 -0.78258,0.38167 -1.18713,0.374168 -2.43079,0.03107 -3.5922,-0.238888 -6.9092,-1.523164 -13.88438,-2.85505 -20.98287,-3.01117 -11.30819,-0.124618 -22.63719,0.117944 -33.88293,1.412596 -4.65729,0.726317 -7.22981,0.987202 -11.77593,2.252853 -1.77906,0.495293 -3.52118,1.119083 -5.25365,1.758548 -4.49746,1.660041 -8.875673,3.667207 -13.026875,6.066854 -1.913794,0.918607 -3.21836,1.821749 -5.352608,1.941888 C 84.618236,35.203397 80.890405,31.414479 77.300618,28.91664 69.859876,23.119643 62.344305,17.108967 53.439136,13.68807 51.641567,12.997538 49.760507,12.547866 47.921193,11.977765 45.961461,11.571684 44.020655,11.060123 42.041997,10.759524 36.620518,9.9358896 31.194115,10.007752 25.794504,10.964158 c -1.683977,0.298275 -4.053503,1.067998 -5.762859,1.593185 0,0 -3.045957,2.371325 -3.045957,2.371325 z" />
    <path
       style="fill:#333333;stroke-width:0.264583"
       id="path181"
       d="m 17.253161,264.39566 c 2.037733,2.97275 3.814605,6.11293 5.694868,9.18472 0.855707,1.39798 1.645229,2.84057 2.591781,4.1787 1.159188,1.63875 2.477334,3.15902 3.716002,4.73853 3.259937,3.33192 5.787033,6.27488 9.735357,8.85589 1.903719,1.24444 3.94639,2.29113 6.05191,3.15111 2.060398,0.84159 4.196141,1.56541 6.391492,1.93135 5.72399,0.95409 8.892114,0.10367 14.579766,-0.63653 10.189583,-2.59932 4.925298,-1.10162 15.459826,-4.45686 2.692514,-0.85756 5.350039,-1.83438 8.07833,-2.57024 2.792995,-0.75329 5.619374,-1.39753 8.469445,-1.89288 7.340922,-1.27593 9.064742,-1.04873 16.397342,-1.21796 7.03119,0.68265 9.47897,0.65678 16.3265,2.35771 5.93499,1.47428 11.06333,3.45048 16.79849,5.51846 11.61133,4.18685 3.73436,1.42254 14.54227,5.16348 6.048,2.11386 12.3917,3.48549 18.7912,2.36458 2.61419,-0.45791 4.12585,-1.08527 6.60675,-1.93971 2.90985,-1.10115 5.7003,-2.49024 8.38377,-4.06003 2.48272,-1.45238 4.89636,-2.70452 7.09165,-4.50284 0.47163,-0.38635 0.89865,-0.82415 1.34797,-1.23624 0,0 -3.52552,1.43999 -3.52552,1.43999 v 0 c -0.44221,0.39558 -0.864,0.81529 -1.32664,1.18677 -0.55643,0.44682 -1.24829,0.73599 -1.72696,1.26526 -0.24831,0.27453 1.31991,-0.6662 1.0067,-0.46887 -2.63754,1.66164 -5.50255,2.95542 -8.37824,4.13711 -3.53522,1.25962 -6.5729,2.33285 -10.39006,2.5237 -5.20772,0.26037 -10.29044,-0.90887 -15.20515,-2.52296 -9.38159,-3.11687 -4.74873,-1.52128 -14.67408,-5.06789 -5.06418,-1.80959 -11.55699,-4.26857 -16.77426,-5.59236 -6.5289,-1.65658 -9.65983,-1.72966 -16.35564,-2.41959 -7.40441,0.16896 -9.07319,-0.0581 -16.48567,1.20814 -2.849014,0.48665 -5.677299,1.1112 -8.469463,1.85788 -2.727719,0.72945 -5.381635,1.71119 -8.072749,2.56585 -10.347717,3.28634 -5.315503,1.84187 -15.345024,4.4395 -5.642388,0.75993 -8.750464,1.61303 -14.431796,0.6991 -2.184579,-0.35142 -4.315896,-1.04587 -6.368605,-1.87187 -2.089322,-0.84071 -4.113686,-1.87566 -6.000451,-3.10539 -4.030342,-2.62681 -6.341012,-5.40541 -9.638572,-8.82354 -1.199285,-1.58821 -2.477506,-3.1198 -3.597855,-4.76466 -0.920966,-1.35216 -1.69719,-2.79766 -2.517212,-4.21328 -1.804972,-3.11597 -3.506024,-6.29362 -5.363097,-9.38016 0,0 -3.414375,1.97603 -3.414375,1.97603 z" />
    <path
       style="fill:#333333;stroke-width:0.264583"
       id="path284"
       d="m 92.783447,304.6472 c 0.351314,1.75212 0.850797,3.46533 1.301507,5.19324 0.09447,0.36216 1.346343,5.40089 1.428617,5.73172 0.547474,2.19768 1.078802,4.39926 1.648913,6.5912 0.227086,0.8731 0.416293,1.75463 0.806029,2.57085 1.20949,-0.64191 2.505577,-1.14216 3.628467,-1.92577 0.16226,-0.11322 -0.0121,-0.39553 -0.0187,-0.59328 -0.0478,-1.43317 -0.14305,-2.86483 -0.20545,-4.29757 -0.0671,-1.42949 -0.057,-2.86078 -0.0428,-4.29123 0.002,-0.18946 0.0669,-1.77379 -0.0725,-2.08629 -0.0971,-0.21759 -0.35006,-0.32327 -0.5251,-0.4849 -0.29086,-0.003 -0.5881,-0.0711 -0.872591,-0.0106 -0.415385,0.0885 -0.802852,0.28003 -1.191853,0.45053 -1.006919,0.4413 -1.731462,0.89942 -2.725412,1.37787 -1.608542,0.7743 -1.606224,0.7207 -3.307315,1.32212 -0.699511,0.10531 -1.392132,0.27842 -2.098529,0.31591 -1.65766,0.088 -3.749615,-0.14861 -5.315273,-0.631 -2.453008,-0.75576 -4.733883,-1.98001 -6.922069,-3.29282 -1.019537,-0.61169 -1.987439,-1.30559 -2.981161,-1.95837 -0.814549,-0.6192 -1.6291,-1.23838 -2.443649,-1.85758 0,0 -2.833174,1.79512 -2.833174,1.79512 v 0 c 0.847137,0.6065 1.694275,1.21303 2.541415,1.81956 2.337091,1.48387 3.985318,2.60104 6.472338,3.87856 1.102662,0.56642 2.211874,1.13583 3.379544,1.55202 1.526323,0.54403 3.609467,0.84277 5.249288,0.82306 0.701414,-0.008 1.395257,-0.14647 2.092886,-0.21971 1.559878,-0.51935 1.829337,-0.55687 3.300053,-1.24772 1.453576,-0.68281 2.814344,-1.62243 4.382532,-2.03346 0.138573,0.0595 0.343477,0.046 0.415716,0.17839 0.168812,0.30932 0.148137,1.81411 0.14996,1.99202 0.01471,1.4378 -0.0057,2.87599 0.03132,4.31361 0.03586,1.18541 0.09493,2.37492 0.07219,3.56123 -0.0049,0.25392 -0.0024,0.50946 -0.03747,0.76097 -0.02074,0.14843 -0.270081,0.48152 -0.129085,0.43069 1.176203,-0.42397 2.259759,-1.07066 3.389639,-1.60599 -0.53031,-0.669 -0.74989,-1.54051 -1.00797,-2.33958 -0.689134,-2.13376 -1.287109,-4.29604 -1.85855,-6.46377 -0.905042,-3.69779 -1.76271,-7.41707 -2.222103,-11.2009 0,0 -3.479689,1.88174 -3.479689,1.88174 z" />
    <path
       style="fill:#333333;stroke-width:0.264583"
       id="path286"
       d="m 102.3974,5.0241702 c 0.64764,-2.4345981 1.4462,-4.82919687 2.31832,-7.19197 0.54588,-1.4789202 0.95439,-2.6230807 1.72385,-3.9632701 0.1833,-0.3192722 0.42408,-0.6019139 0.63612,-0.9028708 0.14854,-0.060421 0.57791,-0.2718792 0.44561,-0.1812636 -1.11817,0.7658668 -2.43617,1.271175 -3.41123,2.2125034 -0.26007,0.2510695 0.005,0.723061 -0.004,1.0844477 -0.0432,1.8527037 -0.16181,3.70452153 -0.24001,5.5559561 -0.054,1.7656465 -0.0497,3.5321255 -0.0622,5.2982964 -0.003,0.3633603 -0.005,0.7267385 -0.0116,1.0900463 -0.003,0.1892157 -0.0481,0.3804481 -0.0189,0.5674286 0.0167,0.1066718 0.10147,0.1906064 0.1522,0.2859095 1.14289,-0.9159938 2.44198,-1.6655372 3.42867,-2.7479815 0.25643,-0.2813111 0.0636,-0.7588805 0.11211,-1.1364169 0.0637,-0.4956341 0.14074,-0.9895948 0.22459,-1.4822241 0.26736,-1.5707783 0.63421,-3.10804679 1.0345,-4.6490209 0.23003,-0.7498218 0.40645,-1.6120036 0.90571,-2.2568122 0.16508,-0.2132121 0.8575,-0.6523141 0.63033,-0.5070486 -4.36045,2.7882167 -3.2203,1.0084075 -2.06759,2.2358309 0.24337,0.2591471 0.40694,0.5830518 0.61041,0.87457768 1.06414,2.19912722 1.39039,4.64571572 1.81144,7.02727872 0.0505,0.2912981 0.10105,0.5825958 0.15157,0.8738936 0,0 3.36705,-1.7957294 3.36705,-1.7957294 v 0 c -0.0589,-0.2865832 -0.11777,-0.5731661 -0.17666,-0.859749 -0.47966,-2.4192508 -0.88067,-4.88351263 -1.90307,-7.1483404 -0.0355,-0.056655 -1.00828,-1.7920885 -1.36557,-1.6974069 -0.54866,0.1453947 -3.67181,1.1799411 -4.49285,2.5570573 -0.419,0.702795 -0.57685,1.51111299 -0.79063,2.2856418 -0.38233,1.5523203 -0.72129,3.1056681 -1.02263,4.6759283 -0.0976,0.5086506 -0.19526,1.0173285 -0.28575,1.5272943 -0.0696,0.3921718 -0.59237,1.1964157 -0.19446,1.1789651 1.16579,-0.051126 2.16351,-0.8751731 3.24527,-1.3127598 0.0267,0.096072 0.0777,0.3879 0.0801,0.2882159 0.004,-0.1710881 -0.0592,-0.3375189 -0.0747,-0.5079603 -0.0315,-0.3476093 -0.0507,-0.6963225 -0.0661,-1.0450158 -0.0428,-0.9656445 -0.0674,-2.3205493 -0.0605,-3.2626838 0.005,-0.6571888 0.0282,-1.3141105 0.0423,-1.97116575 0.0902,-1.88600465 0.25097,-3.75701055 0.39222,-5.63892535 0.0304,-0.4046151 0.47064,-1.1955071 0.0654,-1.215503 -2.66481,-0.1314839 -2.90587,0.2299422 -3.91002,1.3222851 -0.16,0.2945442 -0.33851,0.5797703 -0.48002,0.8836329 -0.61372,1.3177705 -1.01362,2.513686 -1.51283,3.90191497 -0.88642,2.46495763 -1.724467,4.94809663 -2.684692,7.38590703 0,0 3.458072,-1.6388934 3.458072,-1.6388934 z" />
    <path
       style="fill:#333333;stroke-width:0.264583"
       id="path288"
       d="m 203.9358,129.91856 c 2.56363,0.1017 5.12965,0.12992 7.69294,0.24717 0.62334,0.0285 1.24802,0.0441 1.86903,0.10492 0.46069,0.0452 0.91487,0.14182 1.3723,0.21273 0.26642,0.11551 0.60556,0.13019 0.79927,0.34652 0.28399,0.31715 -0.48064,1.33902 -0.49571,1.35865 -1.17292,1.5283 -2.75133,2.73527 -4.21544,3.96087 -1.5615,1.31183 -3.19443,2.54241 -4.48221,4.14182 -0.51504,0.63967 -1.32468,1.80243 -1.5485,2.64734 -0.10471,0.39525 -0.048,0.81636 -0.072,1.22454 0.10616,0.34283 0.12782,0.72443 0.31849,1.02849 0.62571,0.99786 1.91378,1.09146 2.92809,0.77665 0.41916,-0.1301 0.81238,-0.33904 1.19187,-0.55952 1.43539,-0.83396 2.83152,-1.73374 4.24728,-2.60061 1.07537,-0.92616 0.67784,-0.56613 1.64302,-1.46002 0.19293,-0.17867 0.80633,-0.66668 0.57718,-0.53772 -0.94656,0.60363 -1.89312,1.20727 -2.83968,1.81091 0.0986,0.049 0.22564,0.0622 0.29593,0.14694 0.10587,0.12773 0.13512,0.30304 0.20268,0.45456 0.0423,1.05056 -0.28013,1.96629 -0.93454,2.79635 -0.27075,0.34342 -0.61202,0.62484 -0.91803,0.93726 0,0 3.43277,-1.43665 3.43277,-1.43665 v 0 c 0.30045,-0.34017 0.63912,-0.65008 0.90135,-1.02052 0.68286,-0.96464 0.98758,-2.006 0.89387,-3.17809 -0.0272,-0.0613 -0.40991,-1.18079 -0.76583,-1.04865 -1.34721,0.50016 -2.57562,1.27956 -3.82045,1.99757 -0.21474,0.12386 -0.35532,0.34582 -0.53623,0.51532 -0.82931,0.77704 -0.66326,0.61391 -1.60153,1.39165 0.71107,-0.36756 1.40758,-0.76477 2.13321,-1.10266 0.38101,-0.17742 -0.70921,0.46 -1.09768,0.62045 -0.78023,0.32228 -2.03387,0.5178 -2.60963,-0.3256 -0.1752,-0.25664 -0.18733,-0.59258 -0.281,-0.88886 0.0305,-0.36065 -0.009,-0.73423 0.0914,-1.08195 0.1225,-0.42422 0.34016,-0.81832 0.56678,-1.19727 1.32166,-2.21007 3.44197,-3.74412 5.36868,-5.37941 1.09398,-0.92362 2.22523,-1.83037 3.22448,-2.86101 0.40819,-0.42102 0.82365,-0.84457 1.14771,-1.33332 0.29816,-0.44972 0.74438,-1.36671 0.21599,-1.91222 -0.2334,-0.24097 -0.62519,-0.2435 -0.93779,-0.36525 -0.4902,-0.0614 -0.97796,-0.14723 -1.47061,-0.18418 -0.64,-0.048 -1.28268,-0.0485 -1.9241,-0.0704 -2.46567,-0.0842 -4.93989,-0.12843 -7.39023,-0.44212 0,0 -3.17309,2.26532 -3.17309,2.26532 z" />
    <path
       style="fill:#333333;stroke-width:0.264583"
       id="path316"
       d="m 66.411466,114.17538 c 0.680853,-1.69854 1.363872,-3.40601 2.219722,-5.02634 0.640464,-1.21255 0.859496,-1.48826 1.597337,-2.60736 1.242372,-1.809 2.8647,-3.29789 4.386617,-4.86311 0.893845,-0.83024 1.553313,-1.898645 2.459371,-2.712321 0.07487,-0.04553 0.149736,-0.09106 0.224605,-0.136594 -1.052936,0.619855 -2.112007,1.229405 -3.158808,1.859565 -0.06041,0.0364 0.129133,-0.0581 0.197163,-0.0767 0.129653,-0.0354 0.26407,-0.0511 0.394189,-0.0847 0.960763,-0.24839 0.924555,-0.26975 2.006677,-0.663233 0,0 2.948985,-2.302759 2.948985,-2.302759 v 0 c -0.433155,0.155152 -1.306661,0.490619 -1.824051,0.611516 -0.124656,0.02913 -0.254339,0.02935 -0.381587,0.04335 -0.08051,0.0089 -0.170384,-0.01326 -0.241684,0.02519 -3.4164,1.841456 -2.6167,1.116518 -3.798334,2.230106 -0.785318,0.88406 -1.498325,1.83332 -2.339687,2.66828 -1.501439,1.5552 -3.088939,3.05167 -4.256945,4.88857 -0.724715,1.15746 -0.898974,1.38603 -1.5446,2.63139 -0.869966,1.6781 -1.591159,3.42865 -2.42112,5.12594 0,0 3.53215,-1.6108 3.53215,-1.6108 z" />
    <path
       style="fill:#333333;stroke-width:0.264583"
       id="path318"
       d="m 145.6155,103.90346 c 1.24323,1.16034 2.18107,2.58881 3.14455,3.97644 1.90179,2.739 0.38867,0.54843 2.41638,3.4919 1.81172,2.64999 3.40644,5.44723 4.6539,8.40615 0,0 3.32466,-1.8806 3.32466,-1.8806 v 0 c -1.46482,-2.87224 -3.13173,-5.63802 -4.93232,-8.31205 -1.71365,-2.61509 -3.36708,-5.27566 -5.25308,-7.77222 0,0 -3.35409,2.09038 -3.35409,2.09038 z" />
  </g>
</svg>
