<svg viewBox="0 0 105.83333 52.916667" xmlns="http://www.w3.org/2000/svg" xmlns:xlink="http://www.w3.org/1999/xlink">
<style>
circle, path {
	fill:red;
	stroke:#1a1a1a;
	stroke-width:0.664898;
	fill-opacity:0;
	
}
<!--https://css-tricks.com/change-color-of-svg-on-hover/-->
circle:hover, path:hover {
	fill-opacity:0.5;
}

path {
	stroke-width:0.79375;
}
</style>
<circle cx="22.356468" cy="34.507988" r="15"><title>Achterwiel</title></circle>
    <circle cx="80.825394" cy="34.850029" r="15"><title>Voorrwiel</title></circle>
    <path d="M 21.950337,34.550301 C 22.368296,33.278918 36.45841,14.933442 36.45841,14.933442 l 29.896048,-0.04853 c 0,0 11.859723,23.413281 14.85869,20.629573" id="path2706"><title>Frame</title></path>
    <path d="m 21.919393,34.295026 c 23.522319,-0.07282 23.82836,0.29532 23.82836,0.29532 L 66.167797,14.977009 v 0"><title>Frame</title></path>
    <path d="M 45.693352,34.3249 34.664109,10.639295"></path>
    <path style="fill:#a58484;fill-opacity:1;" d="m 31.837221,13.164869 c 3.065206,-2.269781 10.164734,-3.024867 10.164734,-3.024867 0,0 5.141637,-1.4224928 2.143363,-1.3364238 -2.998275,0.08607 -8.277895,-0.315285 -9.241782,-1.283054 -0.963885,-0.967772 -1.594149,-4.016179 -3.340418,-1.892126 -1.746268,2.124057 -3.104898,6.7265448 -1.863495,7.4464518 1.241404,0.719905 2.137598,0.09002 2.137598,0.09002 z"><title>Zadele</title></path>
    <circle style="stroke:#767676;" cx="45.351917" cy="34.368011" r="4.1265974"><title>Front Gear</title></circle>
    <circle style="stroke:#767676;" cx="22.639477" cy="34.04126" r="2.655901"><title>Back Gear</title></circle>
    <path style="stroke:#767676;stroke-width:0.529167;" d="m 22.164112,30.909082 c 23.67143,-1.071846 23.488622,-1.190186 23.488622,-1.190186 v 0"></path>
    <path style="stroke:#767676;stroke-width:0.529167;" d="M 45.252366,38.682963 C 22.729071,36.823173 22.729071,36.823173 22.729071,36.823173"></path>
    <path style="stroke-width:0.642744;" d="m 66.027338,15.184199 c 0,-0.51459 -0.311688,-7.2874978 -0.311688,-7.2874978 l 4.817293,-4.649901 c 0,0 -0.05964,6.611902 4.358985,5.785037 4.418624,-0.826869 4.418624,-0.826869 4.418624,-0.826869"><title>Stuur2</title></path>
    <path d="m 67.360381,6.1856082 c -6.63322,7.4364788 -7.408614,7.6486558 -7.408614,7.6486558 0,0 3.460287,9.584039 9.358019,4.733656"><title>Stuur</title></path>
</svg>