<?xml version="1.0" encoding="UTF-8" standalone="no"?>
<!-- Created with Inkscape (http://www.inkscape.org/) -->

<svg
   width="1280"
   height="720"
   viewBox="0 0 338.66667 190.5"
   version="1.1"
   id="svg5"
   inkscape:version="1.1.2 (08b2f3d93c, 2022-04-05)"
   sodipodi:docname="web_comic_initiation.svg"
   xmlns:inkscape="http://www.inkscape.org/namespaces/inkscape"
   xmlns:sodipodi="http://sodipodi.sourceforge.net/DTD/sodipodi-0.dtd"
   xmlns="http://www.w3.org/2000/svg"
   xmlns:svg="http://www.w3.org/2000/svg">
  <sodipodi:namedview
     id="namedview7"
     pagecolor="#ffffff"
     bordercolor="#666666"
     borderopacity="1.0"
     inkscape:pageshadow="2"
     inkscape:pageopacity="0.0"
     inkscape:pagecheckerboard="0"
     inkscape:document-units="mm"
     showgrid="false"
     units="px"
     inkscape:snap-grids="true"
     inkscape:zoom="0.75187991"
     inkscape:cx="397.00489"
     inkscape:cy="404.98489"
     inkscape:window-width="1846"
     inkscape:window-height="1016"
     inkscape:window-x="74"
     inkscape:window-y="27"
     inkscape:window-maximized="1"
     inkscape:current-layer="layer1" />
  <defs
     id="defs2">
    <rect
       x="1015.7215"
       y="251.90817"
       width="247.69457"
       height="165.0006"
       id="rect45586" />
    <rect
       x="781.90292"
       y="25.668124"
       width="426.79903"
       height="118.34476"
       id="rect35037" />
    <rect
       x="382.14679"
       y="18.661233"
       width="354.06938"
       height="161.06755"
       id="rect21857" />
    <rect
       x="11.736532"
       y="9.7824054"
       width="310.63982"
       height="117.59087"
       id="rect5227" />
  </defs>
  <g
     inkscape:label="Layer 1"
     inkscape:groupmode="layer"
     id="layer1">
    <text
       xml:space="preserve"
       transform="scale(0.26458333)"
       id="text5225"
       style="font-style:normal;font-weight:normal;font-size:40px;line-height:1.25;font-family:sans-serif;white-space:pre;shape-inside:url(#rect5227);fill:#000000;fill-opacity:1;stroke:none"><tspan
         x="11.736328"
         y="45.173828"
         id="tspan53444">This is a comic
</tspan><tspan
         x="11.736328"
         y="95.173828"
         id="tspan53446">right?
</tspan></text>
    <circle
       style="fill:#333333;stroke-width:0.264583"
       id="path17819"
       cx="27.572859"
       cy="53.930191"
       r="10.266801" />
    <rect
       style="fill:#333333;stroke-width:0.264583"
       id="rect17845"
       width="4.4180055"
       height="35.38612"
       x="26.116232"
       y="62.625069" />
    <rect
       style="fill:#333333;stroke-width:0.264583"
       id="rect17847"
       width="4.9674978"
       height="26.670044"
       x="30.534237"
       y="98.011185" />
    <rect
       style="fill:#333333;stroke-width:0.264583"
       id="rect17849"
       width="4.8994575"
       height="26.458382"
       x="21.216774"
       y="98.011185" />
    <rect
       style="fill:#333333;stroke-width:0.264583"
       id="rect17851"
       width="20.20153"
       height="4.8038683"
       x="31.438784"
       y="74.858604" />
    <rect
       style="fill:#333333;stroke-width:0.264583"
       id="rect17855"
       width="26.504448"
       height="4.6933823"
       x="4.9343367"
       y="74.858597" />
    <rect
       style="fill:#333333;stroke-width:0.264583"
       id="rect17871"
       width="1.184319"
       height="14.90226"
       x="22.610912"
       y="27.126976" />
    <text
       xml:space="preserve"
       transform="scale(0.26458333)"
       id="text21855"
       style="font-style:normal;font-weight:normal;font-size:40px;line-height:1.25;font-family:sans-serif;white-space:pre;shape-inside:url(#rect21857);fill:#000000;fill-opacity:1;stroke:none"><tspan
         x="382.14648"
         y="54.052734"
         id="tspan53448">Yes, but an svg </tspan><tspan
         x="382.14648"
         y="104.05273"
         id="tspan53450">web comic in </tspan><tspan
         x="382.14648"
         y="154.05273"
         id="tspan53452">720p to be exact</tspan></text>
    <rect
       style="fill:#333333;stroke-width:0.264583"
       id="rect29559"
       width="2.1967065"
       height="35.869652"
       x="112.35386"
       y="46.034767" />
    <ellipse
       style="fill:#333333;stroke-width:0.264583"
       id="path29583"
       cx="101.86246"
       cy="94.137215"
       rx="12.688103"
       ry="12.23279" />
    <rect
       style="fill:#333333;stroke-width:0.264583"
       id="rect29607"
       width="4.4180055"
       height="26.873632"
       x="98.308121"
       y="106.25503" />
    <rect
       style="fill:#333333;stroke-width:0.264583"
       id="rect29615"
       width="5.7673602"
       height="29.089773"
       x="92.540756"
       y="133.12866" />
    <rect
       style="fill:#333333;stroke-width:0.264583"
       id="rect29617"
       width="5.6844559"
       height="29.214088"
       x="102.72613"
       y="133.12866" />
    <rect
       style="fill:#333333;stroke-width:0.264583"
       id="rect29619"
       width="25.814056"
       height="5.4832506"
       x="102.6903"
       y="116.13695" />
    <rect
       style="fill:#333333;stroke-width:0.264583"
       id="rect29621"
       width="26.287472"
       height="5.0878253"
       x="76.402832"
       y="116.13694" />
    <rect
       style="fill:#333333;stroke-width:0.264583"
       id="rect29623"
       width="3.2420628"
       height="186.70164"
       x="195.87448"
       y="2.3649869" />
    <text
       xml:space="preserve"
       transform="scale(0.26458333)"
       id="text35035"
       style="font-style:normal;font-weight:normal;font-size:40px;line-height:1.25;font-family:sans-serif;white-space:pre;shape-inside:url(#rect35037);fill:#000000;fill-opacity:1;stroke:none"><tspan
         x="781.90234"
         y="61.058594"
         id="tspan53454">btw do you know </tspan><tspan
         x="781.90234"
         y="111.05859"
         id="tspan53456">how to draw lines?</tspan></text>
    <path
       style="fill:#333333;stroke-width:0.264583"
       id="path41594"
       d="m 298.31268,130.36524 c -1.07122,-2.06713 -1.81965,-4.33085 -2.05812,-6.65461 -0.051,-0.49733 -0.0493,-0.99867 -0.074,-1.49801 0.13157,-2.23983 1.05312,-4.19558 2.39048,-5.96623 0.33097,-0.43818 0.67384,-0.87129 1.0641,-1.2576 0.38341,-0.37952 0.83182,-0.6872 1.24772,-1.0308 0.43963,-0.26736 1.72919,-1.1126 1.3189,-0.80209 -0.61847,0.46807 -1.45188,0.67815 -1.94559,1.27637 -0.27813,0.33701 0.82079,-0.30246 1.24092,-0.42251 1.26934,-0.3627 1.93569,-0.32633 3.20487,-0.0909 2.52598,0.78765 3.49388,3.21646 4.33557,5.49965 0.88548,2.90825 1.11369,5.94727 1.19441,8.96909 0.0488,2.47551 -0.269,4.93774 -0.84574,7.34069 -0.25448,0.60649 -0.36055,1.51115 -0.90972,1.96798 -0.20447,0.17007 -0.92162,0.52768 -0.70508,0.37331 2.48131,-1.76883 3.43162,-1.74855 0.89699,-1.28095 -3.54825,0.36917 -6.86417,-0.0865 -10.28796,-0.99172 -1.4797,-0.46709 -3.00439,-0.95459 -4.26471,-1.89487 -0.18912,-0.14111 -0.3869,-0.28035 -0.53366,-0.46513 -0.1324,-0.16672 -0.19225,-0.37993 -0.28837,-0.5699 -0.39399,-1.27731 0.0727,-2.38766 0.74551,-3.46138 0.43389,-0.60113 1.03299,-1.02867 1.62317,-1.45977 1.89987,-1.25289 -4.54856,2.40502 -2.53056,1.46352 0,0 3.1037,-2.50156 3.1037,-2.50156 v 0 c -1.38441,0.87855 -2.97289,1.47063 -4.26318,2.50444 -0.59087,0.45028 -1.1485,0.94906 -1.53363,1.59431 -0.6577,1.2098 -1.03092,2.44867 -0.5502,3.80555 0.12216,0.23192 0.2041,0.48998 0.36647,0.69576 0.15785,0.20002 0.37312,0.34866 0.57759,0.50069 1.30193,0.96804 2.87234,1.47135 4.39952,1.9532 1.24372,0.33163 2.03052,0.571 3.31351,0.78797 2.32476,0.39314 4.70323,0.48884 7.05342,0.34156 2.96169,-0.36822 1.44814,-0.007 5.81361,-2.44582 0.24704,-0.13802 0.4718,-0.32263 0.66008,-0.53392 0.49083,-0.55087 0.57827,-1.41282 0.81854,-2.07109 0.52814,-2.43197 0.82124,-4.91562 0.76068,-7.40806 -0.0974,-3.05951 -0.37325,-6.12879 -1.26286,-9.07322 -0.74594,-2.03144 -1.57205,-4.3035 -3.55528,-5.46127 -0.29438,-0.17184 -0.62818,-0.26481 -0.94229,-0.39721 -0.88276,-0.20517 -1.25487,-0.36186 -2.18501,-0.28501 -0.39433,0.0326 -0.78107,0.13284 -1.16422,0.23165 -2.64287,0.68155 -4.94662,2.25299 -7.20045,3.74619 -0.40666,0.36332 -0.84465,0.69439 -1.22002,1.08995 -1.99231,2.09938 -3.14804,4.60892 -3.34671,7.48887 0.033,0.50929 0.0412,1.02078 0.0989,1.52785 0.27091,2.37905 1.04095,4.67026 2.0279,6.8408 0,0 3.41077,-1.97575 3.41077,-1.97575 z" />
    <path
       style="fill:#333333;stroke-width:0.264583"
       id="path41596"
       d="m 301.20055,140.91581 c 1.53355,3.65289 2.43631,7.51961 3.21649,11.38994 1.11813,6.44214 1.50781,12.98004 1.68291,19.507 0.0945,3.16814 -0.009,6.33383 -0.15497,9.49796 -0.0431,1.89128 -0.22595,3.77086 -0.49948,5.64115 -0.17571,1.22578 -0.43908,2.44001 -0.82828,3.61605 0,0 3.57749,-1.69007 3.57749,-1.69007 v 0 c 0.34181,-1.19493 0.58756,-2.41504 0.75049,-3.6473 0.26024,-1.88099 0.43304,-3.77116 0.47088,-5.67111 0.10506,-3.14472 0.10059,-6.28948 -0.0308,-9.43419 -0.25233,-6.54159 -0.7057,-13.08267 -1.71807,-19.55597 -0.75444,-3.92154 -1.65222,-7.81166 -3.01588,-11.57325 0,0 -3.45078,1.91979 -3.45078,1.91979 z" />
    <path
       style="fill:#333333;stroke-width:0.264583"
       id="path41598"
       d="m 304.19008,155.1501 c -4.12007,-0.96617 -8.05551,-2.535 -11.94438,-4.17512 -5.52825,-2.36943 -10.58637,-5.62367 -15.44013,-9.14077 -3.87149,-2.90078 -7.4731,-6.1346 -10.96849,-9.47226 0,0 -3.18372,1.96439 -3.18372,1.96439 v 0 c 3.56036,3.29977 7.20624,6.51683 11.06627,9.46462 0.84317,0.62404 1.67143,1.26878 2.52952,1.87211 4.06054,2.85495 8.41523,5.29528 12.92474,7.36068 3.85281,1.64343 7.73165,3.24366 11.77764,4.35718 0,0 3.23855,-2.23083 3.23855,-2.23083 z" />
    <path
       style="fill:#333333;stroke-width:0.264583"
       id="path41600"
       d="m 305.93953,154.20671 c 1.08058,-0.58413 1.36546,-0.72977 2.57035,-1.43128 1.71749,-0.99997 3.44723,-1.97983 5.14165,-3.01843 2.26922,-1.39095 4.3679,-3.05796 6.45387,-4.70225 3.08512,-2.52131 5.56273,-5.63355 7.8404,-8.87473 1.07884,-1.52604 2.05954,-3.10877 2.76225,-4.84217 0.30181,-0.78333 0.58653,-1.57626 0.7648,-2.39776 0.0143,-0.076 0.0284,-0.15209 0.0426,-0.22813 0,0 -3.57619,1.73556 -3.57619,1.73556 v 0 c -0.0148,0.0719 -0.0298,0.14373 -0.0447,0.21559 -0.19066,0.79152 -0.44836,1.56456 -0.7534,2.31949 -0.70832,1.68205 -1.67158,3.22857 -2.71187,4.7256 -2.25068,3.19891 -4.70369,6.2634 -7.77293,8.72708 -1.86031,1.4557 -2.28272,1.83043 -4.26035,3.19274 -0.73877,0.50891 -1.55212,0.9137 -2.24748,1.4805 -0.38846,0.31664 1.73729,-0.99783 1.31819,-0.72303 -0.49231,0.32283 -1.81518,1.01335 -2.45851,1.35417 0,0 -3.06872,2.46705 -3.06872,2.46705 z" />
    <text
       xml:space="preserve"
       transform="scale(0.26458333)"
       id="text45584"
       style="font-style:normal;font-weight:normal;font-size:40px;line-height:1.25;font-family:sans-serif;white-space:pre;shape-inside:url(#rect45586);fill:#000000;fill-opacity:1;stroke:none"><tspan
         x="1015.7207"
         y="287.29883"
         id="tspan53458">YES, like </tspan><tspan
         x="1015.7207"
         y="337.29883"
         id="tspan53460">this!</tspan></text>
    <path
       style="fill:#333333;stroke-width:0.264583"
       id="path53323"
       d="m 300.41985,104.23254 c 1.23629,-2.75971 1.91997,-5.755646 2.4544,-8.722472 0.38193,-2.01006 0.40736,-4.017475 -0.18349,-5.980271 -0.23931,-0.662252 -0.57882,-1.30075 -1.18022,-1.691701 -0.25572,-0.135093 -0.54229,-0.186314 -0.81534,-0.274 -0.21413,-0.05258 -0.40564,-0.154577 -0.59042,-0.271766 -0.21421,-0.162354 -0.44191,-0.298842 -0.68601,-0.410552 -0.14727,-0.07143 -0.30073,-0.127587 -0.45482,-0.181959 0,0 -3.28919,2.247506 -3.28919,2.247506 v 0 c 0.1444,0.03413 0.28675,0.07358 0.42328,0.133202 0.22357,0.105291 0.45534,0.193116 0.64616,0.356743 0.20161,0.148158 0.41622,0.288943 0.65416,0.370326 0.25852,0.08148 0.51551,0.166651 0.78438,0.209802 0.58039,0.21509 0.83529,0.876548 1.05762,1.402474 0.59632,1.887141 0.5456,3.825563 0.19587,5.765146 -0.53657,2.953142 -1.17933,5.991662 -2.64337,8.639262 0,0 3.62699,-1.59174 3.62699,-1.59174 z" />
    <ellipse
       style="fill:#333333;stroke-width:0.264583"
       id="path53347"
       cx="212.77148"
       cy="51.533833"
       rx="11.479652"
       ry="11.409904" />
    <rect
       style="fill:#333333;stroke-width:0.264583"
       id="rect53371"
       width="2.6668816"
       height="12.245452"
       x="223.4794"
       y="33.592499" />
    <rect
       style="fill:#333333;stroke-width:0.264583"
       id="rect53373"
       width="4.6504622"
       height="29.26161"
       x="210.27629"
       y="62.991043" />
    <rect
       style="fill:#333333;stroke-width:0.264583"
       id="rect53375"
       width="23.786339"
       height="5.3352027"
       x="216.21617"
       y="72.270126" />
    <rect
       style="fill:#333333;stroke-width:0.264583"
       id="rect53377"
       width="17.450193"
       height="6.1933007"
       x="198.76598"
       y="72.270126" />
    <rect
       style="fill:#333333;stroke-width:0.264583"
       id="rect53379"
       width="3.8260553"
       height="25.521397"
       x="214.92676"
       y="92.252655" />
    <rect
       style="fill:#333333;stroke-width:0.264583"
       id="rect53383"
       width="4.3670273"
       height="23.983635"
       x="205.90926"
       y="92.252655" />
  </g>
</svg>
