<?xml version="1.0" encoding="UTF-8" standalone="no"?>
<!-- Created with Inkscape (http://www.inkscape.org/) -->

<svg
   width="300"
   height="300"
   viewBox="0 0 79.374998 79.375"
   version="1.1"
   id="svg5"
   inkscape:version="1.2.1 (ef4d3fba62, 2022-07-19, custom)"
   sodipodi:docname="pocketanimal.svg"
   xmlns:inkscape="http://www.inkscape.org/namespaces/inkscape"
   xmlns:sodipodi="http://sodipodi.sourceforge.net/DTD/sodipodi-0.dtd"
   xmlns="http://www.w3.org/2000/svg"
   xmlns:svg="http://www.w3.org/2000/svg">
  <sodipodi:namedview
     id="namedview7"
     pagecolor="#ffffff"
     bordercolor="#666666"
     borderopacity="1.0"
     inkscape:showpageshadow="2"
     inkscape:pageopacity="0.0"
     inkscape:pagecheckerboard="0"
     inkscape:deskcolor="#d1d1d1"
     inkscape:document-units="mm"
     showgrid="false"
     inkscape:zoom="0.75722503"
     inkscape:cx="281.29023"
     inkscape:cy="355.24447"
     inkscape:window-width="1920"
     inkscape:window-height="1043"
     inkscape:window-x="1920"
     inkscape:window-y="0"
     inkscape:window-maximized="1"
     inkscape:current-layer="layer1" />
  <defs
     id="defs2" />
  <g
     inkscape:label="Layer 1"
     inkscape:groupmode="layer"
     id="layer1">
    <path
       style="fill:none;stroke:#000000;stroke-width:0.264583px;stroke-linecap:butt;stroke-linejoin:miter;stroke-opacity:1"
       d="m 10.779813,32.703717 5.185301,-11.206299 c 0,0 2.898429,-4.593366 13.325845,-1.653958 10.427417,2.939407 1.371971,10.78057 1.371971,10.78057 0,0 1.500012,9.129247 19.608516,7.251179 18.108504,-1.878067 24.331975,11.543757 24.331975,11.543757 0,0 -16.878313,13.678818 -23.227609,4.488622 -6.349296,-9.190198 -25.608913,-2.907323 -25.608913,-2.907323 0,0 -17.8037909,-0.436274 -20.7116888,-10.093807 -2.9078975,-9.657532 5.7246028,-8.202741 5.7246028,-8.202741 z"
       id="path299" />
    <path
       style="fill:none;stroke:#000000;stroke-width:0.3"
       id="path461"
       sodipodi:type="arc"
       sodipodi:cx="21.899313"
       sodipodi:cy="27.071894"
       sodipodi:rx="2.2870431"
       sodipodi:ry="2.3365738"
       sodipodi:start="0"
       sodipodi:end="6.2570005"
       sodipodi:open="true"
       sodipodi:arc-type="arc"
       d="m 24.186356,27.071894 a 2.2870431,2.3365738 0 0 1 -2.272072,2.336523 2.2870431,2.3365738 0 0 1 -2.301818,-2.305933 2.2870431,2.3365738 0 0 1 2.241936,-2.366714 2.2870431,2.3365738 0 0 1 2.33117,2.274948" />
    <path
       sodipodi:type="star"
       style="fill:none;stroke:#000000;stroke-width:0.3"
       id="path519"
       inkscape:flatsided="false"
       sodipodi:sides="43"
       sodipodi:cx="59.47123"
       sodipodi:cy="61.469437"
       sodipodi:r1="74.902298"
       sodipodi:r2="37.013199"
       sodipodi:arg1="-2.2707157"
       sodipodi:arg2="-2.1976554"
       inkscape:rounded="0"
       inkscape:randomized="0"
       d="M 11.222464,4.1771089 37.759143,31.49341 20.078463,-2.2374245 42.355065,28.651548 29.77405,-7.2941568 47.315788,26.509143 40.102582,-10.885312 52.535584,25.111855 50.843922,-12.934352 57.903201,24.489467 61.769139,-13.397605 63.304238,24.655242 72.645379,-12.265196 68.623581,25.605648 83.240836,-9.5612613 73.747857,27.320428 93.329685,-5.3434309 78.567852,29.763035 102.6969,0.29839987 82.980835,32.881409 111.14283,7.243985 86.892752,36.609087 118.48748,15.345292 90.220227,40.86662 124.57429,24.429654 92.89234,45.563267 129.27355,34.303455 94.852141,50.598926 132.48509,44.756252 96.057859,55.866271 134.14047,55.565262 96.483796,61.253038 134.2044,66.500109 96.120874,66.644417 132.67552,77.327735 94.97683,71.9255 129.58643,87.81737 93.076044,76.98373 125.00294,97.745444 90.459031,81.7113 119.02277,106.90036 87.181566,86.00745 111.77335,115.08699 83.313504,89.780615 103.40921,122.13086 78.937285,92.950376 94.108605,127.88183 74.146181,95.449176 84.069765,132.21734 69.042306,97.223757 73.50665,135.04498 63.73444,98.236296 62.644394,136.30449 58.33571,98.465213 51.714507,135.96902 52.961183,97.90563 40.949942,134.04571 47.725406,96.569472 30.580126,130.57557 42.739971,94.485219 20.826073,125.63256 38.111133,91.697291 11.895675,119.32202 33.937549,88.265109 3.979267,111.77845 30.308171,84.261823 -2.7544259,103.16263 27.300353,79.772758 -8.1618871,93.658189 24.978201,74.893589 -12.127866,83.467704 23.391208,69.728307 -14.567834,72.808365 22.573198,64.387002 -15.429788,61.907356 22.541606,58.983515 -14.695357,50.997014 23.297105,53.63301 -12.380194,40.309873 24.823592,48.449525 -8.5336429,30.073711 27.088533,43.543537 -3.2376858,20.506695 30.043656,39.019608 3.394803,11.812729 33.625976,34.974159 Z"
       inkscape:transform-center-x="0.083925179"
       inkscape:transform-center-y="-0.015994354"
       transform="translate(-19.91775,-18.883825)" />
    <path
       style="fill:none;stroke:#000000;stroke-width:0.264583px;stroke-linecap:butt;stroke-linejoin:miter;stroke-opacity:1"
       d="M 36.066782,35.744083 64.115865,20.41184 52.216158,33.178091 75.79403,27.844816 63.754764,38.936858"
       id="path583" />
    <path
       style="fill:none;stroke:#000000;stroke-width:0.3"
       id="path585"
       sodipodi:type="arc"
       sodipodi:cx="31.680412"
       sodipodi:cy="58.109303"
       sodipodi:rx="7.3344483"
       sodipodi:ry="20.015404"
       sodipodi:start="0"
       sodipodi:end="6.2570005"
       sodipodi:open="true"
       sodipodi:arc-type="arc"
       d="m 39.014861,58.109303 a 7.3344483,20.015404 0 0 1 -7.286436,20.014974 7.3344483,20.015404 0 0 1 -7.381832,-19.752932 7.3344483,20.015404 0 0 1 7.18979,-20.273587 7.3344483,20.015404 0 0 1 7.475963,19.487505" />
  </g>
</svg>
