<?xml version="1.0" encoding="UTF-8" standalone="no"?>
<!-- Created with Inkscape (http://www.inkscape.org/) -->

<svg
   width="48"
   height="48"
   viewBox="0 0 12.7 12.7"
   version="1.1"
   id="svg5"
   inkscape:version="1.2 (56b05e47e7, 2022-06-09, custom)"
   sodipodi:docname="portrait"
   xmlns:inkscape="http://www.inkscape.org/namespaces/inkscape"
   xmlns:sodipodi="http://sodipodi.sourceforge.net/DTD/sodipodi-0.dtd"
   xmlns:xlink="http://www.w3.org/1999/xlink"
   xmlns="http://www.w3.org/2000/svg"
   xmlns:svg="http://www.w3.org/2000/svg">
  <sodipodi:namedview
     id="namedview7"
     pagecolor="#ffffff"
     bordercolor="#666666"
     borderopacity="1.0"
     inkscape:showpageshadow="2"
     inkscape:pageopacity="0.0"
     inkscape:pagecheckerboard="0"
     inkscape:deskcolor="#d1d1d1"
     inkscape:document-units="mm"
     showgrid="false"
     inkscape:zoom="15.506205"
     inkscape:cx="29.052886"
     inkscape:cy="23.82917"
     inkscape:window-width="1920"
     inkscape:window-height="1016"
     inkscape:window-x="0"
     inkscape:window-y="27"
     inkscape:window-maximized="1"
     inkscape:current-layer="layer1" />
  <defs
     id="defs2">
    <linearGradient
       inkscape:collect="always"
       id="linearGradient1702">
      <stop
         style="stop-color:#c7aea9;stop-opacity:1;"
         offset="0"
         id="stop1698" />
      <stop
         style="stop-color:#55ddff;stop-opacity:0;"
         offset="1"
         id="stop1700" />
    </linearGradient>
    <linearGradient
       inkscape:collect="always"
       xlink:href="#linearGradient1702"
       id="linearGradient1704"
       x1="-0.08102636"
       y1="6.2767415"
       x2="12.849207"
       y2="6.2767415"
       gradientUnits="userSpaceOnUse" />
  </defs>
  <g
     inkscape:label="Layer 1"
     inkscape:groupmode="layer"
     id="layer1">
    <circle
       style="fill:#ac9393;stroke:url(#linearGradient1704);stroke-width:0.264999"
       id="path1465"
       cx="6.3840904"
       cy="6.2767415"
       r="6.3326173" />
    <path
       style="fill:#333333;stroke:#55ddff;stroke-width:0.264999"
       id="path1874"
       d="M 1.6105561,4.6199509 C 1.8220623,4.4948199 2.0327843,4.3681734 2.2515852,4.2559747 2.3195645,4.2211159 2.3887205,4.1886012 2.4572881,4.1549145 2.70877,4.0388688 2.9690925,3.9258745 3.2472278,3.8942565 c 0.167622,-0.019055 0.2080971,-0.00657 0.3718721,0.00967 0.061766,0.015653 0.1248021,0.026947 0.1852978,0.046955 0.2020538,0.066823 0.3922765,0.1784014 0.5691722,0.2944582 0.059826,0.039251 0.1169685,0.082485 0.1766697,0.121925 0.062859,0.041527 0.1272928,0.080619 0.1909392,0.1209279 0.1149908,0.066463 0.2674371,0.1606605 0.392499,0.2090864 0.2011294,0.077881 0.4254384,0.113847 0.6396635,0.1287817 0.054881,0.00383 0.1099699,0.0036 0.1649551,0.00539 0.043001,-0.00108 0.086002,-0.00217 0.1290026,-0.00324 0,0 0.7317494,-0.5419278 0.7317494,-0.5419278 v 0 c -0.047728,0.00723 -0.095457,0.014457 -0.1431854,0.021685 -0.1569484,0.010721 -0.2175605,0.020537 -0.3794948,0.0064 C 6.1290178,4.3015058 5.9883796,4.2744556 5.8489452,4.224026 5.69874,4.1697007 5.597703,4.1050482 5.4590907,4.0269572 5.3360706,3.9462479 5.2135523,3.8647753 5.0904542,3.7841851 5.0185023,3.7370795 4.7866199,3.5853158 4.7096796,3.5439088 4.5555188,3.4609439 4.4993446,3.4502137 4.334855,3.3957863 4.1562742,3.374355 4.1224207,3.3619199 3.939555,3.3747281 c -0.069085,0.00484 -0.1382474,0.012533 -0.2060432,0.026672 -0.068094,0.0142 -0.1342789,0.03658 -0.2004282,0.05809 -0.1948389,0.063359 -0.221746,0.081061 -0.4098597,0.164293 -0.096878,0.04584 -0.2882654,0.1354582 -0.3864856,0.1854573 -0.1221861,0.062199 -0.2404749,0.132008 -0.3630223,0.193512 0,0 -0.7631599,0.617198 -0.7631599,0.6171985 z" />
    <path
       style="fill:#333333;stroke:#55ddff;stroke-width:0.264999"
       id="path1874-3"
       d="M 6.843323,4.8086311 C 7.0548292,4.6835002 7.2655512,4.5568537 7.4843521,4.444655 7.5523314,4.4097962 7.6214874,4.3772815 7.690055,4.3435948 c 0.2514819,-0.1160457 0.5118044,-0.22904 0.7899397,-0.260658 0.167622,-0.019055 0.2080971,-0.00657 0.3718721,0.00967 0.061766,0.015653 0.1248021,0.026947 0.1852978,0.046955 0.2020538,0.066823 0.3922765,0.1784013 0.5691722,0.2944581 0.059826,0.039251 0.1169685,0.082485 0.1766697,0.1219251 0.062859,0.041527 0.1272928,0.080619 0.1909392,0.1209278 0.1149903,0.066463 0.2674373,0.1606605 0.3924993,0.2090864 0.201129,0.077881 0.425438,0.113847 0.639663,0.1287817 0.05488,0.00383 0.10997,0.0036 0.164955,0.00539 0.043,-0.00108 0.086,-0.00217 0.129003,-0.00324 0,0 0.731749,-0.5419277 0.731749,-0.5419277 v 0 c -0.04773,0.00723 -0.09546,0.014457 -0.143185,0.021685 -0.156949,0.010721 -0.217561,0.020537 -0.379495,0.0064 -0.14735,-0.012862 -0.287989,-0.039912 -0.427423,-0.090342 C 10.931507,4.358381 10.83047,4.2937284 10.691858,4.2156375 10.568837,4.1349282 10.446319,4.0534556 10.323221,3.9728654 10.251269,3.9257598 10.019387,3.7739961 9.9424465,3.7325891 9.7882857,3.6496242 9.7321115,3.638894 9.5676219,3.5844666 c -0.1785808,-0.021431 -0.2124343,-0.033866 -0.3953,-0.021058 -0.069085,0.00484 -0.1382474,0.012533 -0.2060432,0.026672 -0.068094,0.0142 -0.1342789,0.03658 -0.2004282,0.05809 -0.1948389,0.063359 -0.221746,0.081061 -0.4098597,0.164293 -0.096878,0.04584 -0.2882654,0.1354582 -0.3864856,0.1854572 -0.1221861,0.062199 -0.2404749,0.132008 -0.3630223,0.193512 0,0 -0.7631599,0.617198 -0.7631599,0.6171983 z" />
    <path
       style="fill:#333333;stroke:#55ddff;stroke-width:0.264999"
       id="path2061"
       d="m 2.5494744,7.2275577 c 0.081381,0.039617 0.1404721,0.066434 0.222214,0.1209678 0.076244,0.050865 0.14688,0.1097134 0.2218622,0.1624206 0.1330595,0.093531 0.2709156,0.1802384 0.4021981,0.2762477 0.1548442,0.1132404 0.3038769,0.2342211 0.4558641,0.3512683 0.1591009,0.1225253 0.3182665,0.2449663 0.4773999,0.3674496 0.367851,0.2514385 0.5959155,0.4142184 0.9710285,0.645007 0.2990612,0.1839974 0.4670523,0.2918066 0.8006075,0.3917384 0.3538479,0.1060111 0.4131995,0.076885 0.7817249,0.072464 0.3258457,-0.04465 0.4102954,-0.043467 0.7207686,-0.1340133 0.3464203,-0.1010296 0.6733043,-0.2572901 0.993053,-0.4217477 0,0 0.6701853,-0.53989 0.6701853,-0.53989 v 0 C 9.1999325,8.5573398 9.1342997,8.596677 9.0670363,8.6330784 8.7927568,8.7815117 8.5076431,8.9177306 8.2109007,9.0154317 7.8822898,9.1236254 7.825397,9.1197455 7.4801173,9.1786545 7.127187,9.191373 7.046192,9.2166336 6.6967941,9.1391313 6.3752893,9.067816 6.1258481,8.9585995 5.8324625,8.8067186 5.6652231,8.7201414 5.5005673,8.6280119 5.3414101,8.5273464 5.1709404,8.4195255 5.0101957,8.2970464 4.8445885,8.1818963 4.6920271,8.05622 4.5347037,7.9361111 4.3869041,7.8048677 4.2486151,7.6820696 4.1142822,7.5544597 3.9869522,7.4203316 3.8836435,7.3115071 3.7928015,7.1914924 3.6958764,7.0769455 3.6394916,7.0103094 3.5828028,6.9439257 3.5270223,6.8767827 3.4915316,6.8340628 3.4592273,6.7886542 3.422075,6.747371 3.407084,6.730713 3.388096,6.718145 3.371107,6.703532 c 0,0 -0.8216329,0.5240258 -0.8216326,0.5240257 z" />
    <path
       style="fill:#333333;stroke:#55ddff;stroke-width:0.264999"
       id="path2063"
       d="m 3.1215904,1.3544293 c -0.036351,-0.095481 0.008,-0.1204107 0.067331,-0.212183 0.038732,-0.059913 0.07554,-0.1213985 0.1197494,-0.17739191 C 3.4479021,0.78851214 3.556259,0.69486858 3.7188822,0.53763539 3.7979453,0.47310905 3.8743003,0.40511486 3.9560711,0.34405633 4.0411669,0.28051482 4.12863,0.21989834 4.2190352,0.16416908 4.3039215,0.11184186 4.5672634,-0.03028299 4.4813127,0.02027693 3.6062763,0.53154762 2.7312403,1.0428183 1.856204,1.554089 1.904876,1.532493 1.952864,1.509286 2.0022187,1.4893 2.0455967,1.471735 2.0902267,1.457438 2.1342307,1.441507 2.3173668,1.395327 2.1781277,1.427912 2.3537146,1.393084 c 0.044063,-0.00874 0.087572,-0.020421 0.1319458,-0.027415 0.045326,-0.00714 0.091251,-0.00976 0.1368422,-0.014947 0.059976,-0.00682 0.1196147,-0.017281 0.1798582,-0.021073 0.057158,-0.0036 0.1145394,-7.117e-4 0.171809,-0.00107 0.1112592,0.011712 0.2234208,0.00982 0.3348077,0.019266 0.052734,0.00447 0.1049359,0.014054 0.1576208,0.019075 0.058021,0.00553 0.1164119,0.00668 0.1743977,0.012566 0.1032457,0.010474 0.2054604,0.028882 0.3077557,0.04575 0.1086165,0.00157 0.2150073,0.02681 0.3230499,0.033885 0.0644,0.00422 0.1290796,0.00184 0.193558,0.0046 0.2449007,0.010487 0.138084,0.01107 0.3796771,0.029681 0.071183,0.00548 0.1425181,0.00877 0.2137773,0.013149 0.2586849,0.042595 0.1192524,0.014861 0.3588191,0.071781 0.053477,0.012706 0.1073169,0.023923 0.1605415,0.037648 0.047818,0.012331 0.094362,0.029502 0.1425051,0.040499 0.054081,0.012353 0.1092449,0.019367 0.1637914,0.029466 0.054323,0.010057 0.1085419,0.020668 0.1628127,0.031001 0.053952,0.01 0.1073211,0.023933 0.1618554,0.03 0.070303,0.00782 0.1413618,0.00619 0.2118931,0.011576 0.068294,0.00521 0.1362536,0.014191 0.2044822,0.020197 0.072838,0.00641 0.1459942,0.00924 0.2186953,0.017058 0.131531,0.014137 0.2326299,0.034291 0.3615468,0.057288 0.1177285,0.00492 0.2332778,0.029688 0.3503515,0.040304 0.064111,0.00581 0.1285787,0.00676 0.1927902,0.011338 0.060424,0.00431 0.1207286,0.010147 0.1810848,0.015315 0.056689,0.00485 0.113202,0.012395 0.170049,0.014748 0.064144,0.00266 0.1283978,1.762e-4 0.1925966,2.643e-4 0.1743763,0.00889 0.3488161,-0.00309 0.5230632,-0.00949 0.051726,-0.0019 0.1035598,-0.00213 0.1551565,-0.00625 0.2261862,-0.026097 0.1149294,-0.015652 0.3337223,-0.031844 0.099069,8.837e-4 0.1976761,-0.00972 0.296585,-0.012613 0.044521,-0.0013 0.08908,-1.541e-4 0.1336191,-4.471e-4 0.1078627,-7.091e-4 0.132375,-0.00486 0.2345391,0.00565 0.027957,0.00287 0.05559,0.00832 0.083385,0.012485 0.08194,0.015027 0.04467,0.00481 0.112464,0.028115 0,0 3.110212,-2.21050326 3.110212,-2.21050326 v 0 c -0.130436,0.001953 -0.06221,0.001519 -0.204678,9.6044e-4 -0.29916,0.0171559 -0.598581,0.0299394 -0.896936,0.0584733 -0.05652,0.004366 -0.11299,0.009273 -0.169543,0.0130993 -0.05439,0.00368 -0.109036,0.003859 -0.163264,0.009417 -0.05698,0.00584 -0.11327,0.0171848 -0.170049,0.0247437 -0.175117,0.023313 -0.350825,0.0352943 -0.527087,0.0462617 -0.11687,4.2809e-4 -0.233743,0.003716 -0.350605,0.002298 -0.231736,-0.002812 -0.129729,-0.004945 -0.356173,-0.0237329 -0.06095,-0.005057 -0.122053,-0.007987 -0.183079,-0.0119799 -0.06133,-0.00519 -0.122663,-0.0103796 -0.183995,-0.0155695 -0.1368025,-0.003822 -0.2679152,-0.004728 -0.4042283,-0.0198197 -0.019598,-0.00217 -0.3509176,-0.0545778 -0.3748479,-0.0595531 -0.053119,-0.011044 -0.1043289,-0.0303047 -0.1575318,-0.0409343 -0.052863,-0.0105616 -0.1067639,-0.0150238 -0.1601457,-0.0225359 -0.053416,-0.009439 -0.1069856,-0.018047 -0.1602483,-0.0283167 -0.052906,-0.010201 -0.1050433,-0.024398 -0.1582187,-0.0330874 -0.057825,-0.009449 -0.1164162,-0.0134604 -0.1744845,-0.0212791 -0.061715,-0.00831 -0.123085,-0.0190844 -0.184838,-0.0271028 -0.4117059,-0.0534586 0.015992,0.0113146 -0.4004344,-0.054666 -0.062305,-0.0146971 -0.123975,-0.0324154 -0.1869167,-0.0440912 -0.061011,-0.0113176 -0.1230495,-0.0161544 -0.1844951,-0.0248063 -0.058463,-0.008232 -0.1169982,-0.0160708 -0.1752229,-0.025845 -0.052668,-0.008841 -0.1044623,-0.0228089 -0.1573821,-0.0299897 -0.1050795,-0.0142584 -0.2121686,-0.0102428 -0.3166184,-0.030951 -0.1227019,-0.009016 -0.2140818,-0.0142804 -0.3366072,-0.0292243 -0.055197,-0.006732 -0.1098134,-0.017912 -0.1650933,-0.0239257 -0.056978,-0.006198 -0.1144421,-0.006994 -0.1714723,-0.0126884 -0.4965014,-0.0495726 0.1657321,0.004872 -0.3378716,-0.0344535 -0.055005,-0.005806 -0.1100097,-0.011612 -0.1650148,-0.0174183 -0.048279,-0.008932 -0.096047,-0.0213077 -0.1448376,-0.026797 -0.023783,-0.002676 -0.2641569,-0.010002 -0.2884755,-0.007969 -0.1109242,0.009273 -0.2398448,0.0481071 -0.3455879,0.0754909 -0.1554054,0.0512424 -0.2977933,0.0905556 -0.4422632,0.17254035 C 3.4547243,0.0268862 2.4360321,0.61371524 1.4223906,1.2090962 1.350268,1.2514588 1.2863946,1.3066598 1.221229,1.3590975 1.0910727,1.4638323 0.89302105,1.6477895 0.77412762,1.7558986 0.65213335,1.8798761 0.43876925,2.099512 0.31337649,2.2150311 c -0.0784754,0.072296 -0.40782258,0.3549697 -0.50725775,0.4347336 -0.10421295,0.083597 -0.21452549,0.1594208 -0.31702156,0.2452259 0,0 3.63249322,-1.5405613 3.63249322,-1.5405613 z" />
  </g>
</svg>
