<?xml version="1.0" encoding="UTF-8" standalone="no"?>
<!-- Created with Inkscape (http://www.inkscape.org/) -->

<svg
   width="512"
   height="256"
   viewBox="0 0 135.46666 67.733333"
   version="1.1"
   id="svg5"
   inkscape:version="1.2 (56b05e47e7, 2022-06-09, custom)"
   sodipodi:docname="404.svg"
   xmlns:inkscape="http://www.inkscape.org/namespaces/inkscape"
   xmlns:sodipodi="http://sodipodi.sourceforge.net/DTD/sodipodi-0.dtd"
   xmlns="http://www.w3.org/2000/svg"
   xmlns:svg="http://www.w3.org/2000/svg">
  <sodipodi:namedview
     id="namedview7"
     pagecolor="#ffffff"
     bordercolor="#666666"
     borderopacity="1.0"
     inkscape:showpageshadow="2"
     inkscape:pageopacity="0.0"
     inkscape:pagecheckerboard="0"
     inkscape:deskcolor="#d1d1d1"
     inkscape:document-units="mm"
     showgrid="false"
     inkscape:zoom="1.8815145"
     inkscape:cx="273.71566"
     inkscape:cy="102.3112"
     inkscape:window-width="1846"
     inkscape:window-height="1016"
     inkscape:window-x="74"
     inkscape:window-y="27"
     inkscape:window-maximized="1"
     inkscape:current-layer="layer1" />
  <defs
     id="defs2" />
  <g
     inkscape:label="Layer 1"
     inkscape:groupmode="layer"
     id="layer1">
    <path
       style="fill:#000000;fill-opacity:1;stroke:#000000;stroke-width:0.264583;stroke-dasharray:none;stroke-opacity:0.996078"
       id="path878"
       d="m 3.3878189,18.728244 c 1.68637,-0.09938 3.366145,-0.283694 5.046833,-0.450189 1.7441501,-0.12429 3.4805011,-0.315735 5.2124441,-0.552943 0.235045,-0.01447 0.47013,-0.02831 0.705135,-0.04342 0.226904,-0.01459 0.453387,-0.03682 0.680589,-0.04568 0.593185,-0.02311 1.18673,0.01972 1.780193,0.0028 0.22107,-0.0827 0.487106,0.121871 0.706176,0.04993 0.20403,-0.06701 0.402407,-0.157544 0.58376,-0.272566 0.907577,-0.575624 1.785107,-1.197311 2.67766,-1.795967 0,0 0.375203,-0.266124 0.375203,-0.266124 v 0 c 0.792488,-0.610106 1.61077,-1.188095 2.377459,-1.830319 0.08737,-0.07319 0.205901,-0.19304 0.165063,-0.299448 -0.01744,-0.04541 -0.910633,0.06769 -1.015945,0.08462 -0.5251,0.05814 -1.041085,0.148285 -1.562306,0.234446 -1.879476,0.310686 0.448143,-0.07546 -1.513604,0.224442 -0.284097,0.04343 -0.566878,0.09507 -0.850318,0.142611 -1.798765,0.224953 -3.581541,0.565244 -5.388677,0.723737 -1.11183,0.06425 -0.724049,0.05532 -1.794631,0.06667 -0.572429,0.0061 -1.229335,0.06533 -1.7799242,-0.147878 -0.05869,-0.02273 -0.101517,-0.07442 -0.152276,-0.111622 0,0 -6.2528339,4.28687 -6.2528339,4.28687 z" />
    <path
       style="fill:#000000;fill-opacity:1;stroke:#000000;stroke-width:0.264583;stroke-dasharray:none;stroke-opacity:0.996078"
       id="path880"
       d="m 18.428606,17.763179 c 0.638294,0.709298 1.26205,1.399957 1.711323,2.254092 0.218241,0.414907 0.376256,0.858809 0.561811,1.289328 0.704604,1.63481 0.463798,1.056884 1.100119,2.725007 0.409519,1.376683 0.852858,2.742163 1.225648,4.129599 0.112096,0.417184 0.209002,0.838361 0.321728,1.255376 0.611229,2.26119 0.06707,0.0674 0.571481,2.158212 0.189418,0.765349 0.358235,1.371322 1.232196,1.520851 0.218686,0.03742 0.45533,0.06907 0.665589,-0.0019 0.616476,-0.207627 1.180888,-0.545997 1.77133,-0.818994 0,0 0.391914,-0.24084 0.391914,-0.24084 v 0 c 0.515334,-0.346252 1.065636,-0.645432 1.546002,-1.038762 0.178176,-0.145894 0.298342,-0.355473 0.405615,-0.559249 0.437808,-0.831671 0.266943,-1.329608 -0.14795,-2.119165 -1.086617,-2.064543 0.178379,0.373142 -0.960901,-1.944309 -0.805444,-1.638385 -1.681226,-3.245927 -2.590344,-4.82832 -0.656717,-1.398344 -0.611127,-1.230162 -1.157502,-2.678928 -0.166079,-0.440374 -0.354814,-0.874507 -0.476084,-1.329266 -0.265345,-0.99506 -0.277423,-2.006268 -0.22756,-3.024931 0,0 -5.944415,3.252046 -5.944415,3.252046 z" />
    <path
       style="fill:#000000;fill-opacity:1;stroke:#000000;stroke-width:0.264583;stroke-dasharray:none;stroke-opacity:0.996078"
       id="path2336"
       d="m 25.581582,36.166769 c 1.566188,-0.226563 3.15571,-0.282242 4.736431,-0.278043 1.779082,0.01696 3.532171,0.306898 5.275278,0.632497 0.570243,0.123928 1.148212,0.204732 1.722565,0.304739 0.02865,0.005 0.77393,0.162452 0.838769,0.142534 0.376248,-0.115581 0.712028,-0.335712 1.06804,-0.503568 1.650016,-0.91734 0.720268,-0.359958 2.750119,-1.735741 0,0 0.37075,-0.272299 0.37075,-0.272299 v 0 c 1.719371,-1.31495 1.042533,-0.703328 2.109626,-1.743334 0.132091,-0.181607 0.425059,-0.322112 0.396269,-0.544825 -0.01995,-0.154276 -0.311144,-0.0029 -0.466674,1.46e-4 -0.195615,0.0038 -0.39097,0.01752 -0.5866,0.02032 -0.709345,0.01021 -1.419463,-0.0084 -2.128867,0.0024 -0.572076,-0.007 -1.21979,-0.01085 -1.788903,-0.03553 -1.320461,-0.0573 -2.634049,-0.220811 -3.95229,-0.311425 -1.159526,-0.08216 -0.65468,-0.03843 -1.736807,-0.143865 -0.620218,-0.06043 -1.27961,-0.074 -1.839693,-0.380116 0,0 -6.768013,4.846137 -6.768013,4.846137 z" />
    <path
       style="fill:#000000;fill-opacity:1;stroke:#000000;stroke-width:0.264583;stroke-dasharray:none;stroke-opacity:0.996078"
       id="path3798"
       d="m 63.399819,20.762304 c -0.227499,-0.222827 -0.528042,-0.494454 -0.683286,-0.768006 -0.125066,-0.220374 -0.179938,-0.474176 -0.285816,-0.704382 -0.794409,-1.727255 0.01963,0.236815 -0.825942,-1.652203 -0.137454,-0.307075 -0.25323,-0.6234 -0.379844,-0.935101 -0.387038,-1.083472 -0.619728,-2.228761 -0.673351,-3.379649 -0.01908,-0.409557 0.01058,-0.74901 0.03471,-1.152801 0.0019,-0.06603 0.115472,-0.564313 -0.182721,-0.544212 -0.356767,0.02405 -1.556652,0.55091 -1.76838,0.653539 -0.718976,0.348502 -1.421026,0.730899 -2.131539,1.096349 0,0 -0.405473,0.217236 -0.405473,0.217236 v 0 c -1.178172,0.657044 -2.050143,1.07359 -3.080063,1.817764 -0.192029,0.138752 -0.827717,0.452616 -0.771628,0.874451 0.01482,0.111357 0.111054,0.19531 0.166582,0.292964 0.798039,1.233833 1.340358,2.615804 1.85125,3.987923 0.109868,0.326588 0.22497,0.651465 0.329607,0.979768 0.126323,0.396343 0.410964,1.410777 0.568645,1.825199 0.09084,0.238749 0.237519,0.455295 0.314256,0.698944 0.09355,0.297051 0.115922,0.767554 0.140595,1.090563 0,0 7.782398,-4.398346 7.782398,-4.398346 z" />
    <path
       style="fill:#000000;fill-opacity:1;stroke:#000000;stroke-width:0.264583;stroke-dasharray:none;stroke-opacity:0.996078"
       id="path3800"
       d="m 71.621558,17.308923 c -0.230917,-0.740971 -0.764476,-1.337939 -1.133091,-2.009035 -0.341008,-0.620836 -0.437925,-0.951763 -0.686014,-1.613205 -0.08765,-0.259778 -0.439746,-1.297973 -0.524587,-1.570119 -0.120206,-0.385578 -0.246028,-0.980326 -0.476591,-1.334646 -0.106921,-0.164311 -0.211627,-0.420823 -0.407639,-0.423915 -0.567176,-0.0089 -1.104087,0.260907 -1.65613,0.391361 -0.487743,0.141842 -0.97549,0.283685 -1.463233,0.425528 0,0 -0.401844,0.223876 -0.401844,0.223876 v 0 c -0.405548,0.353423 -0.811093,0.706847 -1.216641,1.060271 -0.444799,0.421836 -0.982851,0.763307 -1.334397,1.265509 -0.125942,0.179916 -0.04345,0.441292 -0.01259,0.658729 0.06465,0.455499 0.327966,0.921623 0.512905,1.328561 0.226343,0.498039 0.438952,1.002259 0.671116,1.497689 0.285033,0.672724 0.42646,0.944913 0.621236,1.653889 0.209037,0.760878 0.264022,1.58338 0.629769,2.294022 0,0 6.87773,-3.848515 6.877731,-3.848515 z" />
    <path
       style="fill:#000000;fill-opacity:1;stroke:#000000;stroke-width:0.264583;stroke-dasharray:none;stroke-opacity:0.996078"
       id="path5260"
       d="m 56.88755,30.602491 c 0.0919,0.0366 0.183952,0.07284 0.275712,0.109802 0.230344,0.09278 0.614794,0.255852 0.84133,0.322453 0.686276,0.201771 1.406599,0.267737 2.112931,0.358773 1.724517,0.04414 3.24359,-0.419143 4.735287,-1.274228 2.198712,-1.260367 4.37795,-2.554404 6.566924,-3.831609 1.65521,-1.13321 3.129939,-2.484607 4.553527,-3.889687 0.902621,-0.956532 1.821069,-1.908336 2.535436,-3.019451 0.125635,-0.195414 0.234651,-0.401022 0.351978,-0.601531 0.293983,-0.576542 0.532278,-1.173442 0.65641,-1.810166 0.07576,-0.388598 0.103904,-0.801497 0.164197,-1.192313 0.03063,-0.198529 0.07143,-0.395357 0.107136,-0.593035 0.0084,-0.162731 0.222686,-1.292625 0.05065,-1.349921 -0.230949,-0.07692 -0.490768,0.01191 -0.72675,0.07164 -0.647961,0.164016 -2.002451,0.692572 -2.652037,0.937234 0,0 -0.404376,0.219271 -0.404376,0.219271 v 0 c -0.388313,0.256275 -0.776298,0.513047 -1.164937,0.768826 -0.473675,0.311745 -1.68385,1.009898 -2.125514,1.568276 -0.238342,0.301327 -0.03481,0.975881 -0.117594,1.328091 -0.0036,0.171817 0.0047,0.344301 -0.01087,0.515453 -0.0564,0.621056 -0.275137,1.545677 -0.503753,2.129522 -0.06803,0.173742 -0.157305,0.3384 -0.235958,0.507598 -0.238712,0.420569 -0.344699,0.633976 -0.632156,1.029568 -0.572466,0.787807 -1.234834,1.512102 -1.889953,2.230078 -1.254199,1.317003 -2.603029,2.556687 -4.134437,3.547541 1.582766,-0.898023 3.167131,-1.79324 4.748302,-2.694072 0.298553,-0.170093 -0.593661,0.347027 -0.900419,0.501837 -0.565232,0.285253 -1.136698,0.519846 -1.74884,0.684128 -0.757762,0.203364 -0.834269,0.168789 -1.585799,0.20473 -0.23885,-0.01508 -0.480161,-0.0079 -0.716547,-0.04527 -0.363937,-0.05754 -0.654177,-0.19254 -0.981941,-0.342741 -0.267454,-0.122565 -0.544732,-0.240138 -0.733313,-0.475906 0,0 -6.434633,4.085111 -6.434633,4.085111 z" />
    <path
       style="fill:#000000;fill-opacity:1;stroke:#000000;stroke-width:0.264583;stroke-dasharray:none;stroke-opacity:0.996078"
       id="path5266"
       d="m 84.109918,35.259684 c 1.206757,-0.302257 2.432269,-0.468712 3.67421,-0.511222 1.198994,-0.01699 2.398044,-0.05929 3.589834,0.09333 0.64072,0.07385 1.23945,0.32058 1.86092,0.474039 0.20174,0.03224 0.44269,0.160779 0.65253,0.117485 0.52022,-0.107336 1.29713,-0.576741 1.64567,-0.785886 0.76119,-0.456761 1.50216,-0.946391 2.25324,-1.419588 0,0 0.37424,-0.26748 0.37424,-0.26748 v 0 c 0.65329,-0.480815 1.321,-0.942624 1.959868,-1.442445 0.27899,-0.218271 0.55068,-0.449432 0.79097,-0.7097 0.0726,-0.07862 0.14883,-0.185915 0.1337,-0.291843 -0.014,-0.09764 -0.61504,-0.189289 -0.69562,-0.194998 -0.803968,-0.07722 -1.614708,-0.08231 -2.418248,-0.170794 -1.35196,-0.04111 -2.70649,0.02704 -4.05515,0.120917 -0.67603,0.04962 -1.35681,0.109834 -2.03493,0.0505 -0.1411,-0.01236 -0.27964,-0.04545 -0.41986,-0.06553 -0.15828,-0.02267 -0.34427,-0.0425 -0.50622,-0.06058 0,0 -6.805154,5.063802 -6.805154,5.063802 z" />
    <path
       style="fill:#000000;fill-opacity:1;stroke:#000000;stroke-width:0.264583;stroke-dasharray:none;stroke-opacity:0.996078"
       id="path5268"
       d="m 109.21546,30.741098 c 0.33694,-1.421132 1.10392,-2.677485 1.72497,-3.982656 0.20116,-0.422759 0.3788,-0.856316 0.5682,-1.284473 0.5951,-1.362935 1.28519,-2.680303 1.95589,-4.00649 0.57567,-1.138293 1.15889,-2.260639 1.78957,-3.369556 0.0614,-0.09984 0.79541,-1.28707 0.90341,-1.486993 0.0797,-0.147488 0.2531,-0.295434 0.20933,-0.457252 -0.0322,-0.11905 -0.23605,-0.110476 -0.35812,-0.09292 -0.34029,0.04894 -0.66852,0.166834 -0.99066,0.286918 -0.65549,0.24435 -1.29212,0.536585 -1.93819,0.804877 0,0 -0.41524,0.19791 -0.41524,0.19791 v 0 c -0.66876,0.351955 -1.34617,0.68793 -2.00626,1.055866 -0.35423,0.197449 -1.34719,0.748211 -1.6748,1.182003 -0.16852,0.223139 -0.18555,1.262788 -0.28961,1.522561 -0.0742,0.279463 -0.13693,0.5622 -0.22248,0.838388 -0.28147,0.908627 -0.45824,1.265221 -0.81727,2.174412 -0.51124,1.294677 -0.99126,2.604791 -1.64342,3.838501 -0.19656,0.355954 -1.16698,2.126175 -1.41301,2.524278 -0.76577,1.239083 -1.68121,2.36982 -2.63855,3.463629 0,0 7.25624,-3.209005 7.25624,-3.209005 z" />
    <path
       style="fill:#000000;fill-opacity:1;stroke:#000000;stroke-width:0.264583;stroke-dasharray:none;stroke-opacity:0.996078"
       id="path5270"
       d="m 112.62845,16.85201 c 0.17116,-0.02836 0.34096,-0.06686 0.5135,-0.08507 0.43294,-0.0457 0.98585,-0.04296 1.4132,-0.04299 0.97017,-6.1e-5 1.9329,0.03627 2.90108,0.09594 0.28575,0.03954 1.55773,0.222879 1.85166,0.234468 0.34672,0.01367 0.71881,0.101512 1.0406,-0.02833 4.37684,-1.766106 2.06461,-2.033356 4.11163,-1.678257 0,0 0.37675,-0.263928 0.37675,-0.263928 v 0 c -1.74794,-0.305291 -0.005,0.183998 1.27392,-2.135413 0.11484,-0.208294 -0.43846,-0.192445 -0.67083,-0.243177 -0.36445,-0.07957 -1.6055,-0.155927 -1.95031,-0.181059 -0.84629,-0.113136 -1.68775,-0.239456 -2.5294,-0.382925 -0.24706,-0.04211 -0.82766,-0.131448 -1.09641,-0.213883 -0.0917,-0.02814 -0.17485,-0.07905 -0.26228,-0.118572 0,0 -6.97311,5.043201 -6.97311,5.043201 z" />
    <path
       style="fill:#000000;fill-opacity:1;stroke:#000000;stroke-width:0.264583;stroke-dasharray:none;stroke-opacity:0.996078"
       id="path5430"
       d="m 51.087363,39.367232 c -2.448394,1.037698 -0.09126,0.04911 6.06721,-3.546126 0.09013,-0.05262 -0.183758,0.101256 -0.282577,0.134816 -0.590693,0.200594 -1.116923,0.05529 -1.708346,-0.06998 -0.279297,-0.11956 -0.570047,-0.215284 -0.837888,-0.358675 -0.99759,-0.534064 -1.755828,-1.327512 -2.503067,-2.159275 -0.291118,-0.324046 -0.591383,-0.641278 -0.857488,-0.986163 -0.277159,-0.359211 -0.51308,-0.748429 -0.76962,-1.122643 -0.716624,-1.218779 -1.380651,-2.477717 -1.815912,-3.828438 -0.413377,-1.282817 -0.597117,-2.614512 -0.781865,-3.943469 -0.168365,-1.151242 -0.344048,-2.29598 -0.358613,-3.461729 -0.0046,-0.364887 0.01664,-0.72966 0.02027,-1.094555 0.0036,-0.358553 -0.0141,-0.717468 0.0013,-1.075709 0.01561,-0.362659 0.06108,-0.723418 0.09162,-1.085128 0.107465,-1.32374 0.418115,-2.613489 0.669247,-3.913139 0.572998,-2.9653495 -0.263639,1.171814 0.343223,-1.80012 0.06887,-0.297727 0.140584,-0.594811 0.206608,-0.893183 0.205793,-0.9300075 0.170833,-0.9582655 0.470149,-1.8861905 0.314986,-0.976501 0.745299,-1.901091 1.173001,-2.831324 0.501655,-0.99689 0.385524,-0.802678 0.950431,-1.776627 0.164443,-0.283519 0.350469,-0.554842 0.502025,-0.845454 0.116552,-0.223486 0.361606,-0.449209 0.300705,-0.693793 -0.04698,-0.188681 -0.338339,-0.231105 -0.532668,-0.237775 -0.417528,-0.01433 -0.827185,0.117933 -1.240779,0.176899 0,0 -0.422923,0.180929 -0.422923,0.180929 v 0 c -1.245579,0.757157 -2.541294,1.439137 -3.61918,2.440809 -0.27854,0.258844 -0.490508,0.58273 -0.705877,0.896099 -0.578175,0.841261 -0.961527,1.805066 -1.440672,2.700743 -0.13368,0.308201 -0.276241,0.612698 -0.401037,0.924602 -0.204327,0.510686 -0.522388,1.4456005 -0.696706,1.9616205 -0.06297,0.18642 -0.614153,1.840889 -0.669075,2.036903 -0.08398,0.299735 -0.140158,0.606575 -0.210236,0.909862 -0.04789,0.219778 -0.360357,1.641977 -0.397102,1.858088 -0.214204,1.259732 -0.238681,2.549279 -0.302792,3.82187 -0.006,0.358476 -0.01027,0.716983 -0.01807,1.075425 -0.0082,0.37756 -0.04386,0.755158 -0.02998,1.132554 0.0131,0.35609 0.06745,0.709549 0.11075,1.063242 0.141343,1.154596 0.294753,2.313667 0.573942,3.444213 0.124788,0.392459 0.242194,0.787342 0.374369,1.177375 0.333026,0.982723 0.580168,1.590968 0.955789,2.566633 0.297394,0.772467 0.750221,1.990677 1.099582,2.741464 0.19834,0.426236 0.43198,0.835141 0.647967,1.252712 0.22247,0.400098 1.090065,1.983245 1.359157,2.378813 0.227195,0.333984 0.492045,0.64112 0.752993,0.949452 0.658821,0.778455 1.375723,1.515848 2.138567,2.19224 0.409236,0.325244 0.598445,0.532289 1.079936,0.718267 0.09562,0.03693 0.635299,0.153868 0.769139,0.08139 6.456563,-3.496578 5.011255,-1.933853 6.841968,-3.939474 0,0 -6.897499,2.731955 -6.897499,2.731955 z" />
    <path
       style="fill:#000000;fill-opacity:1;stroke:#000000;stroke-width:0.264583;stroke-dasharray:none;stroke-opacity:0.996078"
       id="path5436"
       d="m 81.816655,35.863141 c 0.406607,-0.402543 0.694413,-0.904404 1.013098,-1.374643 0.818967,-1.208434 0.0611,-0.04879 0.913114,-1.371933 1.073891,-2.150356 2.450237,-4.127066 3.702198,-6.173425 0.902523,-1.566971 0.4474,-0.76961 1.33654,-2.341991 0.225825,-0.399355 0.474639,-0.786551 0.677521,-1.198034 0.571455,-1.159015 0.916276,-2.397217 1.249657,-3.638505 0.241257,-1.173919 0.30371,-1.24171 0.35838,-2.432375 0.01916,-0.417253 -0.0026,-0.835461 0.0061,-1.253064 0.0089,-0.42975 0.03836,-0.858919 0.04681,-1.288679 0.02252,-1.145065 0.0013,-1.281675 -0.04245,-2.406551 -0.537072,-4.1810245 0.252056,1.837641 -0.343479,-2.303566 -0.05482,-0.3812225 -0.07574,-0.7669625 -0.134996,-1.1475205 -0.01381,-0.08874 -0.378314,-1.914953 -0.409646,-2.039831 -0.07646,-0.304736 -0.181258,-0.60165 -0.271889,-0.902475 -0.417666,-1.315391 -0.879639,-2.617417 -1.359289,-3.911297 -0.06553,-0.132804 -0.137453,-0.262637 -0.19658,-0.398412 -0.05286,-0.121384 -0.08052,-0.253282 -0.138946,-0.372085 -0.20178,-0.41019401 -0.516592,-0.74290651 -0.842908,-1.05374511 -0.150283,-0.0610349 -0.505708,-0.4125076 -0.661897,-0.4246628 -0.448532,-0.034906 -1.226619,0.4827582 -1.424104,0.5996683 -0.813869,0.4818066 -1.604965,1.00108161 -2.407449,1.50162161 0,0 -0.377468,0.262903 -0.377468,0.262903 v 0 c -0.745085,0.512148 -1.501658,1.00797 -2.235255,1.536444 -0.279083,0.201049 -0.555469,0.409674 -0.800836,0.65072 -0.05768,0.05666 -0.109802,0.146473 -0.0906,0.225017 0.01326,0.05427 0.529087,0.254499 0.575678,0.336264 0.561977,0.32444 1.108194,0.704003 1.49334,1.234088 0.18997,0.231033 0.486653,0.585476 0.65701,0.821306 0.56863,0.787171 1.038527,1.642634 1.470258,2.510404 0.248028,0.5558075 0.522457,1.1002745 0.749898,1.6648205 0.02611,0.06481 0.681202,1.914015 0.691171,1.950711 0.156586,0.576252 0.298281,1.627339 0.387149,2.214341 0.165362,1.118238 0.365755,2.28614 0.368147,3.418909 0.0024,1.179899 -0.204672,2.35494 -0.308523,3.526663 -0.07509,0.372628 -0.135872,0.748429 -0.225261,1.117888 -0.219985,0.909206 -0.393652,1.367531 -0.722696,2.244373 -0.131916,0.351528 -0.252942,0.707993 -0.408599,1.049671 -0.367578,0.806863 -0.81435,1.51806 -1.263401,2.281113 -1.367716,2.24857 -2.79296,4.467516 -4.489712,6.486724 -0.271346,0.371398 -0.728639,1.014706 -1.038233,1.375513 -0.466968,0.544216 -1.003189,1.031443 -1.583404,1.451737 0,0 6.081561,-2.428105 6.081561,-2.428105 z" />
    <path
       style="fill:#000000;fill-opacity:1;stroke:#000000;stroke-width:0.264583;stroke-dasharray:none;stroke-opacity:0.996078"
       id="path5517"
       d="m 33.637706,50.827442 c -0.0041,0.113678 0.0043,0.228489 -0.01225,0.34104 -0.115933,0.790847 -0.454091,1.553943 -0.789244,2.269604 -0.424358,0.906147 -0.678141,1.337066 -1.162085,2.223111 -0.546309,0.997114 -1.245224,1.893853 -1.940583,2.788309 -0.320773,0.412617 -0.663216,0.808016 -0.945673,1.248005 -0.198617,0.445899 -0.0274,0.75202 0.521913,0.905348 0.19495,0.05442 0.40295,-0.03897 0.604025,-0.06212 0.261729,-0.03013 0.52247,-0.06858 0.784313,-0.0977 0.32476,-0.03613 0.65025,-0.06538 0.975373,-0.09807 1.252635,-0.137607 2.511364,-0.201761 3.76832,-0.28371 0.397034,-0.02588 0.79511,-0.04029 1.190853,-0.08146 1.016756,-0.105783 1.316331,-0.191643 2.3007,-0.39352 0.334981,-0.09904 0.676026,-0.179512 1.004948,-0.297127 0.316378,-0.113131 0.634463,-0.230137 0.927804,-0.393978 2.6318,-1.469943 4.8763,-2.36769 6.932559,-4.212172 0.546944,-0.490611 0.877406,-0.864865 1.378361,-1.398122 0.816644,-0.838451 1.36421,-1.874393 2.01668,-2.833094 0.299678,-0.440333 0.549024,-0.764765 0.864661,-1.186786 0.0886,-0.150218 0.199242,-0.289454 0.265795,-0.450657 0.05009,-0.121312 0.200602,-0.43619 0.07948,-0.385633 -2.644384,1.103765 -5.269828,2.268101 -7.802182,3.609086 -0.138543,0.07336 0.112329,0.295076 0.137134,0.449871 0.03406,0.212542 0.02498,0.429781 0.03826,0.644628 0.0214,0.346469 0.04383,0.692872 0.06574,1.03931 -0.142632,1.673955 -0.571619,3.30024 -1.067851,4.899165 -0.40886,1.317419 -0.745008,1.806924 -0.763635,3.140813 -0.0048,0.341191 0.09916,0.675206 0.148736,1.012809 -0.04084,0.493234 -0.32104,1.101612 0.357118,1.336421 0.264181,0.09147 0.559134,0.0029 0.838698,0.0043 0,0 0.404963,-0.218189 0.404963,-0.218189 v 0 c 0.221242,-0.248171 0.467482,-0.476138 0.663726,-0.744513 0.554122,-0.757796 0.538184,-0.957588 0.827048,-1.850496 0.675907,-1.197782 1.076523,-1.789745 1.541621,-3.107063 0.194593,-0.551151 0.294396,-1.131594 0.462695,-1.691333 0.555509,-1.847546 1.234776,-3.6596 2.117201,-5.377746 0.199242,-0.320564 1.120646,-1.889662 1.53714,-2.310411 0.15613,-0.15772 0.767842,-0.442055 0.564702,-0.352684 -2.533422,1.114605 -5.035724,2.29875 -7.561347,3.430926 -0.04342,0.01947 0.06751,-0.111778 0.110202,-0.09076 0.05625,0.0277 0.04293,0.117822 0.06439,0.176734 -0.0067,0.113779 0.0013,0.229402 -0.02019,0.341339 -0.210482,1.097061 -1.106493,2.114394 -1.768555,2.971874 -0.52995,0.570318 -0.66176,0.750631 -1.2838,1.254054 -0.256062,0.207232 -1.088152,0.738219 -0.796687,0.584726 1.499669,-0.78976 2.958883,-1.654199 4.429045,-2.497611 0.318969,-0.182986 -0.641016,0.362265 -0.975026,0.516091 -0.35442,0.163224 -0.724866,0.289129 -1.0873,0.433692 -0.384601,0.107516 -0.764429,0.23386 -1.153801,0.322551 -1.776851,0.404725 -3.641135,0.469577 -5.433176,0.13907 -0.427365,-0.0902 -0.70349,-0.132329 -1.102643,-0.267412 -0.0701,-0.02373 -0.194265,-0.165319 -0.202192,-0.09173 -0.01302,0.120843 0.132001,0.205761 0.177782,0.318354 0.01942,0.04773 -0.03086,0.129019 0.01423,0.153914 0.03733,0.02061 0.03953,-0.07556 0.05929,-0.113332 0.137988,-0.305792 0.19518,-0.623017 0.286083,-0.946719 0.228277,-0.812892 0.491299,-1.609794 0.928791,-2.340618 0.659037,-1.167431 1.318445,-2.333162 2.118839,-3.412355 0.367585,-0.495622 0.980506,-1.252664 1.472676,-1.671418 0.159289,-0.135527 0.353131,-0.224186 0.529695,-0.33628 0,0 -7.643386,3.039647 -7.643386,3.039647 z" />
    <path
       style="fill:#000000;fill-opacity:1;stroke:#000000;stroke-width:0.264583;stroke-dasharray:none;stroke-opacity:0.996078"
       id="path5517-3"
       d="m 81.736416,49.821109 c -0.0041,0.113678 0.0043,0.228489 -0.01225,0.34104 -0.115933,0.790847 -0.454091,1.553943 -0.789244,2.269604 -0.424358,0.906147 -0.678141,1.337066 -1.162085,2.223111 -0.546309,0.997114 -1.245224,1.893853 -1.940583,2.788309 -0.320773,0.412617 -0.663216,0.808016 -0.945673,1.248005 -0.198617,0.445899 -0.0274,0.75202 0.521913,0.905348 0.19495,0.05442 0.40295,-0.03897 0.604025,-0.06212 0.261729,-0.03013 0.52247,-0.06858 0.784313,-0.0977 0.32476,-0.03613 0.65025,-0.06538 0.975373,-0.09807 1.252635,-0.137607 2.511364,-0.201761 3.76832,-0.28371 0.397034,-0.02588 0.79511,-0.04029 1.190853,-0.08146 1.016756,-0.105783 1.316331,-0.191643 2.3007,-0.39352 0.334981,-0.09904 0.676026,-0.179512 1.004948,-0.297127 0.316378,-0.113131 0.634463,-0.230137 0.927804,-0.393978 2.6318,-1.469943 4.8763,-2.36769 6.932559,-4.212172 0.546944,-0.490611 0.877406,-0.864865 1.378361,-1.398122 0.816644,-0.838451 1.36421,-1.874393 2.01668,-2.833094 0.299678,-0.440333 0.549024,-0.764765 0.86466,-1.186786 0.0886,-0.150218 0.19924,-0.289454 0.2658,-0.450657 0.0501,-0.121312 0.2006,-0.43619 0.0795,-0.385633 -2.644388,1.103765 -5.269832,2.268101 -7.802186,3.609086 -0.138543,0.07336 0.112329,0.295076 0.137134,0.449871 0.03406,0.212542 0.02498,0.429781 0.03826,0.644628 0.0214,0.346469 0.04383,0.692872 0.06574,1.03931 -0.142632,1.673955 -0.571619,3.30024 -1.067851,4.899165 -0.40886,1.317419 -0.745008,1.806924 -0.763635,3.140813 -0.0048,0.341191 0.09916,0.675206 0.148736,1.012809 -0.04084,0.493234 -0.32104,1.101612 0.357118,1.336421 0.264181,0.09147 0.559134,0.0029 0.838698,0.0043 0,0 0.404963,-0.218189 0.404963,-0.218189 v 0 c 0.221242,-0.248171 0.467482,-0.476138 0.663726,-0.744513 0.554122,-0.757796 0.538184,-0.957588 0.827048,-1.850496 0.675907,-1.197782 1.076523,-1.789745 1.541621,-3.107063 0.194593,-0.551151 0.294396,-1.131594 0.462695,-1.691333 0.555509,-1.847546 1.234776,-3.6596 2.117201,-5.377746 0.199242,-0.320564 1.120646,-1.889662 1.537142,-2.310411 0.15613,-0.15772 0.76784,-0.442055 0.5647,-0.352684 -2.533422,1.114605 -5.035724,2.29875 -7.561347,3.430926 -0.04342,0.01947 0.06751,-0.111778 0.110202,-0.09076 0.05625,0.0277 0.04293,0.117822 0.06439,0.176734 -0.0067,0.113779 0.0013,0.229402 -0.02019,0.341339 -0.210482,1.097061 -1.106493,2.114394 -1.768555,2.971874 -0.52995,0.570318 -0.66176,0.750631 -1.2838,1.254054 -0.256062,0.207232 -1.088152,0.738219 -0.796687,0.584726 1.499669,-0.78976 2.958883,-1.654199 4.429045,-2.497611 0.318969,-0.182986 -0.641016,0.362265 -0.975026,0.516091 -0.35442,0.163224 -0.724866,0.289129 -1.0873,0.433692 -0.384601,0.107516 -0.764429,0.23386 -1.153801,0.322551 -1.776851,0.404725 -3.641135,0.469577 -5.433176,0.13907 -0.427365,-0.0902 -0.70349,-0.132329 -1.102643,-0.267412 -0.0701,-0.02373 -0.194265,-0.165319 -0.202192,-0.09173 -0.01302,0.120843 0.132001,0.205761 0.177782,0.318354 0.01942,0.04773 -0.03086,0.129019 0.01423,0.153914 0.03733,0.02061 0.03953,-0.07556 0.05929,-0.113332 0.137988,-0.305792 0.19518,-0.623017 0.286083,-0.946719 0.228277,-0.812892 0.491299,-1.609794 0.928791,-2.340618 0.659037,-1.167431 1.318445,-2.333162 2.118839,-3.412355 0.367585,-0.495622 0.980506,-1.252664 1.472676,-1.671418 0.159289,-0.135527 0.353131,-0.224186 0.529695,-0.33628 0,0 -7.643386,3.039647 -7.643386,3.039647 z" />
    <path
       style="fill:#000000;fill-opacity:1;stroke:#000000;stroke-width:0.264583;stroke-dasharray:none;stroke-opacity:0.996078"
       id="path5519"
       d="m 64.493261,60.984008 c -1.045914,0.211298 -2.123694,0.201943 -3.147269,-0.133049 -0.400953,-0.131223 -0.804085,-0.275979 -1.16521,-0.494085 -0.371879,-0.224603 -0.674817,-0.547339 -1.012227,-0.821005 -0.261096,-0.359775 -0.571261,-0.688618 -0.783291,-1.079325 -0.397295,-0.732097 -0.742592,-1.942759 -0.736182,-2.771805 0.0085,-1.097108 0.405506,-2.353132 0.929445,-3.301735 0.299709,-0.542634 0.716526,-1.011782 1.07479,-1.517674 0.140025,0.63948 2.649749,-3.413035 3.118728,-2.225204 0.249505,0.631952 -1.445844,0.615686 -1.585801,1.280536 -0.09203,0.43716 0.890278,-0.11421 1.336699,-0.0972 1.107771,0.04221 1.41188,0.268087 2.427271,0.676545 0.371264,0.253357 0.770634,0.469779 1.11379,0.760069 1.00634,0.851302 1.976753,2.239071 2.304415,3.527369 0.235718,0.926785 0.172472,2.076723 0.168895,3.018187 -0.259565,1.393592 -0.166378,1.478174 -0.829056,2.737876 -0.189397,0.360035 -0.388319,0.724713 -0.663541,1.024295 -0.265311,0.28879 -1.277443,0.904841 -0.934307,0.714973 5.959168,-3.297407 4.307625,-2.498254 1.582147,-1.406255 -3.416959,1.045086 -1.710494,0.638884 -5.114396,1.239393 0,0 -0.373247,0.268859 -0.373247,0.268859 v 0 c 1.466749,0.769326 0.732083,0.437893 2.198158,1.007144 3.542461,0.110525 1.466911,0.243523 7.683746,-3.539659 0.777425,-0.473094 1.319826,-1.251249 1.495295,-2.136299 0.13311,-0.671396 -0.08378,-1.834441 -0.169016,-2.470507 -0.120623,-0.463256 -0.201231,-0.938824 -0.361873,-1.389769 -0.128706,-0.361288 -1.095854,-2.373572 -1.280924,-2.706698 -0.488876,-0.87997 -1.021991,-1.703713 -1.767679,-2.393659 -0.355359,-0.328795 -0.77811,-0.576273 -1.167167,-0.864412 -0.457806,-0.171326 -0.893993,-0.418632 -1.373418,-0.513974 -0.510323,-0.101489 -1.039939,-0.0989 -1.559412,-0.06928 -2.61171,0.148889 -3.654173,1.134705 -6.390295,2.589461 -0.462799,0.246062 -0.910678,0.529341 -1.312741,0.865603 -0.456668,0.381934 -0.832567,0.85118 -1.248849,1.27677 -0.374283,0.533686 -0.791954,1.03944 -1.122847,1.601063 -0.696939,1.182915 -1.179076,2.35503 -1.424728,3.709416 -0.108456,0.597947 -0.201608,1.212953 -0.141121,1.81764 0.10179,1.0176 0.692795,1.810718 1.190302,2.64896 0.490231,0.585767 1.084755,1.355527 1.683136,1.853978 0.29373,0.244679 1.028047,0.648372 1.391915,0.853133 0.137782,0.07754 0.270412,0.165457 0.414467,0.230603 0.09638,0.04359 0.202086,0.06262 0.303128,0.09392 0,0 5.24827,-3.864197 5.24827,-3.864197 z" />
  </g>
</svg>
