<?xml version="1.0" encoding="UTF-8" standalone="no"?>
<!-- Created with Inkscape (http://www.inkscape.org/) -->

<svg
   width="468"
   height="60"
   viewBox="0 0 123.825 15.875"
   version="1.1"
   id="svg5"
   inkscape:version="1.2 (56b05e47e7, 2022-06-09, custom)"
   sodipodi:docname="banner.svg"
   inkscape:export-filename="../f043e24c/banner.png"
   inkscape:export-xdpi="192"
   inkscape:export-ydpi="192"
   xmlns:inkscape="http://www.inkscape.org/namespaces/inkscape"
   xmlns:sodipodi="http://sodipodi.sourceforge.net/DTD/sodipodi-0.dtd"
   xmlns="http://www.w3.org/2000/svg"
   xmlns:svg="http://www.w3.org/2000/svg">
  <sodipodi:namedview
     id="namedview7"
     pagecolor="#ffffff"
     bordercolor="#666666"
     borderopacity="1.0"
     inkscape:showpageshadow="2"
     inkscape:pageopacity="0.0"
     inkscape:pagecheckerboard="0"
     inkscape:deskcolor="#d1d1d1"
     inkscape:document-units="mm"
     showgrid="false"
     inkscape:zoom="2.1417558"
     inkscape:cx="283.87924"
     inkscape:cy="147.77595"
     inkscape:window-width="1846"
     inkscape:window-height="1016"
     inkscape:window-x="74"
     inkscape:window-y="27"
     inkscape:window-maximized="1"
     inkscape:current-layer="layer1" />
  <defs
     id="defs2">
    <inkscape:perspective
       sodipodi:type="inkscape:persp3d"
       inkscape:vp_x="0 : 7.9375 : 1"
       inkscape:vp_y="0 : 1000 : 0"
       inkscape:vp_z="80.22827 : 10.742964 : 1"
       inkscape:persp3d-origin="61.912502 : 5.2916667 : 1"
       id="perspective3347" />
  </defs>
  <g
     inkscape:label="Layer 1"
     inkscape:groupmode="layer"
     id="layer1">
    <rect
       style="fill:#55ddff;stroke:#2ad4ff;stroke-width:0.264999;stroke-opacity:1"
       id="rect1515"
       width="123.86722"
       height="16.09296"
       x="0.15167131"
       y="-0.25103369" />
    <ellipse
       style="fill:#d5f6ff;stroke:#d5f6ff;stroke-width:0.264999;stroke-opacity:1"
       id="path2504"
       cx="17.17589"
       cy="7.5576124"
       rx="11.064302"
       ry="5.2308526" />
    <ellipse
       style="fill:#d5f6ff;stroke:#d5f6ff;stroke-width:0.264999;stroke-opacity:1"
       id="path2957"
       cx="29.136002"
       cy="9.3454103"
       rx="9.3287659"
       ry="4.6864157" />
    <ellipse
       style="fill:#d5f6ff;stroke:#d5f6ff;stroke-width:0.264999;stroke-opacity:1"
       id="path2959"
       cx="33.670654"
       cy="6.417727"
       rx="14.892567"
       ry="3.058527" />
    <ellipse
       style="fill:#d5f6ff;stroke:#d5f6ff;stroke-width:0.264999;stroke-opacity:1"
       id="path2961"
       cx="33.952934"
       cy="3.3779352"
       rx="8.7993555"
       ry="3.5160158" />
    <ellipse
       style="fill:#d5f6ff;stroke:#d5f6ff;stroke-width:0.264999;stroke-opacity:1"
       id="path2963"
       cx="43.275356"
       cy="9.7340469"
       rx="6.3365812"
       ry="3.6327145" />
    <ellipse
       style="fill:#d5f6ff;stroke:#d5f6ff;stroke-width:0.264999;stroke-opacity:1"
       id="path2965"
       cx="67.814987"
       cy="3.8452432"
       rx="4.8843241"
       ry="2.2835276" />
    <ellipse
       style="fill:#d5f6ff;stroke:#d5f6ff;stroke-width:0.264999;stroke-opacity:1"
       id="path2967"
       cx="72.90667"
       cy="4.7348504"
       rx="3.6161983"
       ry="2.8416042" />
    <ellipse
       style="fill:#d5f6ff;stroke:#d5f6ff;stroke-width:0.264999;stroke-opacity:1"
       id="path2969"
       cx="72.120918"
       cy="8.3714037"
       rx="9.8098583"
       ry="3.6701696" />
    <ellipse
       style="fill:#d5f6ff;stroke:#d5f6ff;stroke-width:0.264999;stroke-opacity:1"
       id="path2971"
       cx="83.047668"
       cy="5.9487019"
       rx="7.4729452"
       ry="5.2611423" />
    <ellipse
       style="fill:#d5f6ff;stroke:#d5f6ff;stroke-width:0.264999;stroke-opacity:1"
       id="path2973"
       cx="90.695419"
       cy="8.5445805"
       rx="5.7128592"
       ry="4.6850128" />
    <ellipse
       style="fill:#d5f6ff;stroke:#d5f6ff;stroke-width:0.264999;stroke-opacity:1"
       id="path2975"
       cx="96.040306"
       cy="4.5245066"
       rx="7.0309834"
       ry="2.4274609" />
    <ellipse
       style="fill:#d5f6ff;stroke:#d5f6ff;stroke-width:0.264999;stroke-opacity:1"
       id="path2977"
       cx="100.3836"
       cy="9.8439283"
       rx="5.5788131"
       ry="3.5721378" />
    <path
       sodipodi:type="spiral"
       style="fill:#55ddff;fill-rule:evenodd;stroke:#000000;stroke-width:0.264583"
       id="path3450"
       sodipodi:cx="13.713818"
       sodipodi:cy="6.7650695"
       sodipodi:expansion="1"
       sodipodi:revolution="3"
       sodipodi:radius="3.329736"
       sodipodi:argument="-18.3137"
       sodipodi:t0="0"
       d="m 13.713818,6.7650695 c 0.143547,0.08524 -0.04408,0.2355526 -0.141674,0.2385844 -0.264473,0.00822 -0.386421,-0.3021433 -0.335495,-0.5219324 0.09109,-0.3931512 0.54717,-0.5527216 0.902191,-0.4324052 0.521007,0.176569 0.722845,0.7951212 0.529315,1.2824492 -0.257945,0.6495316 -1.044058,0.8945322 -1.662707,0.626226 -0.778508,-0.3376359 -1.067014,-1.2934522 -0.723137,-2.042966 0.416482,-0.9077616 1.543101,-1.2399533 2.423225,-0.8200468 1.037194,0.4948452 1.413179,1.7929085 0.916957,2.8034828 -0.572909,1.166748 -2.042822,1.5865977 -3.183741,1.0138676 -1.296386,-0.6507723 -1.76015,-2.2928094 -1.110778,-3.5639996 0.728496,-1.4260833 2.542851,-1.9337992 3.944258,-1.2076885 1.555826,0.8061206 2.107521,2.7929346 1.304598,4.3245165" />
    <path
       sodipodi:type="star"
       style="fill:#ffff00;stroke:#55ddff;stroke-width:0.264999;stroke-opacity:1"
       id="path3981"
       inkscape:flatsided="false"
       sodipodi:sides="5"
       sodipodi:cx="86.633217"
       sodipodi:cy="4.880837"
       sodipodi:r1="3.9347985"
       sodipodi:r2="1.9443927"
       sodipodi:arg1="-0.10051603"
       sodipodi:arg2="0.5278025"
       inkscape:rounded="0"
       inkscape:randomized="0"
       d="M 90.548155,4.4859923 88.313009,5.8601033 88.218519,8.4821502 86.220963,6.7810238 83.69805,7.5014156 84.698638,5.0759507 83.233882,2.8991304 85.849835,3.101237 87.46748,1.0354963 88.083639,3.58587 Z"
       inkscape:transform-center-x="0.25429488"
       inkscape:transform-center-y="0.12108858" />
    <path
       sodipodi:type="star"
       style="fill:#ffff00;stroke:#55ddff;stroke-width:0.264999;stroke-opacity:1"
       id="path3987"
       inkscape:flatsided="false"
       sodipodi:sides="43"
       sodipodi:cx="124.45485"
       sodipodi:cy="0.79523474"
       sodipodi:r1="13.655288"
       sodipodi:r2="6.7478027"
       sodipodi:arg1="-1.0799405"
       sodipodi:arg2="-1.0068802"
       inkscape:rounded="0"
       inkscape:randomized="0"
       d="m 130.89169,-11.24777 -2.83014,6.3399749 4.51502,-5.2744249 -3.72309,5.8603399 5.23487,-4.5608256 -4.53668,5.255803 5.84314,-3.7500196 -5.25359,4.5392472 6.32688,-2.8592885 -5.85852,3.7259452 6.67577,-1.9076166 -6.33859,2.8332312 6.88238,-0.9152872 -6.68356,1.88013188 6.9423,0.09654991 -6.88609,0.88696076 6.85427,1.10632925 -6.94185,-0.1251144 6.62014,2.0925292 -6.84966,-1.134523 6.24492,3.0341304 -6.61147,-2.1197511 5.73659,3.9110644 -6.23238,-3.0598005 5.10601,4.7046409 -5.72046,-3.9346355 4.3666,5.3979458 -5.08661,-4.7256103 3.53411,5.9762033 -4.34434,-5.4158674 2.62631,6.4270884 -3.5095,-5.9906945 1.66253,6.7409915 -2.59984,-6.4378408 0.66332,6.9112218 -1.63478,-6.7477753 -0.35003,6.9341513 -0.63488,-6.9138926 -1.35592,6.8092916 0.37856,-6.9326525 -2.33291,6.5393035 1.38393,-6.8036548 -3.26019,6.1299408 2.3598,-6.5296482 -4.11796,5.5899302 3.28538,-6.1164748 -4.88799,4.9307798 4.14093,-5.5729391 -5.55382,4.1665377 4.90823,-4.9106252 -6.10129,3.3134936 5.57092,-4.1436504 -6.51872,2.389828 6.11488,-3.2883607 -6.79722,1.4152274 6.5285,-2.3629854 -6.93084,0.4104637 6.80298,-1.3872471 -6.91674,-0.60304834 6.93247,-0.38194209 -6.75523,-1.60370747 6.9142,0.63150338 -6.44974,-2.57018628 6.74858,1.6314894 -6.00679,-3.4818861 6.43911,2.5967031 -5.4358,-4.3193756 5.9924,3.5065726 -4.74897,-5.064805 5.41799,4.3417055 -3.96093,-5.7022869 4.7281,5.0843026 -3.08846,-6.2182343 3.93743,5.7185363 -2.15016,-6.6016513 3.06284,6.23089 -1.16603,-6.844365 2.12297,6.6104423 -0.15706,-6.9412033 1.13786,6.849105 0.85526,-6.890102 0.1285,6.941791 1.84935,-6.69215 -0.8836,6.8865246 2.80403,-6.3515666 -1.87687,6.6844841 z"
       inkscape:transform-center-x="-0.57822708"
       inkscape:transform-center-y="0.74173543" />
    <path
       style="fill:#ffff00;stroke:#55ddff;stroke-width:0.467642;stroke-opacity:1"
       d="M 211.97561,34.645321 V 15.029564 l 2.68472,0.203361 c 1.47659,0.111848 13.61032,0.719703 26.96385,1.350788 13.35353,0.631085 26.22265,1.280013 28.59804,1.442061 l 4.31888,0.294633 v 5.949977 5.949977 l -30.46566,11.713807 c -16.75611,6.442593 -30.83334,11.851754 -31.28274,12.020358 -0.77008,0.288914 -0.81709,-0.822022 -0.81709,-19.309205 z"
       id="path4465"
       transform="scale(0.26458333)" />
    <path
       style="fill:#c8ab37;stroke:#55ddff;stroke-width:0.467642;stroke-opacity:1"
       d="m 199.83604,52.987764 c -4.75077,-0.585879 -8.6903,-1.08681 -8.7545,-1.113181 -0.0642,-0.02637 -0.11673,-7.93359 -0.11673,-17.571599 0,-13.607112 0.13045,-17.565785 0.58364,-17.712162 0.321,-0.103681 4.94337,-0.469078 10.27194,-0.811994 l 9.68832,-0.623484 V 34.658257 54.16117 l -1.51745,-0.05409 c -0.8346,-0.02975 -5.40444,-0.533441 -10.15522,-1.11932 z"
       id="path4538"
       transform="scale(0.26458333)" />
    <path
       style="fill:#c8ab37;stroke:#55ddff;stroke-width:0.467642;stroke-opacity:1"
       d="m 50.192463,33.853656 c -0.256798,-0.08508 -1.02851,-0.278068 -1.714914,-0.428854 -3.090818,-0.67898 -5.959319,-4.789304 -5.978791,-8.567112 -0.04106,-7.965306 9.575962,-12.42214 16.297752,-7.552901 3.573055,2.588308 5.421777,8.702528 3.83698,12.689919 -0.464933,1.169779 -0.61187,1.23295 -1.70712,0.733921 -0.812287,-0.370103 -1.104574,-0.782491 -0.907185,-1.27995 1.8073,-4.554743 -0.782987,-9.998482 -5.341654,-11.226004 -2.299101,-0.619083 -4.307,-0.304319 -6.48074,1.015941 -5.634912,3.422462 -2.498621,13.034984 3.863523,11.841439 0.956055,-0.179357 2.243544,-0.831365 2.861085,-1.448907 0.95963,-0.95963 1.288553,-1.047283 2.263328,-0.603146 0.92909,0.423321 1.053799,0.681704 0.67271,1.393775 -0.992625,1.854737 -5.854703,4.03166 -7.664974,3.431879 z"
       id="path4540"
       transform="scale(0.26458333)" />
    <path
       style="fill:#c8ab37;stroke:#55ddff;stroke-width:0.467642;stroke-opacity:1"
       d=""
       id="path4542"
       transform="scale(0.26458333)" />
    <path
       style="fill:#ffff00;stroke:#55ddff;stroke-width:0.0826682;stroke-opacity:1"
       d="m 49.240562,33.335478 c -1.397928,-0.364384 -1.917004,-0.579713 -2.63758,-1.094156 -1.960963,-1.399995 -3.479405,-4.078054 -3.783944,-6.673699 -0.216574,-1.845909 0.324751,-3.983929 1.437086,-5.675914 0.443623,-0.674799 1.506369,-1.788809 2.207157,-2.313625 0.643855,-0.482178 1.886324,-1.138697 2.710207,-1.43207 3.138498,-1.117575 6.817915,-0.562422 9.500885,1.433501 1.914203,1.424019 3.385843,3.929183 4.025037,6.851796 0.23356,1.067916 0.21337,3.669041 -0.03545,4.566721 -0.199598,0.72011 -0.560834,1.574889 -0.722133,1.708754 -0.129881,0.107792 -0.994899,-0.224449 -1.411314,-0.542064 -0.324855,-0.247779 -0.336436,-0.364173 -0.104666,-1.051972 0.417204,-1.238094 0.532221,-3.08364 0.276266,-4.432927 -0.453953,-2.393042 -1.993435,-4.676453 -3.942147,-5.847122 -0.763845,-0.458873 -1.702514,-0.820806 -2.614902,-1.008256 -1.184734,-0.243405 -2.670772,-0.194585 -3.746042,0.123066 -0.812152,0.239923 -1.959787,0.786698 -2.685259,1.279357 -0.655465,0.445117 -1.557182,1.440033 -1.920205,2.118671 -0.685338,1.281176 -0.953216,2.997083 -0.696856,4.463746 0.288034,1.647874 0.919983,2.892711 2.028232,3.995292 0.828175,0.823939 1.698445,1.311493 2.728143,1.528395 0.747086,0.157372 2.041949,0.112609 2.723761,-0.09416 0.757337,-0.229671 1.78665,-0.783883 2.359957,-1.270671 1.053499,-0.894512 1.117442,-0.933271 1.46438,-0.88763 0.387349,0.05096 1.211751,0.45646 1.329853,0.654121 0.129509,0.216753 -0.217702,0.807479 -0.781314,1.329285 -1.483702,1.373646 -4.393252,2.629837 -6.02364,2.600691 -0.249678,-0.0045 -1.00816,-0.152573 -1.685515,-0.329131 z"
       id="path4548"
       transform="scale(0.26458333)" />
  </g>
</svg>
