<?xml version="1.0" encoding="UTF-8" standalone="no"?>
<!-- Created with Inkscape (http://www.inkscape.org/) -->

<svg
   width="1280"
   height="720"
   viewBox="0 0 338.66667 190.5"
   version="1.1"
   id="svg5"
   inkscape:version="1.2 (56b05e47e7, 2022-06-09, custom)"
   sodipodi:docname="business_man.svg"
   xmlns:inkscape="http://www.inkscape.org/namespaces/inkscape"
   xmlns:sodipodi="http://sodipodi.sourceforge.net/DTD/sodipodi-0.dtd"
   xmlns="http://www.w3.org/2000/svg"
   xmlns:svg="http://www.w3.org/2000/svg">
  <sodipodi:namedview
     id="namedview7"
     pagecolor="#ffffff"
     bordercolor="#666666"
     borderopacity="1.0"
     inkscape:showpageshadow="2"
     inkscape:pageopacity="0.0"
     inkscape:pagecheckerboard="0"
     inkscape:deskcolor="#d1d1d1"
     inkscape:document-units="mm"
     showgrid="false"
     inkscape:zoom="0.75722503"
     inkscape:cx="479.38194"
     inkscape:cy="457.59185"
     inkscape:window-width="1920"
     inkscape:window-height="1016"
     inkscape:window-x="0"
     inkscape:window-y="27"
     inkscape:window-maximized="1"
     inkscape:current-layer="layer1" />
  <defs
     id="defs2" />
  <g
     inkscape:label="Layer 1"
     inkscape:groupmode="layer"
     id="layer1">
    <path
       style="fill:none;stroke:#000000;stroke-width:0.264583px;stroke-linecap:butt;stroke-linejoin:miter;stroke-opacity:1"
       d="M 113.41749,105.17518 C 131.62915,63.963914 168.36482,60.63 168.36482,60.63 l 36.60062,46.80623 -62.61301,43.62185 z"
       id="path1467" />
    <path
       style="fill:none;stroke:#000000;stroke-width:0.264583px;stroke-linecap:butt;stroke-linejoin:miter;stroke-opacity:1"
       d="m 132.96205,87.788427 c 31.67549,-2.789237 7.80547,16.703603 7.80547,16.703603 0,0 -24.24166,21.64139 -22.39435,2.98211 1.84732,-18.659275 14.58888,-19.685713 14.58888,-19.685713 z"
       id="path1471" />
    <path
       style="fill:none;stroke:#000000;stroke-width:0.264583px;stroke-linecap:butt;stroke-linejoin:miter;stroke-opacity:1"
       d="m 162.34971,68.080185 c 31.67549,-2.789237 7.80547,16.703603 7.80547,16.703603 0,0 -24.24166,21.641392 -22.39435,2.98211 1.84732,-18.659275 14.58888,-19.685713 14.58888,-19.685713 z"
       id="path1471-3" />
    <path
       style="fill:none;stroke:#000000;stroke-width:0.264583px;stroke-linecap:butt;stroke-linejoin:miter;stroke-opacity:1"
       d="m 141.77214,131.12943 c 43.27856,-30.63038 42.96922,-30.63038 42.96922,-30.63038"
       id="path1717" />
    <ellipse
       style="fill:#1a1a1a;stroke:#1a1a1a;stroke-width:0.264999"
       id="path1931"
       cx="138.78523"
       cy="98.720261"
       rx="2.5837362"
       ry="5.1507735" />
    <ellipse
       style="fill:#1a1a1a;stroke:#1a1a1a;stroke-width:0.264999"
       id="path1933"
       cx="169.9364"
       cy="77.721214"
       rx="1.8292828"
       ry="4.9810796" />
    <path
       style="fill:none;stroke:#000000;stroke-width:0.264583px;stroke-linecap:butt;stroke-linejoin:miter;stroke-opacity:1"
       d="m 134.17896,138.58567 c -1.18991,2.33731 -1.9406,3.93893 -3.49084,6.24335 -0.81154,1.20635 -1.74402,2.32712 -2.6434,3.46949 -1.83232,2.32734 -3.62938,4.68497 -5.5512,6.93897 -1.64883,1.9338 -3.45674,3.72641 -5.15466,5.61727 -0.72555,0.808 -1.48141,1.59604 -2.11474,2.47819 -0.91243,1.27087 -1.63307,2.67036 -2.51125,3.96513 -0.84092,1.23982 -1.75348,2.42958 -2.64341,3.6347 -0.16758,0.22693 -0.38348,0.419 -0.52868,0.66086 -0.67281,1.12074 -0.65577,0.84077 -0.65577,1.42651 0,0.0644 0.0255,0.13409 0,0.19328 -0.0769,0.17885 -0.23413,0.31819 -0.29904,0.50176 -0.0382,0.10811 0,0.22933 0,0.344 0,0.15608 0,0.31216 0,0.46824 0,0.58042 0.11839,1.11349 0.40932,1.619 0.108,0.18765 0.24112,0.36149 0.33419,0.55698 0.46442,0.97555 -0.24464,-0.17122 0.30023,0.73424 0.32399,0.53841 0.73285,1.08229 0.97099,1.66907 0.0626,0.15428 0.088,0.32119 0.12871,0.48264 0.13426,0.53261 0.30129,1.05847 0.39618,1.59948 0.21927,1.25022 -0.14985,0.13845 0,1.10995 0.17527,1.13636 0.52723,2.253 0.75273,3.38058 0.0441,0.22028 0.11719,0.4367 0.13216,0.66084 0.0293,0.43848 -0.0537,0.88221 0,1.31838 0.0352,0.28629 0.17275,0.55046 0.26375,0.82418 0.47712,1.43519 0.25828,0.65717 0.50166,1.56983 0.0374,0.14011 0.10118,0.27573 0.11209,0.42032 0.0623,0.82595 0,1.70321 0,2.5338 0,0.50991 0.0182,0.63836 -0.11066,1.23708 -0.0184,0.0855 -0.14701,0.11899 -0.16381,0.20477 -0.0819,0.41821 0.0914,0.16368 -0.0711,0.36679"
       id="path2002" />
    <path
       style="fill:none;stroke:#000000;stroke-width:0.264583px;stroke-linecap:butt;stroke-linejoin:miter;stroke-opacity:1"
       d="m 180.84959,124.52083 c 1.60469,0.87054 3.29784,1.5948 4.81407,2.61163 1.03012,0.69082 1.88992,1.6099 2.77559,2.47821 5.25011,5.14717 2.46895,2.45421 5.41902,5.9477 0.81026,0.95952 1.69149,1.85721 2.51125,2.80862 0.45363,0.52649 0.86828,1.08536 1.30242,1.62804 0.0551,0.0689 0.59667,0.74584 0.59669,0.74587 0.46005,0.75725 0.87655,1.54014 1.3188,2.30792 0.34982,0.60731 0.74635,1.18928 1.05739,1.81733 1.36533,2.7569 2.59304,5.60794 3.83295,8.42591 0.48463,1.10143 0.93841,2.21694 1.45389,3.30427 0.89467,1.8872 1.84489,3.74757 2.77558,5.61727 0.79183,1.59073 1.67214,3.15913 2.37907,4.79119 0.18371,0.42412 0.0733,0.7806 0.12397,1.20829 0.0284,0.24007 0.0684,0.47864 0.0999,0.71834 0.0873,0.66485 0.26766,1.35014 0.4016,2.01011 0.0288,0.14204 0.0923,0.27653 0.11205,0.42012 0.0552,0.40202 0.0125,0.8188 0.11196,1.21221 0.11631,0.46003 0.37479,0.87284 0.52868,1.3217 0.11091,0.32349 0.17265,0.66184 0.26432,0.9913 0.26079,0.9372 0.56053,1.864 0.79305,2.80862 0.12032,0.48882 0.14901,0.99689 0.26432,1.48692 0.34359,1.46023 0.97778,2.83382 1.32172,4.29556 0.14202,0.60355 0.29853,1.20511 0.3965,1.81735 0.0348,0.21738 0,0.44029 0,0.66044 0,0.14994 -0.0498,0.30839 0,0.44982 0.10971,0.31151 0.32546,0.57549 0.46628,0.87423 0.0612,0.12987 0,0.42357 0,0.56799 0,0.27706 0.034,0.33694 0.0893,0.66501 0.0199,0.11769 -0.0181,0.24009 0,0.35805 0.13838,0.90211 0.42654,1.89634 -0.19343,2.67171"
       id="path2006" />
    <path
       style="fill:none;stroke:#000000;stroke-width:0.264583px;stroke-linecap:butt;stroke-linejoin:miter;stroke-opacity:1"
       d="m 158.55435,186.06081 c -2.28686,-3.81072 -3.98409,-7.93161 -6.07148,-11.84543 -0.15384,-0.28846 -0.3604,-0.54578 -0.52868,-0.82606 -0.37205,-0.61969 -0.16834,-0.35293 -0.47108,-1.01507 -0.21111,-0.46176 -0.0734,-0.79232 0.22636,-1.23715 0.33674,-0.49977 0.71051,-0.97389 1.04841,-1.47288 0.42738,-0.63113 0.77689,-1.3117 1.17645,-1.9608 0.17137,-0.2784 0.36801,-0.54135 0.5287,-0.82605 0.30363,-0.53797 0.59765,-1.08275 0.85284,-1.64531 0.0946,-0.2085 0.15651,-0.43109 0.25509,-0.63773 0.52312,-1.09664 1.25178,-2.09639 1.73392,-3.21448 0.11448,-0.26548 0.17623,-0.55072 0.26434,-0.82608 0.17623,-0.55071 0.37724,-1.0941 0.52868,-1.65214 0.0258,-0.0952 -0.0257,-0.20069 0,-0.29594 0.059,-0.21905 0.51114,-1.49813 0.63188,-2.05506 0.10107,-0.46618 0.1819,-0.9367 0.25724,-1.40773 0.0164,-0.10256 -0.0146,-0.20876 0,-0.3116 0.0316,-0.22369 0.14402,-0.43061 0.17799,-0.65395 0.0222,-0.14559 -0.0245,-0.29659 0,-0.4418 0.0415,-0.2455 0.22382,-0.70502 0.26812,-0.9003 0.0236,-0.10392 -0.0392,-0.22059 0,-0.3197 0.0383,-0.0969 0.10781,-0.17941 0.14717,-0.27594 0.01,-0.0238 -0.008,-0.12474 0,-0.15376 0.0585,-0.21647 0.12978,-0.41852 0.17291,-0.6433 0.0104,-0.0543 -0.02,-0.11436 0,-0.16593 0.0985,-0.25415 0.25677,-0.49702 0.33007,-0.76264 0.0229,-0.0831 0.0535,-0.1787 0.0535,-0.26762 0,-0.0246 -0.0237,-0.0806 0,-0.0739 0.50897,0.1432 0.4362,0.37967 0.59983,0.87394 0.12094,0.36533 0.24087,0.73118 0.37443,1.0921 0.79394,2.14551 0.0868,-0.28888 0.9252,3.30427 0.12869,0.55154 0.32554,1.09025 0.39652,1.65214 0.0621,0.49173 -0.0583,0.99472 0,1.48691 0.55872,4.71428 0.35291,1.40733 0.79302,4.29557 0.10866,0.71309 0.16351,1.43353 0.26434,2.14778 0.0314,0.22244 0.1098,0.43733 0.13216,0.66086 0.0219,0.21892 -0.0293,0.44198 0,0.66003 0.0591,0.4399 0.20323,0.86545 0.26402,1.30511 0.0276,0.19956 -0.0432,0.40759 0,0.60435 0.0813,0.37046 0.26938,0.7104 0.36901,1.07637 0.0244,0.0897 -0.0241,0.18917 0,0.27901 0.0523,0.19548 0.16433,0.37074 0.22547,0.56364 0.28202,0.8899 -0.0967,0.12443 0.33757,1.06589 0.0849,0.15924 0.16986,0.31849 0.25479,0.47773 0,0.0658 -0.0211,0.13501 0,0.19727 0.0536,0.15787 0.32563,0.43122 0.34216,0.62134 0.001,0.0163 -0.0399,-0.0135 -0.0491,0 -0.15962,0.0606 -0.0294,0.19108 -0.0704,0.27714 0.0519,0.29596 -0.25095,0.36249 -0.35199,0.55773 -0.20416,0.39449 -0.38663,0.79987 -0.58595,1.19684 -0.0812,0.16178 -0.18849,0.31106 -0.25557,0.4792 -0.33955,0.85114 -0.55365,1.74779 -0.78976,2.63322 -0.50349,1.88809 -0.12603,0.41888 -0.26434,2.14778 -0.0619,0.77354 -0.15264,1.54504 -0.26434,2.31297 -0.0647,0.44462 -0.1857,0.87937 -0.26434,1.32173 -0.25058,1.40949 -0.481,2.83188 -0.77972,4.2334 -0.0211,0.0988 -0.0979,0.18137 -0.11254,0.28131 -0.28456,0.54043 -0.0332,1.11395 -0.10155,1.66615 -0.0177,0.1426 -0.0824,0.27572 -0.11107,0.41653 -0.13434,0.65963 -0.19987,1.31516 -0.19987,1.98644"
       id="path2012" />
    <path
       style="fill:none;stroke:#000000;stroke-width:0.264583px;stroke-linecap:butt;stroke-linejoin:miter;stroke-opacity:1"
       d="m 154.89891,149.25681 c 0.75846,-0.18677 1.38581,0.28006 2.08387,0.39021 0.0868,0.0137 0.17849,-0.0218 0.26361,0 0.0697,0.0179 0.11301,0.0982 0.18314,0.11446 0.17099,0.0397 0.96678,0.0388 1.12701,0 0.2427,-0.0588 0.45837,-0.1411 0.70981,-0.19422 0.29022,-0.0613 0.41882,0.0149 0.75527,-0.10277 0.85456,-0.29903 -1.52713,0.0758 0.94192,-0.24878 0.58454,-0.0768 1.40273,0 2.0216,0 0.77838,0 1.55675,0 2.33513,0 0.26613,0 0.81156,0.0603 0.99328,-0.0841 0.33773,-0.2685 0.67224,-1.48983 0.72288,-1.72266 0.0434,-0.19949 -0.0168,-0.40899 0,-0.61245 0.18969,-2.30354 0.1319,0.50081 0.1319,-2.30112 0,-0.49018 0,-0.98036 0,-1.47054 0,-0.20041 0.064,-0.72277 0,-0.94331 -0.0185,-0.0639 -0.41045,0.0683 -0.69089,0 -0.31126,-0.0758 -0.5993,-0.22768 -0.90507,-0.32325 -0.77136,-0.24109 -1.53767,-0.52371 -2.33613,-0.64847 -0.48191,-0.0753 -0.96854,-0.11691 -1.45389,-0.16522 -0.37902,-0.0377 -0.77869,0.0565 -1.15497,0 -0.13489,-0.0203 -0.25872,-0.0872 -0.3906,-0.12204 -0.0893,-0.0236 -1.96342,-0.0512 -2.20175,0 -0.0633,0.0136 -0.10297,0.0837 -0.16482,0.103 -0.0527,0.0164 -0.11033,0 -0.16549,0 -0.0688,0.0287 -0.13553,0.0631 -0.20648,0.086 -0.16261,0.0525 -0.34072,-0.009 -0.5046,0.0862 -0.65427,0.38078 -0.64812,0.99847 -0.76112,1.70421 -0.033,0.20611 -0.1028,0.40627 -0.12282,0.61405 -0.0211,0.21912 0,0.44026 0,0.66039 0,0.7103 0,1.4206 0,2.13089 0,0.33816 0,0.67632 0,1.01448 0,0.15038 0,0.30076 0,0.45114 0,0.0823 0.05,0.18161 0,0.24702 -0.36513,0.47764 -0.80719,0.89123 -1.21079,1.33685 z"
       id="path2014" />
  </g>
</svg>
