<?xml version="1.0" encoding="UTF-8" standalone="no"?>
<!-- Created with Inkscape (http://www.inkscape.org/) -->

<svg
   width="210mm"
   height="297mm"
   viewBox="0 0 210 297"
   version="1.1"
   id="svg5"
   inkscape:version="1.2 (56b05e47e7, 2022-06-09, custom)"
   sodipodi:docname="developer_notes"
   xmlns:inkscape="http://www.inkscape.org/namespaces/inkscape"
   xmlns:sodipodi="http://sodipodi.sourceforge.net/DTD/sodipodi-0.dtd"
   xmlns="http://www.w3.org/2000/svg"
   xmlns:svg="http://www.w3.org/2000/svg">
  <sodipodi:namedview
     id="namedview7"
     pagecolor="#ffffff"
     bordercolor="#666666"
     borderopacity="1.0"
     inkscape:showpageshadow="2"
     inkscape:pageopacity="0.0"
     inkscape:pagecheckerboard="0"
     inkscape:deskcolor="#d1d1d1"
     inkscape:document-units="mm"
     showgrid="false"
     inkscape:zoom="0.75722503"
     inkscape:cx="221.86271"
     inkscape:cy="561.92015"
     inkscape:window-width="1846"
     inkscape:window-height="1016"
     inkscape:window-x="74"
     inkscape:window-y="27"
     inkscape:window-maximized="1"
     inkscape:current-layer="layer1" />
  <defs
     id="defs2">
    <rect
       x="428.82623"
       y="361.6332"
       width="367.13359"
       height="167.83065"
       id="rect1153" />
  </defs>
  <g
     inkscape:label="Layer 1"
     inkscape:groupmode="layer"
     id="layer1">
    <path
       style="fill:#000000;stroke:#000000;stroke-width:2;stroke-opacity:0.996078"
       id="path843"
       d="m 12.806669,33.214003 c -0.07286,0.249362 -0.163631,0.494175 -0.218568,0.748088 -0.380897,1.760437 -0.585488,3.529547 -1.050124,5.278128 -0.664096,2.499214 -0.971166,3.174632 -1.8796941,5.715696 -2.300996,5.803069 -5.3217486,11.274707 -8.393141,16.695903 -0.46477815,0.967084 -1.71164775,2.319367 -0.77942924,3.449818 0.95913174,1.163087 4.41186504,1.944481 5.73585564,2.342912 9.3341457,2.110255 -4.7981375,-0.841587 7.4580887,0.661141 0.958096,0.117472 1.833469,0.604467 2.750203,0.9067 0,0 0.380568,-0.258397 0.380568,-0.258397 v 0 C 15.893754,68.451848 14.852473,68.399117 14.060407,67.847564 13.392323,67.382344 13.118605,66.519379 12.647705,65.855288 11.876585,65.463001 11.105464,65.070714 10.334344,64.678427 8.6388934,63.876073 8.1809869,63.756108 6.7390485,62.760235 6.4804006,62.581599 5.6103985,61.968493 5.513375,61.496643 5.4046257,60.967765 5.8700529,59.883391 5.9974072,59.508225 8.2716329,54.036679 10.690924,48.631085 13.262863,43.292167 c 0.503243,-1.101654 1.032343,-2.191859 1.509728,-3.304961 1.298809,-3.028386 2.290763,-6.176023 3.400754,-9.274952 0,0 -5.366676,2.501749 -5.366676,2.501749 z" />
    <path
       style="fill:#000000;stroke:#000000;stroke-width:2;stroke-opacity:0.996078"
       id="path845"
       d="m 16.143426,29.998582 c 0.176559,0.256972 1.159966,1.688685 1.179603,1.714693 0.443742,0.587754 0.930414,1.142159 1.376825,1.727883 1.916813,2.515005 3.672071,5.123548 5.386709,7.778353 2.827594,4.13906 5.115205,8.591383 7.448206,13.014545 0.196956,0.269755 1.137454,2.432446 1.457547,2.608492 0.166002,0.0913 0.371488,0.0746 0.557231,0.111895 2.430738,-1.37968 4.901438,-2.691209 7.292211,-4.139038 0.526163,-0.318638 0.964054,-0.764297 1.442653,-1.150716 0.774613,-0.625419 1.544984,-1.256069 2.316935,-1.884767 2.75,-2.239674 5.440016,-4.545663 8.17716,-6.800837 0,0 -0.427636,0.169495 -0.427636,0.169495 v 0 c -4.226179,2.843699 -8.44465,5.69463 -12.647189,8.572931 -1.12196,0.768427 -2.242214,1.53959 -3.37648,2.289734 -0.714195,0.472331 -2.933181,1.762191 -2.16831,1.377301 1.774833,-0.893111 3.46979,-1.936821 5.204687,-2.90523 -0.104833,0.08826 -0.524737,0.540776 -0.792657,0.507579 -0.414205,-0.05132 -1.556785,-1.596377 -1.891996,-1.784072 -3.344929,-3.763785 -6.377167,-7.782645 -9.026951,-12.070194 -2.31548,-3.564869 -4.786081,-7.240259 -5.938048,-11.387746 -0.06393,-0.230166 -0.0806,-0.470913 -0.120901,-0.706369 0,0 -5.449599,2.956068 -5.449599,2.956068 z" />
    <path
       style="fill:#000000;stroke:#000000;stroke-width:2;stroke-opacity:0.996078"
       id="path847"
       d="m 22.05958,28.654965 c -0.0031,-0.308983 0.01588,-0.618967 -0.0092,-0.92695 C 21.98883,26.971164 21.714888,25.48473 21.606713,24.803037 21.499183,24.125407 21.399566,23.446546 21.295993,22.7683 21.192741,21.964712 21.111134,21.158046 20.986238,20.357536 20.85022,19.485745 20.671086,18.62123 20.51351,17.753076 20.082644,15.917865 19.825634,14.045017 19.398213,12.209097 19.207769,11.391077 19.147436,10.512417 18.743781,9.7758775 18.43793,9.217798 16.388879,7.4889071 15.834072,7.0038618 c 0,0 -0.404348,0.219324 -0.404348,0.219324 v 0 c -0.152342,0.7023568 -0.962062,4.3217192 -0.96335,4.8545122 -0.0021,0.854232 0.306366,1.680889 0.476143,2.518082 0.982917,4.846886 0.233466,0.569904 1.049864,5.549051 0.216639,1.685426 0.479397,3.365087 0.670015,5.053655 0.19196,1.700452 0.171343,3.436537 0.429298,5.1291 0.04285,0.281176 0.130606,0.553646 0.195909,0.830469 0,0 4.771945,-2.50309 4.771945,-2.50309 z" />
    <path
       style="fill:#000000;stroke:#000000;stroke-width:2;stroke-opacity:0.996078"
       id="path843-3"
       d="m 149.02971,258.06502 c -0.0729,0.24936 -0.16363,0.49417 -0.21857,0.74808 -0.38089,1.76044 -0.58548,3.52955 -1.05012,5.27813 -0.6641,2.49922 -0.97117,3.17463 -1.87969,5.7157 -2.301,5.80307 -5.32175,11.2747 -8.39314,16.6959 -0.46478,0.96708 -1.71165,2.31937 -0.77943,3.44982 0.95913,1.16309 4.41186,1.94448 5.73585,2.34291 9.33415,2.11026 -4.79814,-0.84159 7.45809,0.66114 0.9581,0.11747 1.83347,0.60447 2.7502,0.9067 0,0 0.38057,-0.2584 0.38057,-0.2584 v 0 c -0.91667,-0.30214 -1.95795,-0.35487 -2.75002,-0.90642 -0.66808,-0.46522 -0.9418,-1.32819 -1.4127,-1.99228 -0.77112,-0.39229 -1.54224,-0.78457 -2.31336,-1.17686 -1.69545,-0.80235 -2.15336,-0.92232 -3.5953,-1.91819 -0.25865,-0.17864 -1.12865,-0.79174 -1.22567,-1.26359 -0.10875,-0.52888 0.35668,-1.61326 0.48403,-1.98842 2.27423,-5.47155 4.69352,-10.87714 7.26546,-16.21606 0.50324,-1.10165 1.03234,-2.19186 1.50972,-3.30496 1.29881,-3.02839 2.29077,-6.17602 3.40076,-9.27495 0,0 -5.36668,2.50175 -5.36668,2.50175 z" />
    <path
       style="fill:#000000;stroke:#000000;stroke-width:2;stroke-opacity:0.996078"
       id="path845-6"
       d="m 152.36647,254.84959 c 0.17656,0.25698 1.15997,1.68869 1.1796,1.7147 0.44374,0.58775 0.93042,1.14216 1.37683,1.72788 1.91681,2.51501 3.67207,5.12355 5.38671,7.77835 2.82759,4.13906 5.1152,8.59139 7.4482,13.01455 0.19696,0.26975 1.13746,2.43244 1.45755,2.60849 0.166,0.0913 0.37149,0.0746 0.55723,0.1119 2.43074,-1.37968 4.90144,-2.69121 7.29221,-4.13904 0.52616,-0.31864 0.96406,-0.7643 1.44265,-1.15072 0.77462,-0.62542 1.54499,-1.25607 2.31694,-1.88477 2.75,-2.23967 5.44002,-4.54566 8.17716,-6.80083 0,0 -0.42764,0.16949 -0.42764,0.16949 v 0 c -4.22618,2.8437 -8.44465,5.69463 -12.64719,8.57293 -1.12196,0.76843 -2.24221,1.53959 -3.37648,2.28974 -0.71419,0.47233 -2.93318,1.76219 -2.16831,1.3773 1.77484,-0.89311 3.46979,-1.93682 5.20469,-2.90523 -0.10483,0.0883 -0.52474,0.54077 -0.79266,0.50758 -0.4142,-0.0513 -1.55678,-1.59638 -1.89199,-1.78407 -3.34493,-3.76379 -6.37717,-7.78265 -9.02695,-12.0702 -2.31548,-3.56487 -4.78608,-7.24026 -5.93805,-11.38774 -0.0639,-0.23017 -0.0806,-0.47092 -0.1209,-0.70637 0,0 -5.4496,2.95606 -5.4496,2.95606 z" />
    <path
       style="fill:#000000;stroke:#000000;stroke-width:2;stroke-opacity:0.996078"
       id="path847-7"
       d="m 158.28262,253.50598 c -0.003,-0.30899 0.0159,-0.61897 -0.009,-0.92695 -0.0615,-0.75685 -0.33549,-2.24329 -0.44366,-2.92498 -0.10753,-0.67763 -0.20715,-1.35649 -0.31072,-2.03474 -0.10326,-0.80359 -0.18486,-1.61025 -0.30976,-2.41076 -0.13602,-0.87179 -0.31515,-1.73631 -0.47273,-2.60446 -0.43086,-1.83521 -0.68787,-3.70806 -1.11529,-5.54398 -0.19045,-0.81802 -0.25078,-1.69668 -0.65444,-2.43322 -0.30585,-0.55808 -2.3549,-2.28697 -2.9097,-2.77202 0,0 -0.40435,0.21933 -0.40435,0.21933 v 0 c -0.15234,0.70236 -0.96206,4.32172 -0.96335,4.85451 -0.002,0.85423 0.30636,1.68089 0.47614,2.51808 0.98292,4.84689 0.23347,0.56991 1.04986,5.54905 0.21664,1.68543 0.4794,3.36509 0.67002,5.05366 0.19196,1.70045 0.17134,3.43654 0.4293,5.1291 0.0428,0.28117 0.1306,0.55364 0.19591,0.83047 0,0 4.77194,-2.50309 4.77194,-2.50309 z" />
    <path
       style="fill:#000000;stroke:#000000;stroke-width:2;stroke-opacity:0.996078"
       id="path849"
       d="m 0.06661625,81.024898 c 0.75935433,0.06858 1.49096665,0.141859 2.25931735,0.165921 0.8444576,0.02646 1.6898974,0.0077 2.5344082,0.03235 3.9276697,0.114801 7.8544362,0.352137 11.7809122,0.504601 1.740736,0.05912 3.480773,0.144758 5.222207,0.177358 7.366856,0.137911 14.742071,0.02917 22.109542,0.02747 8.944653,-0.0021 8.847386,0.01193 18.166919,0.06519 13.766146,0.297215 27.49142,1.451026 41.226728,2.333178 10.21432,0.656019 13.32682,0.795171 23.64635,1.348857 16.72418,0.792204 33.44597,1.664009 50.12583,3.144639 10.39211,0.922483 14.9537,1.475909 25.2799,2.60805 15.49106,1.773283 7.95325,0.911678 22.61338,2.585205 0,0 0.3752,-0.266134 0.3752,-0.266134 v 0 C 210.74713,92.078067 218.28498,92.939719 202.79381,91.166212 192.47044,90.03402 187.90236,89.479755 177.51314,88.55709 160.83308,87.075733 144.11107,86.203176 127.38659,85.41144 117.08369,84.858856 113.939,84.718027 103.74063,84.063122 90.045555,83.183671 76.360834,82.099853 62.642064,81.634779 59.584571,81.503868 56.528189,81.343674 53.469582,81.24205 50.709001,81.150327 47.946349,81.134126 45.185385,81.05477 36.686172,80.810488 28.200477,80.318053 19.735228,79.512693 14.90891,79.01207 10.024404,78.669866 5.3414337,77.318684 c 0,0 -5.27481745,3.706214 -5.27481745,3.706214 z" />
    <path
       style="fill:#000000;stroke:#000000;stroke-width:2;stroke-opacity:0.996078"
       id="path851"
       d="m 100.18333,8.1354569 c 0.89992,4.6650471 1.55183,9.3662331 1.89315,14.1068041 0.15709,2.181907 0.24233,4.368395 0.3635,6.552592 0.0981,2.570908 0.26472,5.140118 0.29413,7.712728 0.058,5.073549 -0.23644,15.680539 -0.34896,20.518326 -0.12089,5.197329 -0.4495,18.952504 -0.5333,24.012093 -0.074,4.467781 -0.11007,8.936109 -0.16512,13.404162 -0.27946,28.753988 0.63407,57.498308 1.49171,86.235018 0.87525,26.56821 1.39145,53.14552 1.789,79.72452 0.1868,9.49272 0.21947,18.98568 0.16994,28.47953 0,0 0.40997,-0.20862 0.40997,-0.20862 v 0 c 0.0492,-9.49415 0.0164,-18.98737 -0.17036,-28.48036 -0.39765,-26.5792 -0.91408,-53.15671 -1.78931,-79.72513 -0.85757,-28.73613 -1.77077,-57.47988 -1.49083,-86.233288 0.0551,-4.467931 0.0913,-8.936138 0.16531,-13.403797 0.0839,-5.059793 0.41246,-18.81451 0.53333,-24.012011 0.10757,-4.625507 0.34027,-15.757091 0.54773,-20.619966 0.11529,-2.702417 0.3106,-5.400823 0.46591,-8.101235 0.2719,-5.676151 0.53867,-11.34944 0.9033,-17.020358 0.0985,-1.5323995 0.15165,-3.0687148 0.30553,-4.5965502 0.0277,-0.2752735 0.0863,-0.5465662 0.1294,-0.8198493 0,0 -4.96403,2.4753914 -4.96403,2.4753914 z" />
    <path
       style="fill:#000000;stroke:#000000;stroke-width:2;stroke-opacity:0.996078"
       id="path853"
       d="m 101.4767,50.575162 c 0.25165,-0.03579 0.50081,-0.103071 0.75495,-0.107368 0.36482,-0.0062 0.72848,0.0442 1.09195,0.07614 2.73174,0.240038 5.31618,0.942961 7.94382,1.700966 3.65383,1.327394 7.30611,2.769002 10.59274,4.879152 2.3052,1.480029 2.66579,1.936763 4.71022,3.741518 2.67816,2.705346 4.64536,5.99598 5.67474,9.66965 0.58999,2.105536 0.59899,3.028204 0.82532,5.170268 0.004,0.805781 0.0561,1.6128 0.0113,2.417345 -0.1469,2.637824 -0.70475,5.951997 -2.60526,7.944188 -0.42473,0.445225 -0.96966,0.757788 -1.4545,1.136685 1.55291,-1.79841 0.36741,-0.203476 -3.295,0.669874 -0.94595,0.225576 -1.93538,0.192614 -2.90308,0.28892 0,0 -0.36946,0.274034 -0.36946,0.274034 v 0 c 0.9687,-0.09496 1.9337,-0.241998 2.90611,-0.284882 0.70094,-0.03091 1.4382,0.28557 2.1039,0.06394 2.02648,-0.674688 3.87417,-1.79945 5.81126,-2.699176 1.93129,-1.367415 2.66298,-1.582881 3.92092,-3.570592 0.41586,-0.657114 0.70904,-1.389462 0.96721,-2.123006 0.81314,-2.310374 0.89453,-4.709115 0.6017,-7.119472 -0.1465,-0.841333 -0.24991,-1.691314 -0.4395,-2.523995 -1.11325,-4.889281 -3.23218,-8.875345 -6.8587,-12.368141 -0.79757,-0.658302 -1.56019,-1.361408 -2.39273,-1.974906 -2.48423,-1.830636 -5.26236,-3.161924 -8.05965,-4.431654 -0.89691,-0.407117 -1.79419,-0.814737 -2.70705,-1.18468 -0.86642,-0.35112 -1.75245,-0.651766 -2.62866,-0.977648 -2.41186,-0.839531 -4.95619,-1.797376 -7.49642,-2.176333 -0.37445,-0.05586 -1.37194,-0.0949 -1.85991,-0.116922 0,0 -4.84623,3.626096 -4.84623,3.626096 z" />
    <path
       style="fill:#000000;stroke:#000000;stroke-width:2;stroke-opacity:0.996078"
       id="path855"
       d="m 125.63615,67.955344 c -0.95886,0.31463 -3.16869,0.909855 -3.94299,-0.08478 -0.0831,-0.106733 -0.0582,-0.264194 -0.0873,-0.396293 0.0924,-0.127791 0.14729,-0.293865 0.27711,-0.383373 0.18107,-0.124855 0.80049,-0.354894 0.61722,-0.233283 -1.50628,0.999474 -3.15461,1.78713 -4.59839,2.874944 -0.18829,0.141864 0.47695,-0.0019 0.70482,0.05866 2.04212,0.541501 -1.17504,0.111104 1.55562,0.386993 0.71858,-0.235725 1.43715,-0.471453 2.15573,-0.707179 0,0 0.40076,-0.225806 0.40076,-0.225806 v 0 c 0.58066,-0.545708 1.16132,-1.091414 1.74198,-1.637122 0.0254,-0.325708 0.21121,-0.679601 0.0763,-0.977122 -0.12688,-0.279728 -1.36168,-0.807593 -1.63936,-0.689531 -2.12585,0.90387 -4.14157,2.05373 -6.14597,3.202025 -0.22956,0.131505 -0.40345,0.36681 -0.50789,0.609875 -0.0977,0.227425 -0.0478,0.492747 -0.0717,0.739119 0.1043,0.224753 0.15758,0.481211 0.31291,0.674253 0.86965,1.08082 2.58703,0.838126 3.80047,0.887196 0,0 5.35075,-4.098579 5.35075,-4.098579 z" />
    <path
       style="fill:#000000;stroke:#000000;stroke-width:2;stroke-opacity:0.996078"
       id="path857"
       d="m 131.30901,47.097052 c 0.7351,-1.011517 0.26085,-0.02418 -0.12448,-0.758679 -0.082,-0.156326 0.0335,-0.351472 0.0503,-0.527211 0,0 -0.42495,0.176143 -0.42495,0.176143 v 0 c -0.55716,0.401077 -1.10494,0.81551 -1.67148,1.203233 -2.60414,1.782204 -1.2724,0.669578 -2.6918,1.916252 0,0 4.86242,-2.009738 4.86242,-2.009738 z" />
    <path
       style="fill:#000000;stroke:#000000;stroke-width:2;stroke-opacity:0.996078"
       id="path859"
       d="m 140.87889,41.478879 c 0.50136,-0.556461 0.29134,-0.636733 -0.14731,-1.10396 0,0 -0.4249,0.17622 -0.4249,0.17622 v 0 c -1.42456,0.940978 -2.89206,1.835346 -4.23386,2.89378 0,0 4.80607,-1.96604 4.80607,-1.96604 z" />
    <path
       style="fill:#000000;stroke:#000000;stroke-width:2;stroke-opacity:0.996078"
       id="path861"
       d="m 149.83163,34.361606 c 1.79857,-0.994444 3.4783,-2.193427 5.1782,-3.342685 0,0 0.35773,-0.289181 0.35773,-0.289181 v 0 c -0.0693,-0.05194 -0.12158,-0.149138 -0.20794,-0.155832 -0.32067,-0.02484 -0.85239,0.278159 -1.09035,0.389054 0,0 -4.23764,3.398644 -4.23764,3.398644 z" />
    <path
       style="fill:#000000;stroke:#000000;stroke-width:2;stroke-opacity:0.996078"
       id="path863"
       d="m 156.32528,14.631907 c 1.43941,2.484987 2.64584,5.107007 3.51274,7.848964 0.89242,2.822668 1.22185,4.704608 1.84736,7.615578 0.71095,4.031663 1.39762,8.073162 1.88819,12.138893 0.41368,3.428515 0.64993,6.877155 0.90618,10.319874 0.28068,4.273539 0.73622,8.562893 0.66834,12.850312 -0.0278,1.072232 0.0802,2.139247 0.13319,3.207965 0.22382,0.972931 1.60845,0.347546 2.18472,0.195059 3.96605,-1.110195 7.80367,-2.618484 11.67047,-4.023638 4.32847,-1.533819 8.78409,-2.66064 13.29567,-3.495855 2.78506,-0.42295 5.54683,-0.975389 8.31321,-1.503225 0.90894,-0.198649 1.82411,-0.365387 2.73533,-0.552826 0.41297,-0.08495 0.74019,-0.158877 1.15368,-0.130185 2.93078,-1.156261 0.80851,0.287919 7.24782,-4.377741 0.16007,-0.115974 -0.061,-0.39158 -0.11483,-0.581763 -0.22076,-0.779478 -0.58757,-1.536729 -0.90304,-2.272691 -2.70179,-6.283915 -4.94065,-12.757658 -6.95976,-19.289011 -1.55673,-5.35931 -2.87759,-10.781331 -4.42599,-16.143171 -0.46837,-1.612223 -0.77868,-3.305448 -1.5957,-4.789795 -0.077,-0.106176 -0.13522,-0.228916 -0.23098,-0.318528 -0.86212,-0.806708 -3.28386,-0.784057 -4.3319,-0.847751 -5.39152,-0.290268 -10.77835,0.191132 -16.15863,0.481535 -4.48382,0.299932 -9.00153,-0.118881 -13.48061,0.279743 -1.23085,0.109542 -2.44908,0.331592 -3.67362,0.497388 0,0 -0.37565,0.265496 -0.37565,0.265496 v 0 c 0.45007,0.385834 0.82246,0.887493 1.35021,1.157503 0.71603,0.366333 1.51917,0.542462 2.30525,0.712693 3.04484,0.659385 6.19495,0.562269 9.2837,0.452991 4.96832,-0.16045 9.97595,-0.384669 14.91785,0.28804 1.19143,0.215723 2.46989,0.343357 3.46085,1.101104 1.03147,1.218573 1.77422,2.656948 2.52792,4.0535 2.31537,4.944156 4.29598,10.038257 6.0731,15.199251 1.50393,4.610368 1.0572,3.086982 2.39419,7.815109 0.93857,3.319143 1.87751,6.655009 2.49664,10.052537 0.13964,0.766273 0.22477,1.541481 0.33715,2.312223 0.0365,0.546158 0.0948,1.091292 0.10954,1.638472 0.008,0.286454 0.001,0.575405 -0.0425,0.858618 -0.017,0.110281 -0.23459,0.359439 -0.13693,0.305464 2.20042,-1.216102 4.33442,-2.548689 6.50163,-3.823031 -0.14592,0.127289 -0.0605,0.09228 -0.25751,0.10177 -1.56514,0.692343 -3.22447,1.107188 -4.88461,1.509514 -2.83953,0.684416 -5.71309,1.177504 -8.58339,1.711719 -4.77028,1.13134 -9.46262,2.567649 -14.13411,4.04945 -3.45455,1.13002 -6.87091,2.430008 -10.44203,3.154421 -0.36876,0.07476 -0.74127,0.133723 -1.1054,0.228473 -0.0689,0.01794 -0.18952,0.0031 -0.20057,0.07339 -0.018,0.114747 0.0894,0.214487 0.13886,0.319601 0.0218,0.04632 -0.0838,-0.261816 -0.0454,-0.146677 -0.45265,-0.833266 -0.71495,-1.753108 -1.05418,-2.635396 -0.14357,-0.389424 -0.31375,-0.770048 -0.4307,-1.168275 -0.14917,-0.507913 -0.25109,-1.028594 -0.36625,-1.545281 -0.6777,-3.040811 -1.14918,-6.122262 -1.60084,-9.203219 -0.55288,-3.313038 -1.14533,-6.622139 -1.63139,-9.945875 -0.59555,-4.072466 -1.04889,-8.1667 -1.77618,-12.219773 -0.44858,-2.636727 -0.91186,-5.270953 -1.35534,-7.908541 -0.50053,-2.976911 -0.9659,-5.964715 -1.81351,-8.869209 0,0 -5.34218,2.994807 -5.34218,2.994807 z" />
    <path
       style="fill:#000000;stroke:#000000;stroke-width:2;stroke-opacity:0.996078"
       id="path865"
       d="m 172.55099,25.440785 c 0.15105,-0.139475 0.29873,-0.282697 0.45316,-0.418427 0.19009,-0.167071 0.37535,-0.341062 0.58014,-0.489754 0.21677,-0.157395 0.91082,-0.564394 0.68134,-0.426191 -1.4754,0.888533 -3.00656,1.691929 -4.41918,2.677233 -0.17784,0.124045 0.43335,-0.0721 0.64877,-0.04735 0.30326,0.03483 0.59199,0.149246 0.88799,0.223869 1.40426,0.547368 2.64284,1.480656 4.08245,1.948397 0.96867,0.314727 1.27145,0.269333 2.27896,0.331618 1.10801,-0.06418 2.24965,-0.130627 3.32224,-0.447656 1.52165,-0.449755 1.88094,-0.77434 3.46079,-1.445522 0.51597,-0.219205 1.04762,-0.399486 1.57144,-0.599228 0,0 0.36816,-0.275778 0.36816,-0.275778 v 0 c -0.49929,-0.437682 -0.33974,-0.15728 -0.43046,-0.866848 -0.15575,-0.144622 -0.41771,-0.11143 -0.62988,-0.09904 -1.06993,0.06248 -2.10859,0.559382 -3.19688,0.511446 -0.86334,-4.5e-4 -1.33971,0.05455 -2.18438,-0.164268 -1.4311,-0.370742 -2.65375,-1.305314 -3.88673,-2.07049 -0.22253,-0.131038 -1.20226,-0.829673 -1.60643,-0.645135 -3.17493,1.449632 -5.02646,2.388517 -7.21875,4.440264 0,0 5.23725,-2.137135 5.23725,-2.137135 z" />
    <path
       style="fill:#000000;stroke:#000000;stroke-width:2;stroke-opacity:0.996078"
       id="path867"
       d="m 173.56101,36.787253 c 1.81916,-0.864449 3.4749,-0.508007 5.33337,0.01402 2.15099,0.550104 4.51207,0.804373 6.65989,0.0509 0.7995,-0.280474 1.55326,-0.677404 2.32988,-1.016106 0.7636,-0.363402 1.52719,-0.726807 2.29078,-1.09021 0,0 0.36448,-0.28063 0.36448,-0.28063 v 0 c -0.15826,-0.10005 -0.31653,-0.200099 -0.4748,-0.300146 -0.21571,-0.07936 -0.41729,-0.236953 -0.64713,-0.23807 -0.44061,-0.0021 -0.86553,0.167762 -1.30192,0.228598 -0.42703,0.05953 -0.85591,0.114194 -1.28669,0.132273 -0.86571,0.03634 -1.56003,-0.03654 -2.40717,-0.201295 -0.38682,-0.07523 -0.76597,-0.185566 -1.14895,-0.278347 -1.70615,-0.527442 -3.3825,-1.224031 -5.16244,-0.581493 0,0 -4.5493,3.5605 -4.5493,3.5605 z" />
    <path
       style="fill:#000000;stroke:#000000;stroke-width:2;stroke-opacity:0.996078"
       id="path869"
       d="m 178.80604,49.681074 c 1.2381,-1.579909 2.50105,-3.192457 4.05671,-4.480428 0.39925,-0.330544 0.84087,-0.606263 1.26131,-0.909394 -1.32765,0.787149 -2.70483,1.496184 -3.98295,2.361446 -0.35333,0.239202 0.78135,-0.349179 1.19032,-0.470882 0.45315,-0.134852 0.92031,-0.221072 1.38711,-0.296134 2.82824,-0.454801 0.6653,0.114995 4.07221,-0.573726 1.00186,-0.202528 1.98881,-0.472839 2.98322,-0.709258 0.84357,-0.159165 1.68715,-0.31833 2.53072,-0.477496 0,0 0.37116,-0.271732 0.37116,-0.271732 v 0 c -0.47075,-0.1113 -0.9415,-0.222597 -1.41225,-0.333896 -0.34642,-0.231439 -0.66344,-0.514506 -1.03926,-0.694317 -4.1276,-1.974874 -8.51893,1.782566 -11.6407,3.688664 -1.87612,1.69273 -3.51185,3.618741 -5.22337,5.473639 0,0 5.44577,-2.306486 5.44577,-2.306486 z" />
    <path
       style="fill:#000000;stroke:#000000;stroke-width:2;stroke-opacity:0.996078"
       id="path871"
       d="m 143.52696,62.465092 c 0.68902,-0.414663 1.42442,-0.755825 2.10284,-1.188006 2.55702,-1.628912 1.27392,-1.155829 2.79706,-1.639712 0,0 0.36372,-0.281612 0.36372,-0.281612 v 0 c -1.34801,0.421219 -0.22281,0.196442 0.0891,-0.667533 0.0554,-0.153358 -0.31888,0.07395 -0.47034,0.134315 -0.31478,0.125447 -0.78018,0.396452 -1.08076,0.564028 0,0 -3.80167,3.07852 -3.80167,3.07852 z" />
    <path
       style="fill:#000000;stroke:#000000;stroke-width:2;stroke-opacity:0.996078"
       id="path873"
       d="m 153.25091,59.604039 c 2.11103,-0.851318 4.03861,-2.057652 5.98666,-3.220101 0,0 0.36201,-0.283808 0.36201,-0.283808 v 0 c 0.0528,-0.206571 0.26625,-0.435716 0.1585,-0.619712 -0.16744,-0.285951 -1.56902,0.378872 -1.88754,0.478774 0,0 -4.61963,3.644847 -4.61963,3.644847 z" />
    <path
       style="fill:#000000;stroke:#000000;stroke-width:2;stroke-opacity:0.996078"
       id="path877"
       d="m 22.582538,97.729039 c -0.431298,2.852031 -0.552992,5.734421 -0.79247,8.604441 -0.325046,3.8955 -0.517163,5.16463 -0.997208,9.15269 -0.229545,1.69847 -0.469469,3.39558 -0.688636,5.09542 -0.638915,4.95538 -0.623762,5.33572 -1.26536,10.23718 -0.568583,4.34366 -1.256321,8.66773 -1.930304,12.9958 -0.874822,6.54118 -2.562181,12.85677 -4.840404,19.03714 -1.246783,3.2204 -2.8396953,6.27772 -4.5626842,9.26348 -0.2995234,0.59287 -1.2600299,1.55657 -0.2550472,2.09648 0.5466228,0.29366 1.6622204,0.0175 2.1360794,-0.0486 5.919175,-1.25804 11.956435,-1.73276 17.984292,-2.09533 7.575468,-0.32471 15.153854,-0.60213 22.733323,-0.8205 4.359518,-0.16533 8.720142,-0.17418 13.08151,-0.13231 2.090383,0.02 4.180314,0.16178 6.262158,0.34811 2.048233,0.17576 4.025051,0.73517 5.996178,1.28609 1.834068,0.51863 3.695645,0.9331 5.449427,1.69648 0.03298,0.19851 0.996866,0.18986 1.103636,0.28956 0.07615,0.0711 0.07378,0.3175 0.164298,0.26591 2.705373,-1.54204 5.304592,-3.26328 7.956889,-4.89492 -0.02453,-0.55057 -0.02133,-0.64757 -0.09421,-1.27626 -0.314807,-2.71527 -0.03681,0.21864 -0.411544,-3.32934 -0.313864,-2.97165 -0.3034,-3.31417 -0.529079,-6.58445 -0.185563,-5.02662 0.161322,-10.04851 0.401457,-15.06583 0.08964,-1.87289 0.135782,-3.74806 0.253937,-5.61937 0.182155,-2.8849 0.669732,-7.92094 0.941012,-10.84492 0.345643,-4.1012 0.80002,-8.19386 1.078934,-12.30073 0.177892,-2.61942 0.231589,-5.24396 0.354285,-7.86603 0.05748,-2.60138 0.389498,-5.18093 0.857334,-7.736593 0.591423,-1.900819 -1.276532,-1.93322 -2.656827,-2.150001 -4.914495,-0.383657 -9.846095,-0.431797 -14.769652,-0.646547 -6.964461,-0.253388 -13.921931,-0.713946 -20.866489,-1.293926 -4.026212,-0.337386 -8.06418,-0.658646 -12.053149,-1.324597 -1.518499,-0.25351 -3.688233,-0.72527 -5.206712,-1.044429 -2.167212,-0.389543 -4.2931,-1.102191 -6.480212,-1.390653 -0.670028,-0.08837 -1.35092,-0.201866 -2.02317,-0.132381 -1.875425,0.193849 -3.687687,1.004337 -5.422909,1.651108 0,0 -0.376663,0.264054 -0.376663,0.264054 v 0 c -0.222237,0.465373 -1.2234,1.767938 -0.372223,2.426237 0.432195,0.334259 1.047583,0.31686 1.583413,0.423667 0.692098,0.137957 1.396897,0.202134 2.094405,0.309433 1.610385,0.247732 3.216236,0.524425 4.828202,0.762122 2.827438,0.446473 5.661983,0.898514 8.508598,1.207979 3.165523,0.344135 6.350045,0.489426 9.524987,0.712131 6.922553,0.36176 13.844399,0.769896 20.749598,1.386076 4.46904,0.32072 8.969015,0.59907 13.3644,1.51335 0.08654,0.0213 1.607106,0.33233 1.704126,0.58323 0.07663,0.19818 0.05563,0.42671 0.147574,0.62011 0.191868,2.38851 0.311817,4.78151 0.363892,7.1774 0.396065,6.36035 0.740664,12.73705 0.5553,19.11117 -0.154332,4.03665 -0.206778,6.57414 -0.552972,10.64554 -0.164581,1.93557 -0.409913,3.86342 -0.606718,5.79597 -0.532588,5.22984 -1.005237,10.46582 -1.585402,15.6908 -0.164179,1.40326 -0.339111,2.8053 -0.492533,4.20978 -0.265162,2.42737 -0.248565,3.06646 -0.599979,5.31143 -0.06888,0.44006 -0.30493,1.75958 -0.520166,2.32252 -0.03851,0.10073 -0.123444,0.17686 -0.185166,0.26528 2.60042,-1.54149 5.153014,-3.16668 7.801258,-4.62448 0.104159,-0.0573 0.01818,0.25241 -0.04356,0.35402 -0.0061,0.01 -1.111088,-0.32612 -1.165174,-0.23458 -2.011371,-0.20388 -3.964813,-0.66499 -5.869411,-1.34659 -1.97625,-0.64765 -3.981429,-1.21808 -6.057463,-1.43771 -2.197913,-0.26256 -4.40263,-0.39416 -6.616214,-0.23758 -4.891521,0.39738 -9.765172,1.01068 -14.667142,1.28927 -7.638433,0.46281 -15.288329,0.62987 -22.933173,0.96008 -2.057715,0.10137 -5.073179,0.24109 -7.151263,0.37698 -3.141393,0.20543 -6.27583,0.53294 -9.423293,0.641 -0.03727,0.002 -1.150658,-0.002 -1.280553,0.12738 -0.06604,0.0657 -0.02864,0.19249 0.0047,0.27951 0.01983,0.0518 0.02065,-0.10954 0.04061,-0.16126 0.134168,-0.34766 0.321106,-0.67361 0.443033,-1.02644 1.106044,-2.8317 2.156888,-5.69043 2.950683,-8.62781 0.493485,-1.77701 0.95869,-3.36607 1.357867,-5.17433 0.973637,-4.41054 1.557578,-8.90459 2.218531,-13.36802 0.400912,-4.18458 0.6496,-8.37929 1.046574,-12.56386 0.362959,-3.82601 0.685021,-6.38278 1.23272,-10.20927 0.245473,-1.71499 0.522146,-3.42537 0.783219,-5.13805 0.763823,-4.14101 0.97289,-5.57174 1.921917,-9.59864 0.300976,-1.2771 0.652797,-2.54168 0.981775,-3.81186 0.484553,-1.870838 0.922962,-3.768829 1.62302,-5.575007 0,0 -6.240013,2.946776 -6.240013,2.946776 z" />
    <text
       xml:space="preserve"
       style="font-style:normal;font-weight:normal;font-size:10.5833px;line-height:1.25;font-family:sans-serif;fill:#000000;fill-opacity:1;stroke:none;stroke-width:0.264583"
       x="30.190165"
       y="126.98898"
       id="text933"><tspan
         sodipodi:role="line"
         id="tspan931"
         style="stroke-width:0.264583"
         x="30.190165"
         y="126.98898">thx for </tspan><tspan
         sodipodi:role="line"
         style="stroke-width:0.264583"
         x="30.190165"
         y="140.21811"
         id="tspan987">reading!</tspan></text>
    <path
       style="fill:#000000;stroke:#000000;stroke-width:2;stroke-opacity:0.996078"
       id="path1149"
       d="m 0.41544642,190.25996 c 0.87423948,-0.0592 1.65886288,-0.10192 2.54113178,-0.21855 1.8186421,-0.24042 3.6275372,-0.54958 5.4420246,-0.81957 5.2045462,-0.77442 2.0409812,-0.31522 7.5771052,-1.10245 6.899527,-0.91485 13.768464,-2.05086 20.691943,-2.78037 4.443799,-0.46822 8.263279,-0.73983 12.733054,-1.09368 12.570304,-0.86627 25.167627,-0.48512 37.747263,-0.13313 11.215867,0.39907 22.417812,1.07059 33.619422,1.74713 9.22848,0.5501 18.44619,1.23671 27.66185,1.96556 7.79566,0.72714 15.55019,1.82036 23.29785,2.93533 6.56326,0.9134 13.07708,2.10942 19.54623,3.53758 5.40181,1.15589 10.80333,2.29603 16.15756,3.65829 1.28312,0.26399 3.11174,0.76923 4.45409,0.52778 1.14357,-0.2057 2.21018,-0.71789 3.31527,-1.07683 0,0 0.37815,-0.26193 0.37815,-0.26193 v 0 c 0.22504,-0.56075 0.81734,-1.09501 0.67513,-1.68226 -0.16316,-0.67373 -3.27653,-1.29165 -3.33628,-1.30746 -5.5395,-1.13092 -11.06317,-2.33991 -16.62547,-3.35553 -6.66216,-1.18194 -13.32569,-2.37195 -20.0384,-3.23514 -8.01426,-1.03863 -16.06272,-1.73255 -24.11663,-2.38651 -9.39611,-0.82885 -18.81884,-1.31306 -28.24798,-1.56398 -2.91016,-0.10369 -8.07308,-0.28328 -10.9494,-0.40382 -7.7742,-0.3258 -15.540804,-0.83741 -23.325211,-0.88093 -12.83653,-0.26009 -25.687964,-0.19729 -38.504196,0.65531 -2.153639,0.13647 -4.30912,0.2465 -6.460921,0.40941 -8.598368,0.65098 -17.175181,1.59503 -25.744376,2.54293 -3.302534,0.32246 -3.761256,0.38763 -6.92724,0.62402 -1.914862,0.14297 -3.8665796,0.2996 -5.7904182,0.18911 -0.244629,-0.014 -0.4859999,-0.063 -0.7289998,-0.0945 0,0 -5.04255158,3.60416 -5.04255158,3.60416 z" />
    <text
       xml:space="preserve"
       transform="scale(0.26458333)"
       id="text1151"
       style="font-style:normal;font-weight:normal;font-size:40px;line-height:1.25;font-family:sans-serif;white-space:pre;shape-inside:url(#rect1153);fill:#000000;fill-opacity:1;stroke:none"><tspan
         x="428.82617"
         y="397.02344"
         id="tspan1292">whats that
</tspan><tspan
         x="428.82617"
         y="447.02344"
         id="tspan1294">about?</tspan></text>
    <path
       style="fill:#000000;stroke:#000000;stroke-width:2;stroke-opacity:0.996078"
       id="path1157"
       d="m 138.56894,174.84152 c -1.43947,0.0264 -2.76763,-0.49359 -4.12685,-0.87761 -0.88639,-0.25043 -1.79575,-0.42162 -2.67039,-0.71041 -2.71967,-0.89799 -3.16434,-1.27269 -5.70697,-2.61961 -0.85077,-0.62944 -1.76376,-1.18248 -2.55229,-1.88833 -2.43682,-2.18131 -4.05509,-4.99967 -4.55934,-8.25258 -0.45887,-2.96021 -0.0379,-3.90054 0.48532,-6.80309 0.44601,-1.08698 0.7825,-2.22564 1.33803,-3.26094 1.09732,-2.04498 2.63013,-3.90136 4.46849,-5.32425 0.91196,-0.70586 1.82909,-1.53425 2.94917,-1.80877 0.66301,-0.16249 -2.11235,1.26232 -1.45387,1.44229 1.21001,0.33071 2.44594,-0.55792 3.66891,-0.83689 1.35803,-0.1227 2.71165,-0.31275 4.07408,-0.36811 5.12548,-0.20824 10.5886,0.38184 15.51808,1.82659 0.98648,0.28912 1.93908,0.68329 2.90862,1.02493 2.15497,0.99281 4.33503,2.17083 5.66079,4.2356 0.79856,1.24368 1.32444,2.9787 1.56359,4.41579 0.13336,0.80143 0.13495,1.6193 0.20243,2.42895 -0.0147,3.97284 -0.8872,7.9389 -3.52349,11.03921 -0.54496,0.64088 -1.19913,1.18022 -1.7987,1.77033 1.30522,-0.75793 -6.21586,4.50082 -4.81228,3.18535 0.92389,-0.8659 4.27987,-1.4547 3.17873,-2.07988 -1.26118,-0.71604 -2.6776,1.12181 -4.05229,1.58391 -3.21443,1.08052 -7.17812,1.97385 -10.42936,2.7735 -1.49813,0.0485 -2.99625,0.0971 -4.49438,0.14562 0,0 -0.37267,0.26966 -0.37267,0.26966 v 0 c 1.29681,0.10272 2.59363,0.20542 3.89045,0.30814 1.02576,0.19438 2.03408,0.54175 3.07728,0.58314 1.16851,0.0464 2.3418,-0.11923 3.49342,-0.32247 4.99685,-0.88184 7.64472,-3.15488 12.63287,-5.93375 0.97266,-0.54186 1.93553,-1.1062 2.85339,-1.73646 0.82026,-0.56324 1.56809,-1.22531 2.35213,-1.83797 1.2646,-1.48851 1.88163,-2.00362 2.70149,-3.7908 0.30437,-0.66351 0.502,-1.37257 0.69819,-2.07571 0.64691,-2.3186 0.97707,-4.71783 0.82659,-7.12546 -0.26104,-2.50973 -0.47096,-5.09739 -1.94801,-7.26068 -1.54477,-2.26247 -4.09149,-3.26646 -6.5808,-4.07277 -1.09401,-0.27557 -2.1793,-0.58843 -3.28204,-0.82669 -5.09031,-1.09985 -10.79639,-1.7139 -16.00293,-1.66987 -1.32484,0.0112 -2.6465,0.1316 -3.96974,0.19741 -6.14709,1.19076 -3.71898,0.38726 -11.82077,4.74481 -2.17117,1.16777 -3.80289,2.46818 -5.32046,4.41907 -1.84702,2.37442 -2.11889,3.62326 -3.23384,6.39658 -0.4982,2.98807 -0.90149,4.031 -0.49354,7.0811 0.15397,1.15115 0.40111,2.30543 0.83543,3.38256 0.71534,1.77404 2.43044,3.96395 3.80243,5.26882 0.77965,0.7415 1.68924,1.33313 2.53385,1.9997 3.18639,1.8878 2.16997,1.38216 5.41517,2.93734 0.74621,0.3576 1.47617,0.75613 2.25091,1.04678 1.29413,0.48549 2.71828,0.63054 4.01905,1.10887 0,0 5.80612,-4.13295 5.80612,-4.13295 z" />
    <path
       style="fill:#000000;stroke:#000000;stroke-width:2;stroke-opacity:0.996078"
       id="path1159"
       d="m 189.70491,156.62255 c 1.08898,-1.66142 2.06453,-3.39349 3.07956,-5.09996 0.39068,-0.65682 0.82209,-1.29001 1.18705,-1.96146 0.38384,-0.70618 0.70471,-1.44482 1.05706,-2.16723 0.92892,-2.217 1.47029,-4.57168 1.76272,-6.9529 0.0945,-0.76913 0.2016,-1.54208 0.19061,-2.31691 -0.0276,-1.94258 -0.34462,-2.47477 -0.92494,-4.29971 -1.08666,-2.20765 -2.29604,-4.83311 -4.569,-6.07203 -0.4559,-0.2485 -1.81872,-0.65267 -2.3879,-0.83031 -2.54882,-1.08482 -0.12151,-1.01066 -5.87533,2.30419 -0.094,0.0542 -0.094,0.1958 -0.14856,0.28957 -0.15462,0.26574 -0.11674,0.20499 -0.34379,0.37043 1.51361,-0.90118 3.02722,-1.80237 4.54082,-2.70356 -0.078,0.0259 -0.15206,0.0724 -0.23411,0.0776 -0.25967,0.0166 -0.51497,-0.0909 -0.77517,-0.0919 -0.7043,-0.003 -0.89727,0.0717 -1.61885,0.20595 0.65647,-0.22165 -0.88333,0.22979 -0.79624,-0.021 0.10308,-0.29685 1.19812,-0.36111 0.91604,-0.22265 -4.92758,2.41865 -4.53423,2.27141 -7.06357,3.16772 -1.02934,0.46045 -1.89816,1.22156 -2.72947,1.96851 -0.78067,0.94117 -1.60215,1.97587 -1.98934,3.15899 -0.235,0.71811 -0.20976,1.17559 -0.25131,1.92428 0.22742,0.91379 0.65934,1.76831 1.24191,2.50929 0.18693,0.23777 0.31343,0.64374 0.61498,0.66717 0.85097,0.0661 1.6836,-0.28211 2.5254,-0.42317 0,0 0.39564,-0.23466 0.39564,-0.23466 v 0 c 0.49454,-0.6064 1.11598,-1.12845 1.48361,-1.8192 0.13623,-0.25597 -0.0594,-0.57837 -0.0533,-0.86828 0.0233,-1.10636 0.34505,-2.16817 0.7045,-3.20434 0.57659,-1.95492 1.39676,-3.45323 2.96752,-4.79274 0.98625,-0.76059 2.0482,-1.39372 3.08388,-2.07446 1.60023,-2.11661 0.68388,-0.82023 -6.37452,2.54509 -0.6316,0.30114 0.77388,-0.01 0.99911,0.0235 0.2555,0.0379 0.25591,0.23868 0.32803,0.43432 0.0196,0.14382 -0.0105,0.30396 0.0588,0.43148 0.17643,0.3244 0.59643,0.39918 0.91492,0.41631 2.27136,0.12217 5.29874,-2.7693 6.31175,-3.19931 0.15804,-0.16278 0.2902,-0.35201 0.46346,-0.4985 0.0534,-0.0451 0.2459,-0.13287 0.18417,-0.10013 -1.54994,0.8217 -3.09919,1.64471 -4.64879,2.46706 0.11531,-0.0412 0.22434,-0.1383 0.34593,-0.12372 0.14365,0.0172 0.25299,0.14047 0.37948,0.2107 0.0993,0.24233 0.20837,0.48092 0.29803,0.72699 0.12965,0.3558 0.19133,0.73837 0.35955,1.07764 0.57975,1.16925 1.09026,1.4933 1.91263,2.54725 1.29614,1.66111 1.12861,1.54838 2.13102,3.43801 0.21787,0.65656 0.48408,1.29901 0.65361,1.96969 0.24785,0.98058 0.52671,3.04032 0.50074,4.0537 -0.058,2.26339 -0.76614,4.46215 -1.43961,6.59732 -0.42271,1.1289 -0.9416,2.62439 -1.50109,3.71108 -0.95946,1.8636 -2.26289,3.51888 -3.44367,5.23997 0,0 5.57597,-2.45566 5.57597,-2.45566 z" />
    <path
       style="fill:#000000;stroke:#000000;stroke-width:2;stroke-opacity:0.996078"
       id="path1161"
       d="m 188.0149,177.05302 c -1.10803,-0.64042 -1.83533,-1.9153 -1.55148,-3.22341 0.0625,-0.28804 0.2259,-0.54447 0.33885,-0.81671 0.22425,-0.22076 0.41591,-0.48046 0.67274,-0.66229 0.3072,-0.21749 1.31852,-0.72465 1.00094,-0.52263 -1.79604,1.14253 -3.69813,2.12128 -5.43918,3.34596 -0.14614,0.1028 0.35627,0.0506 0.52435,0.11122 0.45396,0.16369 0.46574,0.23848 0.76846,0.5504 0.77256,0.31272 2.03638,-1.18086 2.33209,-0.45162 0,0 0.42791,-0.16879 0.42791,-0.16879 v 0 c 0.39338,-0.22556 0.79795,-0.43264 1.18013,-0.67667 2.71884,-1.73605 2.01447,-0.82043 3.01945,-2.76521 -0.1234,-0.24324 -0.17849,-0.53571 -0.37021,-0.72972 -0.38982,-0.39448 -1.40065,-0.72236 -1.92095,-0.48171 -2.47454,1.14452 -4.83043,2.53279 -7.19387,3.89199 -0.24007,0.13807 -0.42323,0.36379 -0.5903,0.58467 -0.20166,0.26662 -0.33772,0.57703 -0.50657,0.86554 -0.0593,0.31955 -0.15702,0.63431 -0.17791,0.95864 -0.0941,1.46136 0.57795,2.98157 1.59254,4.00325 0,0 5.89301,-3.81291 5.89301,-3.81291 z" />
    <path
       style="fill:#000000;stroke:#000000;stroke-width:2;stroke-opacity:0.996078"
       id="path1163"
       d="m 122.65353,156.94461 c 1.5797,-0.19373 3.17761,0.0187 4.76494,-0.0394 0.45221,-0.0166 0.9026,-0.0663 1.35391,-0.0994 2.05161,-0.4985 3.92948,-1.4634 5.8114,-2.38614 0,0 0.36775,-0.27633 0.36775,-0.27633 v 0 c 0.29742,-0.79076 0.60732,-1.11633 -0.10059,-1.76968 -1.77583,-0.0939 -3.56689,-0.10344 -5.30968,-0.50496 0,0 -6.88773,5.07594 -6.88773,5.07594 z" />
    <path
       style="fill:#000000;stroke:#000000;stroke-width:2;stroke-opacity:0.996078"
       id="path1165"
       d="m 139.19085,156.45307 c 1.99731,0.0321 4.01365,0.1248 5.89578,-0.69456 1.06651,-0.4643 2.06761,-1.06635 3.10142,-1.59953 0,0 0.37074,-0.2723 0.37074,-0.2723 v 0 c 0.38178,-0.49942 0.91813,-0.91212 1.14533,-1.49825 0.0757,-0.19524 -0.17873,-0.41809 -0.36693,-0.50989 -0.28624,-0.13964 -0.6297,-0.0978 -0.94647,-0.13081 -0.73901,-0.0771 -1.49076,-0.0706 -2.21962,-0.2362 0,0 -6.98025,4.94154 -6.98025,4.94154 z" />
    <path
       style="fill:#000000;stroke:#000000;stroke-width:2;stroke-opacity:0.996078"
       id="path1171"
       d="m 147.38207,164.95628 c -2.2393,1.24038 0.29938,-0.16242 4.99796,-2.91782 0.14693,-0.0862 -0.29832,0.16475 -0.4514,0.23944 -0.49849,0.24323 -1.01127,0.4185 -1.54083,0.57878 -1.81072,0.44552 -3.67599,0.59833 -5.53412,0.6682 -0.37871,0.007 -0.75745,0.0123 -1.13612,0.0211 -0.40554,0.009 -0.81252,-0.003 -1.21647,0.0339 -2.29275,0.21036 -4.46427,0.97486 -6.68602,1.5203 -0.79669,0.19558 -1.60381,0.34588 -2.40571,0.51882 0,0 -0.37219,0.27034 -0.37219,0.27034 v 0 c 0.32644,0.17439 0.67207,0.31683 0.97931,0.52317 0.99482,0.66807 0.5756,0.74805 1.73635,1.14833 1.07585,0.37101 2.24018,0.17022 3.3465,0.18567 1.96023,-0.10688 3.92251,-0.26448 5.84133,-0.70361 3.18116,-0.7993 5.9155,-2.67941 8.6409,-4.50339 0,0 -6.19949,2.41678 -6.19949,2.41678 z" />
    <path
       style="fill:#000000;stroke:#000000;stroke-width:2;stroke-opacity:0.996078"
       id="path1173"
       d="M -0.51212204,233.97576 C 3.744346,233.864 8.0019487,233.85729 12.257935,233.70512 c 2.746948,-0.0199 5.503437,-0.3737 8.251063,-0.22428 0.299005,-0.0432 0.467803,0.13232 0.719166,0.21364 0.0526,0.017 0.170017,0.0745 0.164704,0.0195 -0.0082,-0.0851 -0.05847,-0.1606 -0.0877,-0.2409 2.410534,2.16594 4.254048,4.93769 6.067992,7.60085 2.260843,3.6006 4.011438,7.47983 5.19213,11.55912 0.347385,1.25961 0.566137,2.55128 0.982912,3.79095 0.30907,0.82536 0.74654,1.61216 1.275812,2.31664 0.08252,0.0532 0.263406,0.64484 0.428263,0.61388 0.262363,-0.0493 0.509505,-0.16774 0.74558,-0.29238 0.942747,-0.49772 1.856891,-1.04783 2.785335,-1.57175 0,0 0.397893,-0.23083 0.397893,-0.23083 v 0 c 0.907484,-0.55854 1.829848,-1.0936 2.722452,-1.67563 0.217995,-0.14214 0.438615,-0.29349 0.604692,-0.49385 0.09107,-0.10987 -0.383821,-0.52854 -0.387049,-0.60557 -0.384095,-0.72455 -0.860221,-1.40387 -1.107522,-2.19551 -0.462351,-1.19761 -0.967769,-2.37657 -1.649558,-3.47031 -2.110221,-3.67907 -4.107397,-7.42273 -6.306142,-11.05075 -1.61257,-2.86814 -3.299495,-5.72406 -4.548257,-8.77383 -0.08372,-0.12819 -0.14729,-0.2721 -0.251176,-0.38458 -0.06193,-0.067 -0.178203,0.0401 -0.265896,0.0654 -0.528606,0.15262 -1.045853,0.34551 -1.590462,0.43953 -3.140074,0.61467 -6.335506,0.92486 -9.51998,1.20061 -3.841809,0.19175 -7.7878526,0.37667 -11.56426,-0.48406 0,0 -5.83004804,4.14478 -5.83004804,4.14478 z" />
    <path
       style="fill:#000000;stroke:#000000;stroke-width:2;stroke-opacity:0.996078"
       id="path1175"
       d="m 55.258557,254.52099 c -1.550866,-0.2407 -3.030519,-1.07745 -4.189667,-2.1227 -0.775771,-0.69955 -1.923108,-2.15488 -2.572893,-2.94332 -0.355647,-0.59201 -0.76522,-1.15481 -1.066943,-1.77604 -1.373425,-2.82782 -1.588844,-6.09818 -0.555889,-9.07998 0.268004,-0.77365 0.689401,-1.48531 1.034102,-2.22796 1.331593,-1.88365 1.552239,-2.44994 3.355404,-3.95924 0.682382,-0.57117 1.472795,-1.00029 2.185506,-1.53314 0.628057,-0.46956 -2.588125,0.91461 -1.931408,1.34317 0.800917,0.52266 1.818002,-0.60733 2.753341,-0.80679 0.936033,-0.19962 1.896687,-0.25805 2.84503,-0.38708 3.66181,-0.20578 7.341608,0.32084 10.640224,1.99859 1.966058,0.99998 2.387439,1.51097 4.040545,2.90028 2.592544,2.67613 4.15708,6.09833 4.683363,9.78021 0.09511,0.66538 0.105653,1.34012 0.158483,2.01017 0.03989,2.29572 -0.174855,4.60272 -1.210001,6.69094 -0.582094,1.17427 -1.04208,1.62758 -1.865751,2.65173 -0.380021,0.40668 -0.739318,0.83377 -1.140063,1.22005 -0.419886,0.40472 -0.855308,0.79568 -1.318628,1.14986 -0.493043,0.3769 -2.070177,1.36951 -1.54486,1.03908 1.270019,-0.79886 3.024659,-1.14792 3.779398,-2.44464 0.488453,-0.83922 -1.855978,0.58395 -2.807906,0.77551 -1.162465,0.23393 -2.348153,0.33221 -3.522231,0.49831 -5.561021,0.30757 -2.729566,0.2447 -8.494787,0.16847 0,0 -0.377846,0.26235 -0.377846,0.26235 v 0 c 3.259214,1.89225 1.575062,1.10873 5.04367,2.36937 1.456367,0.17241 3.54176,0.63418 5.008396,-0.007 5.045731,-2.20444 8.72422,-4.10044 12.202501,-7.97439 0.738912,-1.05922 1.234892,-1.62118 1.684197,-2.84201 0.713841,-1.93961 0.48895,-4.55578 0.272733,-6.56156 -0.121896,-0.65772 -0.217946,-1.32076 -0.365691,-1.97316 -0.651286,-2.87586 -1.806303,-5.79112 -3.678002,-8.10478 -0.507265,-0.62704 -1.122678,-1.15827 -1.684018,-1.73741 -1.905381,-1.46203 -2.162633,-1.81298 -4.3766,-2.87208 -3.667408,-1.75439 -7.060017,-2.20457 -11.088391,-2.01089 -1.492578,0.1743 -4.233034,0.36987 -5.649798,1.02309 -3.827643,1.76482 -8.022503,3.9055 -10.780583,7.26556 -0.57735,0.70337 -1.047017,1.48862 -1.570527,2.23292 -0.377976,0.80189 -0.850527,1.56568 -1.13393,2.40566 -0.968259,2.86985 -0.690031,6.81959 0.40137,9.62119 0.261059,0.67013 0.672595,1.27144 1.008893,1.90716 0.403895,0.55957 0.76036,1.15663 1.211684,1.6787 0.434609,0.50274 0.945845,0.93419 1.435523,1.38346 1.306613,1.19882 2.356644,2.01802 4.041071,2.56909 0,0 5.140979,-3.58117 5.140979,-3.58117 z" />
    <path
       style="fill:#000000;stroke:#000000;stroke-width:2;stroke-opacity:0.996078"
       id="path1177"
       d="m 74.844134,261.75079 c 3.129359,-0.18805 6.197989,0.5773 9.234437,1.22047 2.11365,0.35417 4.156009,1.03672 6.247585,1.47916 3.234449,1.04874 -7.487063,6.11911 7.312501,-3.73564 0.158105,-0.10528 -0.06895,-2.39472 -0.07371,-2.43982 -0.571473,-4.39423 -0.437972,-8.84116 0.08223,-13.23419 0.120941,-1.02134 0.299111,-2.03508 0.44867,-3.05263 0.395485,-2.11952 0.827113,-4.24026 1.367467,-6.32876 0.110289,-0.42627 0.384373,-1.49099 0.708216,-1.90885 0.13878,-0.17907 0.3609,-0.27395 0.54135,-0.41093 -12.080999,7.34576 -7.675121,4.21168 -5.206339,3.37896 2.654303,-0.8953 0.459947,0.13773 3.902523,-1.37759 1.107166,-0.48734 2.185806,-1.03711 3.278706,-1.55567 0,0 0.36846,-0.27539 0.36846,-0.27539 v 0 c 0.1098,-0.38481 0.38237,-0.75778 0.32941,-1.15443 -0.0322,-0.24074 -0.31161,-0.42364 -0.54773,-0.48053 -0.36659,-0.0883 -0.75333,0.0401 -1.12863,0.0766 -3.582845,0.3484 -3.067979,1.38301 -8.45978,4.60037 -0.29781,0.84882 -0.279712,1.41374 -0.338156,2.32058 -0.125886,1.95336 -0.210037,3.90836 -0.364233,5.86006 -0.519563,5.66029 -1.173451,11.30779 -1.727391,16.96493 -0.05439,0.41312 -0.101285,0.82728 -0.163158,1.23934 -0.02988,0.19904 -0.04166,0.40476 -0.112022,0.59333 -0.03567,0.0956 -0.286697,0.28278 -0.196844,0.23443 2.168641,-1.167 4.291957,-2.41655 6.451536,-3.60023 0.150471,-0.0825 -0.262004,0.23245 -0.421695,0.29523 -0.148183,0.0582 -0.31617,0.038 -0.474253,0.057 -2.401657,-0.19085 -4.80772,-0.33726 -7.180823,-0.79076 -2.987982,-0.48098 -5.966476,-0.99766 -8.936001,-1.58063 0,0 -4.942326,3.6056 -4.942326,3.6056 z" />
    <path
       style="fill:#000000;stroke:#000000;stroke-width:2;stroke-opacity:0.996078"
       id="path1179"
       d="m 48.434598,243.59789 c 2.010587,-0.61758 3.98613,-1.32082 6.050515,-1.74435 1.58554,-0.47334 3.174617,0.40708 4.762328,0.15845 0.940157,-0.14723 1.844241,-0.47017 2.766362,-0.70525 0,0 0.3849,-0.2519 0.3849,-0.2519 v 0 c 0.279342,-0.57646 0.776187,-1.0918 0.838023,-1.72938 0.122409,-1.26215 -3.36055,-1.1536 -4.026223,-1.04831 -1.962354,0.37539 -3.830897,1.04878 -5.761617,1.54384 0,0 -5.014288,3.7769 -5.014288,3.7769 z" />
    <path
       style="fill:#000000;stroke:#000000;stroke-width:2;stroke-opacity:0.996078"
       id="path1181"
       d="m 67.555612,245.68758 c 1.491117,-1.15137 4.160594,-2.95818 -3.15137,1.72568 -0.245272,0.15711 0.53545,-0.23292 0.814374,-0.31685 0.729591,-0.21955 0.922084,-0.18627 1.667185,-0.2262 1.573514,0.0913 3.087219,-0.33193 4.606816,-0.67009 0,0 0.387369,-0.24809 0.387369,-0.24809 v 0 c 0.22833,-0.47512 1.145188,-1.57802 0.520586,-2.28367 -0.17856,-0.20173 -0.505632,-0.18614 -0.758447,-0.27922 -0.312454,0.006 -0.626216,-0.0119 -0.937366,0.0173 -0.468529,0.0438 -1.45221,0.22825 -1.877544,0.45659 -2.274176,1.22089 -4.719875,2.37665 -6.730008,4.05942 0,0 5.458405,-2.23484 5.458405,-2.23484 z" />
    <path
       style="fill:#000000;stroke:#000000;stroke-width:2;stroke-opacity:0.996078"
       id="path1183"
       d="m 53.627048,261.89642 c 0.102635,0.31622 0.226113,0.62642 0.307901,0.94866 0.510543,2.01154 0.71986,4.1164 0.987065,6.16841 0.552585,4.24362 0.11388,1.34834 0.839058,5.74447 1.614667,5.41922 -0.124222,0.27316 2.064591,5.05828 0.310544,0.67892 0.513482,1.40205 0.770223,2.10307 0,0 0.406734,-0.21487 0.406734,-0.21487 v 0 c 0.02595,-0.84966 -0.0068,-1.7031 0.07783,-2.54892 0.759597,-7.59288 0.370326,1.1974 0.591388,-6.44329 -0.245655,-4.61566 -0.68099,-9.25746 -0.214407,-13.87381 0,0 -5.830383,3.058 -5.830383,3.058 z" />
    <path
       style="fill:#000000;stroke:#000000;stroke-width:2;stroke-opacity:0.996078"
       id="path1224"
       d="m 149.14507,231.46214 c 2.49815,1.84754 4.85226,3.86878 7.18399,5.92042 2.68207,2.4843 5.21415,5.12044 7.44571,8.01851 0.86233,1.03074 1.48782,2.23315 2.29297,3.30257 0.37785,0.50359 0.86712,0.76284 1.45226,0.96033 0.19201,0.0458 0.37863,0.13869 0.57602,0.13749 0.2978,-0.002 0.61847,-0.006 0.88136,-0.14637 2.74783,-1.46244 5.45987,-2.99716 8.1058,-4.63678 0.49668,-0.30778 0.86999,-0.78062 1.29078,-1.18603 1.9767,-1.90452 1.32531,-1.13284 2.65156,-3.26471 0.87327,-2.03115 0.41268,-1.0284 1.38133,-3.00845 0,0 -0.42368,0.17916 -0.42368,0.17916 v 0 c -3.44887,3.09698 -1.60438,1.50974 -5.55467,4.73694 -0.9884,0.80066 -1.98616,1.58989 -2.96519,2.40197 -0.68511,0.56829 -1.32827,1.187 -2.02676,1.73876 -0.5716,0.45153 -2.43287,1.59055 -1.7797,1.2681 1.994,-0.98438 3.88321,-2.16817 5.81918,-3.26227 0.21032,-0.11886 -0.41942,0.24231 -0.64193,0.33638 -0.11551,0.0488 -0.24362,0.0597 -0.36543,0.0895 -0.32581,-0.2772 -0.48759,-0.73624 -0.88483,-0.95323 -1.12226,-0.83071 -2.14643,-1.77696 -3.17189,-2.72372 -2.76497,-2.53021 -5.46788,-5.12983 -8.32718,-7.55458 -2.23751,-2.08576 -4.44372,-4.19723 -6.71107,-6.24879 0,0 -6.22863,3.89478 -6.22863,3.89478 z" />
    <path
       style="fill:#000000;stroke:#000000;stroke-width:2;stroke-opacity:0.996078"
       id="path1226"
       d="m 154.30826,229.48878 c -4.28818,1.07909 -8.18709,3.28866 -11.98819,5.47838 -6.59681,3.79633 -13.07469,7.79187 -19.59419,11.71798 -0.33565,0.30623 -1.87578,0.92888 -2.08823,1.42131 -0.33064,0.76636 0.57066,1.58513 0.97482,2.07407 1.20743,1.12001 2.045,2.60988 3.27919,3.70172 0.47002,0.41581 0.99484,0.77101 1.53648,1.08797 1.28477,0.75183 1.90205,0.85364 3.29507,1.27788 0.63271,0.002 1.26542,0.005 1.89813,0.007 0,0 0.38742,-0.248 0.38742,-0.248 v 0 c 0.0261,-0.40307 0.0523,-0.80613 0.0784,-1.20919 -0.081,-0.52298 -0.37321,-2.47921 -0.48915,-2.90808 -0.15153,-0.56049 -0.33489,-1.11692 -0.5869,-1.63999 -0.69133,-1.43495 -1.85043,-2.62587 -2.42514,-4.12821 -0.0211,-0.0493 -0.41938,-0.80589 -0.37243,-1.07996 0.007,-0.0405 1.62034,-1.11216 1.62092,-1.11671 2.31764,-1.54591 4.65434,-3.06042 7.022,-4.52896 0.95783,-0.59409 2.01164,-1.05228 2.8821,-1.76829 0.66375,-0.54597 -1.50275,0.8345 -2.25413,1.25174 3.339,-1.88866 6.72702,-3.79446 10.49957,-4.66924 0,0 6.32428,-4.72122 6.32428,-4.72122 z" />
    <path
       style="fill:#000000;stroke:#000000;stroke-width:2;stroke-opacity:0.996078"
       id="path1228"
       d="m 155.11174,227.46504 c -2.3764,-0.27692 -4.4359,-1.15409 -6.09815,-2.95197 -0.49613,-0.5366 -0.87072,-1.17397 -1.30608,-1.76095 -0.29188,-0.7141 -0.71198,-1.3884 -0.87564,-2.14229 -0.89525,-4.12398 1.30214,-8.72384 3.74304,-11.89664 0.79331,-1.03117 1.7427,-1.93226 2.61405,-2.89839 0.53839,-0.44796 5.08363,-4.47468 6.12497,-4.4047 1.07322,0.0721 -2.41636,0.88495 -2.57162,1.94933 -0.11307,0.7752 1.54874,-0.342 2.33101,-0.29979 1.99298,0.10755 2.50545,0.76715 4.08618,1.82984 0.51365,0.64568 1.10115,1.23896 1.54094,1.93705 1.97996,3.14287 2.53422,7.53241 1.90635,11.15159 -0.14587,0.84086 -0.45353,1.64547 -0.6803,2.46821 -1.25344,0.39685 -0.64726,2.24258 -1.495,2.94493 -0.51323,0.4252 -1.19324,0.59413 -1.78985,0.89119 0,0 -0.35925,0.28731 -0.35925,0.28731 v 0 c 2.3882,-1.19249 5.23742,-2.47391 7.27197,-4.19843 0.84527,-0.71647 1.38055,-1.73359 2.07083,-2.60038 0.36578,-0.9469 0.86496,-1.85256 1.09734,-2.84069 0.8222,-3.49619 -0.0592,-8.67932 -1.87995,-11.76488 -0.45454,-0.77031 -1.08891,-1.41922 -1.63336,-2.12883 -1.74082,-1.27093 -2.27502,-2.05704 -4.58241,-2.13603 -0.94387,-0.0323 -1.92998,0.0754 -2.79751,0.44867 -2.30819,0.99312 -7.82059,3.75041 -10.58384,5.97903 -0.93023,0.75025 -1.76371,1.6131 -2.64557,2.41965 -0.86402,0.99014 -1.79888,1.92268 -2.59207,2.97043 -2.66407,3.51906 -5.13959,8.22229 -4.41963,12.80385 0.12829,0.81635 0.53363,1.56423 0.80044,2.34634 0.3953,0.66022 0.73621,1.35621 1.18589,1.98066 1.11197,1.54418 2.97088,3.22371 4.86072,3.74547 0.24411,0.0674 0.50033,0.0787 0.75049,0.11807 0,0 5.92601,-4.24765 5.92601,-4.24765 z" />
  </g>
</svg>
