<?xml version="1.0" encoding="UTF-8" standalone="no"?>
<!-- Created with Inkscape (http://www.inkscape.org/) -->

<svg
   width="297mm"
   height="210mm"
   viewBox="0 0 297 210"
   version="1.1"
   id="svg5"
   inkscape:version="1.2 (56b05e47e7, 2022-06-09, custom)"
   sodipodi:docname="how_is_soil.svg"
   xmlns:inkscape="http://www.inkscape.org/namespaces/inkscape"
   xmlns:sodipodi="http://sodipodi.sourceforge.net/DTD/sodipodi-0.dtd"
   xmlns="http://www.w3.org/2000/svg"
   xmlns:svg="http://www.w3.org/2000/svg">
  <sodipodi:namedview
     id="namedview7"
     pagecolor="#ffffff"
     bordercolor="#666666"
     borderopacity="1.0"
     inkscape:showpageshadow="2"
     inkscape:pageopacity="0.0"
     inkscape:pagecheckerboard="0"
     inkscape:deskcolor="#d1d1d1"
     inkscape:document-units="mm"
     showgrid="false"
     inkscape:zoom="0.75722503"
     inkscape:cx="597.57666"
     inkscape:cy="330.81315"
     inkscape:window-width="1846"
     inkscape:window-height="1016"
     inkscape:window-x="74"
     inkscape:window-y="27"
     inkscape:window-maximized="1"
     inkscape:current-layer="layer1" />
  <defs
     id="defs2">
    <rect
       x="594.27779"
       y="38.735207"
       width="532.16843"
       height="94.673062"
       id="rect4010" />
    <rect
       x="61.278456"
       y="81.02121"
       width="429.45321"
       height="160.24322"
       id="rect3932" />
    <rect
       x="433.69107"
       y="339.13605"
       width="215.01349"
       height="113.50769"
       id="rect2970" />
  </defs>
  <g
     inkscape:label="Layer 1"
     inkscape:groupmode="layer"
     id="layer1">
    <text
       xml:space="preserve"
       transform="matrix(0.26458333,0,0,0.26458333,8.6320743,8.1312025)"
       id="text2968"
       style="font-style:normal;font-weight:normal;font-size:40px;line-height:1.25;font-family:sans-serif;white-space:pre;shape-inside:url(#rect2970);fill:#000000;fill-opacity:1;stroke:none"><tspan
         x="433.69141"
         y="374.52734"
         id="tspan4098">instead</tspan></text>
    <path
       style="fill:none;stroke:#000000;stroke-width:4.265;stroke-linecap:butt;stroke-linejoin:miter;stroke-opacity:1;stroke-dasharray:none"
       d="m 144.55843,2.5711216 -0.33791,95.0172964 m 0.61708,12.890512 -0.0435,102.36754"
       id="path3928" />
    <text
       xml:space="preserve"
       transform="scale(0.26458333)"
       id="text3930"
       style="font-style:normal;font-weight:normal;font-size:40px;line-height:1.25;font-family:sans-serif;white-space:pre;shape-inside:url(#rect3932);fill:#000000;fill-opacity:1;stroke:none"><tspan
         x="61.279297"
         y="116.41211"
         id="tspan4100">how is the weather?</tspan></text>
    <path
       style="fill:#000000;fill-opacity:1;stroke:#000000;stroke-width:4.265;stroke-dasharray:none;stroke-opacity:1"
       id="path3936"
       d="m 21.535606,87.278167 c -0.565342,-2.233719 -0.79559,-4.53508 -0.949682,-6.828251 -0.09013,-2.895544 0.05511,-5.862042 0.911283,-8.652068 0.151556,-0.493876 0.362621,-0.967491 0.543931,-1.451237 0.525066,-1.30362 1.426673,-2.274699 2.536587,-3.107226 0.330632,-0.248002 1.39027,-0.893972 1.03503,-0.682721 -2.841835,1.689947 -2.744005,1.566738 -0.984906,0.902335 1.530111,-0.416054 3.156928,-0.636206 4.651723,0.04435 1.116772,0.508452 1.388491,0.901009 2.314993,1.744734 2.3002,2.443308 3.682905,5.493713 4.882136,8.581876 0.584798,1.64188 1.109435,3.361746 1.155182,5.120865 0.02937,1.129319 -0.08608,1.443321 -0.28697,2.539077 -0.53867,1.43605 -1.406543,2.73001 -2.588458,3.723753 -0.469874,0.395068 -1.450817,0.439577 -1.512795,1.050328 -0.06004,0.591685 1.991405,-0.620041 1.503664,-0.96034 -0.556112,-0.387998 -1.280716,0.446077 -1.921073,0.669113 -2.714864,0.683654 -5.575954,0.878975 -8.307457,0.157919 -0.389045,-0.102698 -0.764086,-0.252558 -1.146129,-0.378839 -1.440196,-0.56352 -2.588341,-1.581856 -3.096927,-3.054077 0,0 -3.43682,1.907056 -3.43682,1.907056 v 0 c 0.604578,1.549826 1.814686,2.684618 3.360712,3.299198 0.396119,0.134411 0.7848,0.293145 1.188356,0.40323 2.783392,0.759288 5.710401,0.591005 8.495823,-0.04967 3.44425,-1.078627 2.160635,-0.528021 6.845906,-3.372218 1.929415,-1.171252 3.334033,-2.948694 4.054006,-5.075515 0.17593,-1.127456 0.285261,-1.474409 0.238996,-2.631826 -0.07146,-1.787864 -0.610638,-3.53744 -1.223151,-5.201817 -1.254503,-3.120626 -2.697932,-6.201288 -4.986657,-8.713586 -0.975381,-0.948873 -1.178753,-1.301385 -2.359396,-1.904373 -1.527598,-0.780188 -3.186258,-0.642723 -4.804312,-0.258189 -2.627375,0.901978 -1.411211,0.407718 -5.603704,2.858244 -1.095349,0.640236 -2.150865,1.624761 -2.818382,2.705743 -0.249892,0.404675 -0.413345,0.856726 -0.620017,1.285089 -0.171886,0.495326 -0.372292,0.98166 -0.515656,1.485982 -0.805292,2.832849 -0.946123,5.821757 -0.853905,8.746789 0.12949,2.335302 0.353771,4.665808 0.807056,6.963288 0,0 3.491013,-1.867016 3.491013,-1.867016 z" />
    <path
       style="fill:#000000;fill-opacity:1;stroke:#000000;stroke-width:4.265;stroke-dasharray:none;stroke-opacity:1"
       id="path3938"
       d="m 27.993223,97.937623 c 0.939335,7.626547 0.96705,15.342767 0.956392,23.017087 -0.149106,5.34091 -0.12364,10.71996 -0.842896,16.02641 -0.104804,0.7732 -0.249775,1.54042 -0.374661,2.31063 -0.25604,1.18849 -0.489032,2.46611 -0.8867,3.62439 -0.150712,0.43896 -0.362329,0.85459 -0.543493,1.28189 0,0 3.459897,-1.60073 3.459897,-1.60073 v 0 c 0.597532,-1.60059 1.047191,-3.22707 1.278662,-4.92761 0.294466,-1.98813 0.449085,-2.8077 0.609317,-4.84702 0.34988,-4.45304 0.227415,-8.93305 0.293238,-13.3938 -0.03742,-7.78048 -0.116716,-15.56759 -0.479364,-23.340063 0,0 -3.470392,1.848816 -3.470392,1.848816 z" />
    <path
       style="fill:#000000;fill-opacity:1;stroke:#000000;stroke-width:4.265;stroke-dasharray:none;stroke-opacity:1"
       id="path3942"
       d="m 33.600181,118.34327 c 3.814286,-2.66821 7.547633,-5.44457 11.20599,-8.32223 1.989828,-1.58097 3.949618,-3.24176 5.587143,-5.1981 1.339045,-1.59975 2.388994,-3.39424 3.434569,-5.189327 1.027732,-1.902148 0.550021,-0.984967 1.440061,-2.747928 0,0 -3.473122,1.571966 -3.473122,1.571966 v 0 c -0.85004,1.730139 -0.389863,0.829254 -1.38934,2.698129 -0.755648,1.29704 -1.18454,2.09727 -2.067576,3.33785 -1.893559,2.66027 -4.303128,4.86633 -6.871015,6.86397 -3.741266,2.93258 -7.572682,5.74361 -11.501474,8.42076 0,0 3.634764,-1.43509 3.634764,-1.43509 z" />
    <path
       style="fill:#000000;fill-opacity:1;stroke:#000000;stroke-width:4.265;stroke-dasharray:none;stroke-opacity:1"
       id="path3944"
       d="m 24.770476,119.18888 c -0.30808,0.2383 -0.627628,0.46247 -0.92424,0.7149 -2.724438,2.31863 -5.294944,4.82407 -7.866693,7.30735 -2.362708,2.28143 -4.715331,4.57328 -7.0734702,6.85943 -1.0417786,1.00773 -2.0835572,2.01546 -3.1253358,3.02319 0,0 3.1601909,-1.30402 3.1601909,-1.30402 v 0 c 1.0185345,-0.99796 2.0370691,-1.99592 3.0556041,-2.99388 2.972961,-2.88871 4.100988,-3.99974 7.125922,-6.87746 2.687494,-2.5567 5.381382,-5.12162 8.28912,-7.43099 0.328763,-0.26111 0.682061,-0.48974 1.023091,-0.73461 0,0 -3.664189,1.43609 -3.664189,1.43609 z" />
    <path
       style="fill:#000000;fill-opacity:1;stroke:#000000;stroke-width:4.265;stroke-dasharray:none;stroke-opacity:1"
       id="path3952"
       d="m 29.859234,147.2745 c 2.855196,8.44017 5.551318,16.93358 8.164267,25.45156 0.886899,3.34327 2.174814,6.59945 2.776722,10.01635 0.100097,0.56822 0.152853,1.14378 0.229278,1.71567 0,0 3.33013,-1.75816 3.33013,-1.75816 v 0 c -0.245613,-1.54658 -0.29609,-2.12345 -0.727072,-3.68267 -0.742101,-2.68481 -1.807425,-5.27744 -2.587549,-7.95026 -2.812975,-8.47501 -5.623464,-16.96003 -7.861077,-25.60932 0,0 -3.324699,1.81683 -3.324699,1.81683 z" />
    <path
       style="fill:#000000;fill-opacity:1;stroke:#000000;stroke-width:4.265;stroke-dasharray:none;stroke-opacity:1"
       id="path3956"
       d="m 23.251858,147.86523 c -6.403696,4.49597 -12.682621,9.18079 -19.2523936,13.43657 -1.6100897,1.04299 -3.26109927,2.02141 -4.89164883,3.03212 0,0 3.01013743,-1.16702 3.01013743,-1.16702 v 0 c 1.6090337,-1.0065 3.2366556,-1.98389 4.8271009,-3.01952 6.7654961,-4.40542 13.2411831,-9.23932 19.9640311,-13.70678 0,0 -3.657227,1.42463 -3.657227,1.42463 z" />
    <path
       style="fill:none;stroke:#000000;stroke-width:2.265;stroke-linecap:butt;stroke-linejoin:miter;stroke-opacity:1;stroke-dasharray:none"
       d="M 46.39791,67.125532 C 68.803429,52.027452 66.667824,37.031461 66.667824,37.031461 l -0.866109,0.426199"
       id="path3966" />
    <path
       style="fill:#000000;fill-opacity:1;stroke:#000000;stroke-width:2.265;stroke-dasharray:none;stroke-opacity:1"
       id="path3968"
       d="m 96.648226,164.62341 c -3.015694,-2.70225 -4.52016,-6.61256 -5.86188,-10.32915 -0.724525,-2.67859 -1.510557,-5.5826 -0.885479,-8.36979 0.07829,-0.34908 0.208934,-0.68432 0.313399,-1.02648 0.59104,-1.53506 1.622034,-2.76733 2.83237,-3.84666 0.0912,-0.0693 0.810583,-0.61774 0.910079,-0.68651 0.144238,-0.0997 0.596467,-0.3687 0.444474,-0.28129 -5.356587,3.08055 -3.165938,1.80156 -1.922328,1.20065 1.514084,-0.78203 3.12809,-1.25796 4.785882,-1.61474 2.490435,-0.49258 4.837747,-0.59876 7.358097,-0.34452 2.50391,0.29287 4.25965,1.03598 6.29774,2.47201 1.92889,1.54327 3.00037,3.75564 3.82349,6.02779 0.90725,2.73361 1.25283,5.60071 1.42813,8.46226 0.0178,2.10801 0.0517,4.33284 -0.79498,6.3134 -0.1614,0.37752 -0.38341,0.72614 -0.57511,1.08921 1.05319,0.2203 -3.42599,2.15899 -2.38216,2.05598 0.62924,-0.0621 1.70335,-0.39416 1.60055,-1.01805 -0.0971,-0.58916 -1.09423,0.48049 -1.65559,0.68398 -1.51887,0.5506 -1.68856,0.51721 -3.2595,0.81203 -2.44893,0.35053 -4.89892,0.0718 -7.26923,-0.5742 -1.32464,-0.36795 -2.486518,-1.04499 -3.536943,-1.91367 -0.09933,-0.0897 -0.198649,-0.17933 -0.297971,-0.269 0,0 -3.351546,2.08005 -3.351546,2.08005 v 0 c 0.105188,0.0929 0.210378,0.18576 0.315566,0.27865 1.104781,0.88956 2.29889,1.61775 3.674158,2.0188 2.427376,0.66388 4.938716,0.96692 7.451716,0.65061 0.55525,-0.0913 1.11725,-0.14839 1.66577,-0.274 0.781,-0.17885 2.639,-0.77791 3.33803,-1.14141 1.52835,-0.79476 4.54729,-2.26409 6.16582,-3.7917 0.37936,-0.35805 0.68832,-0.784 1.03248,-1.176 0.18445,-0.38222 0.39851,-0.75152 0.55334,-1.14667 0.7984,-2.03769 0.74391,-4.27868 0.70087,-6.42536 -0.19729,-2.89542 -0.54143,-5.79919 -1.45843,-8.5672 -0.83501,-2.34457 -1.97293,-4.61849 -3.91647,-6.24448 -2.05371,-1.46592 -3.8919,-2.31543 -6.43286,-2.61619 -0.9647,-0.11323 -1.63352,-0.21886 -2.60521,-0.22615 -1.60404,-0.012 -3.21056,0.23544 -4.79405,0.45397 -1.656567,0.31387 -3.27392,0.73774 -4.789562,1.49841 -2.165691,1.0009 -4.311314,2.13207 -6.123212,3.69544 -1.187789,1.13482 -2.164916,2.44254 -2.693294,4.01917 -0.09195,0.35664 -0.211085,0.70736 -0.27585,1.06992 -0.507478,2.84104 0.355198,5.74672 1.121678,8.44979 1.397439,3.76119 2.891747,7.68806 5.725167,10.62733 0,0 3.342849,-2.07623 3.342849,-2.07623 z" />
    <path
       style="fill:#000000;fill-opacity:1;stroke:#000000;stroke-width:2.265;stroke-dasharray:none;stroke-opacity:1"
       id="path3970"
       d="m 99.738639,173.9957 c -1.835613,8.67592 -3.436636,17.3984 -5.105064,26.10721 -1.110313,5.27378 -2.064374,10.59217 -3.440025,15.80654 0,0 3.462554,-1.66264 3.462554,-1.66264 v 0 c 1.119341,-5.17652 1.934147,-10.41607 2.984514,-15.60645 1.618038,-8.8076 3.206162,-17.63456 5.523152,-26.29176 0,0 -3.425131,1.6471 -3.425131,1.6471 z" />
    <path
       style="fill:#000000;fill-opacity:1;stroke:#000000;stroke-width:2.265;stroke-dasharray:none;stroke-opacity:1"
       id="path3972"
       d="m 91.376914,194.00698 c -4.349689,-4.29605 -8.060317,-9.19496 -11.6835,-14.10421 -2.297988,-3.12049 -4.290509,-6.45347 -5.907108,-9.97408 -0.08956,-0.20664 -0.179126,-0.41328 -0.268687,-0.61992 0,0 -3.401912,1.92474 -3.401912,1.92474 v 0 c 0.101346,0.20269 0.202692,0.40538 0.304035,0.60807 1.794886,3.45726 3.870997,6.76355 6.22858,9.86708 3.676711,4.88445 7.45226,9.69791 11.383656,14.38028 0,0 3.344936,-2.08196 3.344936,-2.08196 z" />
    <path
       style="fill:#000000;fill-opacity:1;stroke:#000000;stroke-width:2.265;stroke-dasharray:none;stroke-opacity:1"
       id="path3976"
       d="m 97.783252,192.57508 c 6.507348,3.87072 12.269658,8.86878 18.027048,13.75116 1.12595,0.98169 2.25189,1.96337 3.37784,2.94506 0,0 2.8809,-1.79534 2.8809,-1.79534 v 0 c -1.14468,-0.971 -2.28936,-1.942 -3.43404,-2.913 -5.73382,-4.84929 -11.40919,-9.80587 -17.57068,-14.11293 0,0 -3.281068,2.12505 -3.281068,2.12505 z" />
    <path
       style="fill:#000000;fill-opacity:1;stroke:#000000;stroke-width:2.265;stroke-dasharray:none;stroke-opacity:1"
       id="path3980"
       d="m 189.88845,118.13093 c -1.42958,7.90821 -3.49923,15.68422 -5.66136,23.41807 -1.36311,4.78935 -3.07135,9.46445 -4.8186,14.12278 0,0 3.12831,-1.45947 3.12831,-1.45947 v 0 c 1.61834,-4.64508 3.20982,-9.30064 4.5664,-14.03089 2.22838,-7.89387 4.38139,-15.81111 6.3132,-23.78257 0,0 -3.52795,1.73208 -3.52795,1.73208 z" />
    <path
       style="fill:#000000;fill-opacity:1;stroke:#000000;stroke-width:2.265;stroke-dasharray:none;stroke-opacity:1"
       id="path3982"
       d="m 194.1152,119.93037 c 5.17873,6.26357 9.75269,12.9848 14.18348,19.7877 2.13552,3.38794 1.1489,1.7907 2.97009,4.78538 0,0 3.17071,-1.84902 3.17071,-1.84902 v 0 c -1.94911,-2.92605 -0.90046,-1.36222 -3.15037,-4.68854 -4.56764,-6.7042 -9.1832,-13.37429 -13.88397,-19.986 0,0 -3.28994,1.95048 -3.28994,1.95048 z" />
    <path
       style="fill:#000000;fill-opacity:1;stroke:#000000;stroke-width:2.265;stroke-dasharray:none;stroke-opacity:1"
       id="path3986"
       d="m 193.46654,116.61614 c 0.71036,-6.45488 0.94299,-12.95368 1.392,-19.430858 0.65516,-8.651944 1.31227,-17.306689 1.6182,-25.97926 0.018,-0.711721 0.036,-1.423445 0.054,-2.135169 0,0 -3.31149,1.684401 -3.31149,1.684401 v 0 c 0.008,0.696503 0.0165,1.393002 0.0247,2.089505 -0.0515,8.618614 -0.61779,17.221379 -1.32203,25.809109 -0.59765,7.362532 -0.24255,3.146542 -0.85599,10.115882 -0.28113,3.19398 -0.52097,6.40119 -1.09438,9.55993 0,0 3.49497,-1.71354 3.49497,-1.71354 z" />
    <path
       style="fill:#000000;fill-opacity:1;stroke:#000000;stroke-width:2.265;stroke-dasharray:none;stroke-opacity:1"
       id="path3988"
       d="m 191.88895,68.013036 c -2.17176,-2.983127 -3.19503,-6.206625 -2.89742,-9.935072 0.0764,-0.95775 0.32547,-1.893827 0.48821,-2.840742 1.02764,-3.723285 2.48413,-7.691574 5.16639,-10.579317 0.36403,-0.391917 0.79476,-0.716118 1.19214,-1.074177 0.40283,-0.257324 1.57605,-1.07759 1.2085,-0.771971 -0.63174,0.525307 -1.59345,0.722782 -2.00473,1.434048 -0.20842,0.360435 0.82768,-0.138429 1.24352,-0.117607 1.60695,0.08046 2.47074,1.131917 3.48998,2.225852 1.85665,2.705048 2.95113,5.886602 3.23059,9.157439 0.0554,0.648293 0.0382,1.30075 0.0573,1.951125 -0.0755,2.410227 -0.50094,4.797335 -1.64603,6.944858 -0.23333,0.437575 -0.47271,0.881927 -0.80083,1.253751 -0.31869,0.361154 -0.74385,0.612114 -1.11577,0.918171 0.65062,-0.409001 1.30124,-0.817999 1.95186,-1.226997 0,0 -2.96474,2.382083 -2.96474,2.382083 v 0 c 1.51173,-0.863201 3.02346,-1.726401 4.53519,-2.589599 0.35591,-0.340008 0.76293,-0.633534 1.06774,-1.020021 0.30919,-0.392039 0.53594,-0.844881 0.75636,-1.292882 1.08824,-2.211773 1.49397,-4.629041 1.53776,-7.075778 -0.0248,-0.663348 -0.0118,-1.329193 -0.0744,-1.990042 -0.31672,-3.342378 -1.47056,-6.568222 -3.30674,-9.369692 -0.74002,-0.830741 -1.35637,-1.691442 -2.38123,-2.20947 -2.73115,-1.380502 -6.15404,1.348415 -8.28487,2.83392 -0.3809,0.373092 -0.79368,0.716198 -1.1427,1.119276 -2.58021,2.979885 -3.97326,6.935943 -4.95592,10.680813 -0.15951,0.970179 -0.40544,1.930056 -0.47851,2.910541 -0.11751,1.57688 0.0874,3.870957 0.48646,5.410438 0.45149,1.741538 1.40174,3.332419 2.26239,4.890921 0,0 3.37951,-2.019869 3.37951,-2.019869 z" />
    <path
       style="fill:#000000;fill-opacity:1;stroke:#000000;stroke-width:2.265;stroke-dasharray:none;stroke-opacity:1"
       id="path3990"
       d="m 196.77463,82.457981 c 3.68213,2.068354 7.05506,4.713793 10.17321,7.552611 1.01535,0.924393 1.98136,1.901576 2.97204,2.852364 5.44083,5.506252 10.13574,11.684604 14.64609,17.958324 1.36009,1.90232 2.68766,3.82743 4.01194,5.75472 0,0 3.2287,-1.90557 3.2287,-1.90557 v 0 c -1.39449,-1.88587 -2.78488,-3.77476 -4.17553,-5.66347 -4.63483,-6.21054 -9.32966,-12.417975 -14.77761,-17.948531 -0.98587,-0.960133 -1.95317,-1.93971 -2.95762,-2.880399 -3.05926,-2.865086 -6.33414,-5.529117 -9.80612,-7.878189 0,0 -3.3151,2.15814 -3.3151,2.15814 z" />
    <path
       style="fill:#000000;fill-opacity:1;stroke:#000000;stroke-width:2.265;stroke-dasharray:none;stroke-opacity:1"
       id="path3996"
       d="m 189.86398,88.714388 c -2.59072,1.969045 -5.02711,4.136342 -7.46654,6.287883 -2.84837,2.623556 -5.63313,5.330759 -8.06782,8.347609 -0.73644,0.94915 -1.41841,1.93763 -2.03279,2.96951 0,0 3.58632,-1.5921 3.58632,-1.5921 v 0 c 0.58596,-0.99643 1.2317,-1.95577 1.94209,-2.86858 2.42162,-2.984801 5.16738,-5.684978 8.01866,-8.257998 2.49298,-2.181505 4.97814,-4.390749 7.66997,-6.326732 0,0 -3.64989,1.440408 -3.64989,1.440408 z" />
    <path
       style="fill:#000000;fill-opacity:1;stroke:#000000;stroke-width:2.265;stroke-dasharray:none;stroke-opacity:1"
       id="path3998"
       d="m 229.06303,145.39912 c 1.87015,-2.10311 3.9915,-3.96435 6.08536,-5.83846 1.36516,-1.19333 2.72043,-2.4018 4.20538,-3.44649 0.25516,-0.17951 1.04124,-0.6875 0.77608,-0.52313 -0.8663,0.537 -1.71993,1.09418 -2.5799,1.64127 0.24186,0.003 0.49182,-0.0519 0.72556,0.0103 1.17108,0.31162 2.02915,1.95963 2.5663,2.88779 0.71415,1.23401 1.14614,2.20905 1.76022,3.49824 0.78657,1.77096 0.6727,1.48595 1.3771,3.17465 0.19479,0.46695 0.72173,2.22326 1.34275,2.43122 0.1817,0.0608 0.38149,-0.0365 0.57223,-0.0548 1.26814,-0.88999 2.6429,-1.64473 3.80441,-2.66999 0.33723,-0.29767 0.3938,-0.80886 0.59343,-1.21195 0.24111,-0.48685 0.45329,-0.98957 0.72877,-1.45782 0.73344,-1.24673 1.54333,-2.30388 2.55116,-3.34741 0.52842,-0.54714 1.11786,-1.03187 1.6768,-1.54781 0.70232,-0.43133 1.34813,-0.97234 2.10698,-1.29401 0.33911,-0.14375 -1.18318,0.74552 -0.81486,0.74629 0.81405,0.002 1.53249,-0.56291 2.32634,-0.74312 1.41065,-0.32022 3.19116,-0.45849 4.63614,-0.24037 0.70082,0.10579 1.36697,0.37529 2.05046,0.56293 2.81197,1.17403 4.58457,3.12547 5.94559,5.77166 2.6842,1.5527 4.11437,-1.69501 4.78986,-3.49749 0,0 -3.53494,1.636 -3.53494,1.636 v 0 c -0.099,0.23568 -0.18227,0.47864 -0.29708,0.70705 -0.10734,0.21356 -0.59491,0.68985 -0.36774,0.61559 0.98652,-0.32245 4.35104,-1.9928 2.78265,-1.39706 -1.52533,-2.65774 -3.35923,-4.70849 -6.25891,-5.93124 -0.70411,-0.20804 -1.38848,-0.50124 -2.11232,-0.6241 -5.42411,-0.92069 -10.35376,2.24991 -14.66666,5.08947 -0.55578,0.52988 -1.14187,1.02969 -1.66734,1.58966 -1.04256,1.11102 -1.81361,2.15708 -2.59008,3.45853 -0.28281,0.47401 -0.50207,0.9833 -0.76592,1.46812 -0.21864,0.40174 -1.13767,1.22147 -0.6813,1.19107 1.04118,-0.0694 1.88791,-0.88956 2.83186,-1.33433 -0.10738,0.13586 -0.15523,0.36148 -0.32215,0.40759 -0.42042,0.11612 -0.64236,-0.6163 -0.8344,-1.0079 -0.69705,-1.42137 -1.25095,-2.91205 -1.95734,-4.32936 -0.63781,-1.35209 -1.03107,-2.24403 -1.75386,-3.54832 -0.60074,-1.08402 -1.40089,-2.75202 -2.6448,-3.25683 -0.25973,-0.10541 -0.55237,-0.0957 -0.82856,-0.14362 -1.36572,0.72256 -2.74686,1.41669 -4.09717,2.16768 -0.26628,0.1481 -0.50151,0.34634 -0.74718,0.52658 -1.44892,1.06302 -2.77793,2.27411 -4.13054,3.4542 -2.12803,1.91298 -4.27504,3.8181 -6.19723,5.94265 0,0 3.61485,-1.53295 3.61485,-1.53295 z" />
    <path
       style="fill:#000000;fill-opacity:1;stroke:#000000;stroke-width:2.265;stroke-dasharray:none;stroke-opacity:1"
       id="path4002"
       d="m 258.27812,196.92315 c -2.01382,-2.06796 -3.25107,-4.66015 -3.99931,-7.42981 -0.24049,-0.89021 -0.46589,-1.7925 -0.55327,-2.71048 -0.0908,-0.95438 0.0143,-1.91734 0.0215,-2.87601 0.16249,-0.93669 0.24694,-1.89032 0.48749,-2.81006 0.66509,-2.54296 1.95688,-5.08474 3.58724,-7.14648 1.28511,-1.62516 1.76284,-1.85087 3.35147,-3.09111 -0.39177,0.26129 -1.64608,0.77186 -1.17532,0.78388 0.73343,0.0187 1.36064,-0.55657 2.06521,-0.76116 0.689,-0.20008 1.3905,-0.38333 2.10488,-0.44977 1.59448,-0.14829 3.58608,0.0799 5.10783,0.52354 1.08212,0.31548 2.10765,0.79984 3.16148,1.19976 5.14702,2.50996 9.99842,5.88462 13.50092,10.48541 0.48504,0.63715 0.87845,1.33912 1.31765,2.00867 0.27573,0.61072 0.64564,1.18714 0.82714,1.83215 0.49385,1.75486 0.004,3.58409 -0.98298,5.06591 -0.79578,1.19511 -1.66671,1.89789 -2.70319,2.87025 -0.57819,0.39965 -1.22941,0.71023 -1.73456,1.19895 -0.37409,0.36195 1.85336,-0.84951 1.33419,-0.81159 -0.66574,0.0486 -1.19628,0.59551 -1.81475,0.84669 -1.07394,0.43618 -2.56815,0.89899 -3.717,1.1057 -0.61087,0.10991 -1.23335,0.14084 -1.85002,0.21126 -3.97481,0.20889 -6.68586,-1.25414 -9.98003,-3.21654 0,0 -3.15211,2.04013 -3.15211,2.04013 v 0 c 3.37455,2.02572 6.03591,3.54207 10.12351,3.40998 0.62762,-0.0581 1.26061,-0.0737 1.8828,-0.17434 4.54949,-0.7362 8.70252,-3.3987 12.35605,-6.03005 1.05235,-1.03146 1.89756,-1.7328 2.67869,-3.00528 0.97563,-1.58934 1.36919,-3.53634 0.80158,-5.34626 -0.20571,-0.65598 -0.60079,-1.23676 -0.90117,-1.85514 -0.46381,-0.67299 -0.88283,-1.37917 -1.39147,-2.01896 -3.62635,-4.5615 -8.50881,-7.95982 -13.65118,-10.58989 -1.04134,-0.43479 -2.05028,-0.95731 -3.12404,-1.30438 -1.407,-0.45478 -3.62966,-0.78112 -5.13376,-0.68508 -0.72551,0.0463 -1.43925,0.22468 -2.14167,0.41205 -2.96656,0.79132 -4.11893,1.86237 -7.24519,3.63409 -1.55897,1.28942 -2.0146,1.51924 -3.26938,3.18072 -1.59647,2.11392 -2.84554,4.69144 -3.47832,7.26364 -0.2306,0.93737 -0.30453,1.90647 -0.45679,2.85971 -5.3e-4,0.98352 -0.10033,1.97198 -0.002,2.95056 0.0937,0.93088 0.33274,1.84357 0.5752,2.7472 0.7716,2.8757 1.94161,5.41156 3.80458,7.73202 0,0 3.36795,-2.04988 3.36795,-2.04988 z" />
    <path
       style="fill:#000000;fill-opacity:1;stroke:#000000;stroke-width:2.265;stroke-dasharray:none;stroke-opacity:1"
       id="path4004"
       d="m 261.28059,198.09544 c -2.99935,5.3301 -5.78193,10.77506 -8.52159,16.24185 -1.74438,3.54901 -0.91479,1.8585 -2.48934,5.07125 0,0 3.33323,-1.51506 3.33323,-1.51506 v 0 c 1.48036,-3.17288 0.69345,-1.50254 2.36509,-5.00898 2.74662,-5.57437 5.58055,-11.11481 8.89433,-16.37888 0,0 -3.58172,1.58982 -3.58172,1.58982 z" />
    <path
       style="fill:#000000;fill-opacity:1;stroke:#000000;stroke-width:2.265;stroke-dasharray:none;stroke-opacity:1"
       id="path4006"
       d="m 248.98382,205.61754 c -4.85758,-4.12718 -9.77707,-8.22529 -14.13455,-12.89309 -1.09438,-1.17232 -2.12285,-2.40448 -3.18428,-3.60672 -2.92074,-3.34795 -5.33877,-7.06851 -7.73396,-10.79473 0,0 -2.98303,1.74495 -2.98303,1.74495 v 0 c 2.47231,3.69566 4.91871,7.42287 7.84902,10.78212 2.71748,3.10181 3.52272,4.13414 6.44016,7.01995 3.40046,3.36359 7.0888,6.42624 10.52782,9.74908 0,0 3.21882,-2.00156 3.21882,-2.00156 z" />
    <text
       xml:space="preserve"
       transform="scale(0.26458333)"
       id="text4008"
       style="font-style:normal;font-weight:normal;font-size:40px;line-height:1.25;font-family:sans-serif;white-space:pre;shape-inside:url(#rect4010);fill:#000000;fill-opacity:1;stroke:none"><tspan
         x="594.27734"
         y="74.125"
         id="tspan4102">How is the soil?</tspan></text>
    <path
       style="fill:none;stroke:#000000;stroke-width:1.265;stroke-linecap:butt;stroke-linejoin:miter;stroke-opacity:1;stroke-dasharray:none"
       d="m 213.43627,47.446818 c 15.30653,-22.901996 4.35094,-24.402394 4.35094,-24.402394 l -1.65435,-0.32623"
       id="path4014" />
    <path
       style="fill:#000000;fill-opacity:1;stroke:#000000;stroke-width:0.265;stroke-dasharray:none;stroke-opacity:1"
       id="path4016"
       d="m 267.35593,132.41841 c 0.80914,-1.77056 1.58451,-3.55111 2.22318,-5.39093 0.51483,-1.608 0.85839,-3.27194 0.89138,-4.96185 -0.0415,-1.15428 -0.15634,-2.30399 -0.2219,-3.457 -0.0467,-0.83631 -0.0572,-1.67398 -0.0549,-2.5114 0,-0.1161 0.003,-0.23221 0.003,-0.34831 0,0 -3.52182,1.79578 -3.52182,1.79578 v 0 c 0.003,0.11506 0.003,0.23012 0.005,0.34518 0.0114,0.84444 0.003,1.69045 0.0685,2.53293 0.094,1.13377 0.21031,2.26746 0.23685,3.40525 -0.0685,1.6465 -0.37327,3.27037 -0.89974,4.834 -0.6509,1.8523 -1.44899,3.64104 -2.32198,5.39929 0,0 3.59222,-1.64294 3.59222,-1.64294 z" />
    <path
       style="fill:#000000;fill-opacity:1;stroke:#000000;stroke-width:0.264999;stroke-dasharray:none;stroke-opacity:1"
       id="path4018"
       d="m 271.0435,113.67369 c -1.27981,-0.46892 -2.55368,-1.06673 -3.59349,-1.96704 -0.30731,-0.2661 -0.57867,-0.57113 -0.86799,-0.85669 -0.77766,-0.86865 -1.43164,-1.83555 -1.98718,-2.85879 -0.14536,-0.26776 -0.31243,-0.52865 -0.40768,-0.81804 -0.2583,-0.78478 -0.14597,-1.08764 -0.0754,-1.89867 0.31484,-1.28175 1.12456,-2.28509 2.12892,-3.11737 0.38481,-0.3189 1.68722,-1.05843 1.22899,-0.85886 -0.69932,0.30459 -1.37922,0.68563 -1.96178,1.17802 -0.34089,0.28812 0.81349,-0.36749 1.22023,-0.55124 1.44521,-0.46721 3.04612,-1.21696 4.61264,-0.90481 0.22664,0.0452 0.4391,0.14438 0.65866,0.21657 1.23422,0.63576 1.68028,1.45187 1.8443,2.78578 0.0787,1.45694 -0.29099,2.86949 -0.77732,4.22819 -0.45844,1.20569 -1.03198,2.36393 -1.73889,3.44256 -0.24279,0.34111 -0.4857,0.69391 -0.79841,0.97705 -0.95549,0.86514 -3.52174,2.18536 2.17699,-1.1644 -0.56568,0.26792 -0.28525,0.15035 -0.83955,0.35678 0,0 -3.11044,2.41986 -3.11044,2.41986 v 0 c 0.58367,-0.18146 0.28678,-0.0804 0.88974,-0.3057 2.09399,-1.21691 4.05101,-1.86808 5.28352,-3.87143 0.66807,-1.11319 1.21893,-2.29225 1.66947,-3.5099 0.46601,-1.41764 0.82489,-2.89578 0.71083,-4.39982 -0.23429,-1.51946 -0.71761,-2.342714 -2.07407,-3.137432 -0.23847,-0.09935 -0.46591,-0.231095 -0.71544,-0.298048 -1.61075,-0.432207 -3.2953,0.338651 -4.79851,0.795176 -2.59746,1.101574 -1.86152,0.729514 -5.78132,3.140874 -1.20633,0.74211 -2.34941,1.88103 -2.95098,3.17936 -0.16479,0.35566 -0.21898,0.75277 -0.32847,1.12915 -0.0397,0.89899 -0.14229,1.22635 0.16066,2.08936 0.10335,0.29443 0.28334,0.55629 0.4371,0.82781 0.58892,1.03994 1.26765,2.0258 2.054,2.92733 0.29181,0.30633 0.56301,0.63371 0.87542,0.919 1.03396,0.9442 2.31224,1.55365 3.57375,2.12434 0,0 3.2817,-2.21897 3.2817,-2.21897 z" />
    <path
       style="fill:#000000;fill-opacity:1;stroke:#000000;stroke-width:0.221074;stroke-dasharray:none;stroke-opacity:1"
       id="path4022"
       d="m 270.78413,115.47896 c 1.23113,0.68293 2.48574,1.29586 3.76275,1.8503 1.15303,0.45926 2.33626,0.90123 3.56363,0.90004 1.52296,-0.23368 2.44776,-1.2113 3.87137,-2.33962 0.16594,-0.13151 0.26911,-0.35377 0.36347,-0.56087 0.25192,-0.55285 0.38472,-1.30026 0.51763,-1.89187 0.43432,-2.14636 0.63618,-4.34351 0.68026,-6.54554 0.0935,-1.92866 -0.96875,-2.8897 -2.12463,-4.00921 -0.0567,-0.0594 -0.54128,-0.5343 -0.60416,-0.7 -0.11102,-0.29265 0.66693,-0.8486 0.78858,-0.9629 0.9196,-0.89607 1.60956,-2.036789 2.15418,-3.27343 0.0532,-0.15474 0.14268,-0.298573 0.15959,-0.464222 0.0986,-0.965613 -0.58926,-1.769603 -1.12367,-2.366805 -0.8557,-0.794704 -1.89813,-0.824839 -2.9393,-0.799757 -0.35241,0.01555 -0.70305,0.05915 -1.05327,0.104974 -0.22989,0.03008 -0.2998,0.03979 -0.29958,0.04078 0.0137,0.06353 0.0819,0.08908 0.12296,0.133625 0.44446,-0.345034 0.82325,-0.914719 1.01803,-1.50044 0.051,-0.814937 -0.5215,-1.12527 -1.09281,-1.339847 -0.51138,-0.157173 -1.03484,-0.245205 -1.56299,-0.251603 -0.73248,0.09107 -1.42548,0.434413 -2.1187,0.711975 -1.43422,0.469334 -2.31144,1.301363 -3.75978,2.291163 -0.52543,0.527926 -0.88506,1.245377 -1.26076,1.917701 -0.17143,0.262461 -0.28612,0.591269 -0.49967,0.81622 -0.0386,0.04068 -0.17668,0.128001 -0.13186,0.09722 2.60238,-1.787983 3.38483,-2.241931 2.44531,-1.693984 -0.2631,-0.06482 -0.4267,-0.429185 -0.57767,-0.664243 -0.54436,-0.900527 -1.44646,-1.264426 -2.30155,-1.607306 -1.16429,-0.4454 -2.34697,-0.816751 -3.56763,-0.957284 -1.64995,-0.09502 -3.24352,0.886072 -4.38783,2.310814 -0.43442,0.868559 -0.47141,2.109992 -0.52067,3.104357 -0.0939,0.645413 0.23483,1.676491 -0.0885,2.241092 -1.14074,-0.08259 -0.005,0.0404 2.24608,-1.69361 0.0766,-0.05898 -0.1828,0.01773 -0.27443,0.01835 -0.32146,0.0021 -0.6456,-0.04228 -0.96581,-0.06994 -0.56487,-0.05478 -1.08997,0.104618 -1.58063,0.434172 -2.89849,1.946758 -2.09519,1.269678 -3.37364,2.388828 -0.7557,0.66078 -1.1678,1.22592 -1.39207,2.30936 -0.14242,1.05481 -0.21643,2.14085 -0.0479,3.19608 0.13413,0.60432 0.48227,1.08065 0.63868,1.67436 0.13831,0.68914 0.13993,1.40075 0.1492,2.10462 -0.0204,0.68439 -0.11746,1.36085 -0.17267,2.04177 -0.13721,1.06804 0.71903,1.63885 1.37,2.17369 1.57229,1.12581 3.30254,1.85333 5.06765,2.4329 0.2028,0.0598 0.40519,0.12147 0.60839,0.17941 0.15248,0.0434 0.30578,0.083 0.45862,0.12479 0.0991,0.0271 0.19832,0.0536 0.29715,0.0818 0.0125,0.004 0.0262,0.0225 0.0367,0.0137 2.53405,-2.11003 3.38053,-2.25661 2.21852,-2.00964 -0.39663,0.0198 -0.7947,0.0185 -1.19125,-0.005 -0.84864,0.7077 -1.77487,1.30241 -2.54589,2.12311 -0.0919,0.0978 0.14025,0.241 0.22157,0.35099 0.35446,0.47946 0.82729,0.83136 1.27167,1.18308 0.33832,0.25436 0.68365,0.50489 1.07426,0.62876 0,0 2.5129,-2.05921 2.5129,-2.05921 v 0 c -0.38064,-0.0386 -0.71075,-0.26445 -1.03496,-0.48855 -0.3312,-0.24633 -0.66491,-0.49461 -0.96122,-0.79826 -0.0866,-0.0887 -0.169,-0.18385 -0.24606,-0.28412 -0.0503,-0.0654 -0.067,-0.2493 -0.13496,-0.21161 -0.90067,0.49986 -1.73338,1.15303 -2.60007,1.72956 0.3212,-0.2184 0.81593,0.0348 1.17155,-0.049 1.24827,0.0984 0.33652,0.0776 2.8124,-2.08341 0.0341,-0.0297 -0.069,-0.0622 -0.10983,-0.076 -0.25639,-0.0858 -0.52532,-0.10783 -0.78655,-0.17037 -0.20714,-0.0496 -0.4133,-0.10475 -0.61994,-0.15712 -1.74943,-0.51684 -3.45891,-1.20838 -4.99715,-2.3388 -0.38204,-0.31858 -0.8977,-0.66049 -1.13554,-1.16614 -0.10158,-0.21596 -0.028,-0.49099 -0.0259,-0.71844 0.0557,-0.68834 0.13738,-1.37546 0.14165,-2.06793 -0.0113,-0.73888 -0.0121,-1.48526 -0.1793,-2.20397 -0.16212,-0.57723 -0.48322,-1.04627 -0.62772,-1.62952 -0.15436,-1.00606 -0.0916,-2.04372 0.0966,-3.03866 0.2842,-0.94319 0.77402,-1.52436 1.46777,-2.093126 1.08493,-0.881967 0.48556,-0.374262 -1.78561,1.128816 -0.13474,0.0891 0.26514,-0.18743 0.40193,-0.2722 0.34568,-0.21427 0.66704,-0.32554 1.06128,-0.30753 1.58342,0.13869 3.12678,0.50588 4.24029,-1.837597 0.12845,-0.763403 -0.0488,-1.547198 0.0128,-2.31829 0.0513,-0.963422 0.06,-2.112684 0.64177,-2.862402 0.92877,-0.793791 0.5093,-0.420562 -2.18263,1.399286 -0.079,0.05339 0.16401,-0.09454 0.24994,-0.13029 0.33516,-0.139434 0.69154,-0.183867 1.04517,-0.175971 1.21555,0.07578 2.39144,0.428629 3.54654,0.868839 0.79568,0.302697 1.6483,0.623847 2.14873,1.463494 0.20277,0.329154 0.39901,0.683364 0.69611,0.906048 1.43707,0.792471 2.78517,-1.440541 3.47127,-2.71099 0.375,-0.658641 0.75106,-1.356344 1.33064,-1.792977 -4.44169,2.985684 -2.66815,1.57728 -1.48346,1.196232 0.68122,-0.272935 1.35391,-0.58924 2.05387,-0.788862 0.51009,-0.04259 1.02016,0.03414 1.52056,0.150909 0.3553,0.106987 0.9932,0.218953 0.81978,0.816166 -0.27758,0.593086 -0.77006,1.004013 -0.98231,1.634994 0.0387,0.106767 0.0529,0.231068 0.11605,0.320303 0.11581,0.163451 1.22195,-0.166407 1.42214,-0.131463 0.97102,-0.05774 1.97034,-0.120127 2.80391,0.571417 0.60777,0.648573 1.24367,1.421375 0.78471,2.419933 -0.55885,1.211791 -1.28233,2.292471 -2.20721,3.154071 -0.88355,0.93499 -0.88677,1.32169 0.0848,2.19583 1.1625,1.07701 2.05117,1.83671 2.00473,3.72326 -0.0273,2.17575 -0.23957,4.3469 -0.70295,6.45773 -0.18263,0.68776 -0.2606,1.17915 -0.60676,1.77639 -0.10821,0.18668 -0.57461,0.57983 -0.3975,0.49126 4.65344,-2.32734 2.22001,-1.36039 1.36044,-1.05637 -1.20628,0.13057 -2.38891,-0.34216 -3.52724,-0.76019 -1.26336,-0.53288 -2.50754,-1.12127 -3.6909,-1.87018 0,0 -2.54132,1.97194 -2.54132,1.97194 z" />
    <path
       style="fill:#000000;fill-opacity:1;stroke:#000000;stroke-width:0.264999;stroke-dasharray:none;stroke-opacity:1"
       id="path4024"
       d="m 125.47658,4.4723023 c -0.36659,2.5039735 -0.39079,5.0294285 -0.20802,7.5479517 0.14215,1.408858 0.4111,2.833502 0.99917,4.133267 0.6632,1.465835 1.65836,2.703839 2.66447,3.939846 2.15678,2.285762 4.58472,4.291738 7.04172,6.242739 1.33363,1.059849 2.68992,2.091169 4.06272,3.099686 0,0 3.30958,-2.102813 3.30958,-2.102813 v 0 c -1.39938,-0.982931 -2.78219,-1.990481 -4.13849,-3.032066 -2.4585,-1.911401 -4.90536,-3.863771 -7.0285,-6.152442 -2.08723,-2.553022 -3.25672,-4.518059 -3.53706,-7.876944 -0.16907,-2.5122531 -0.12762,-5.0425852 0.37427,-7.5200019 0,0 -3.53986,1.7207772 -3.53986,1.7207772 z" />
    <path
       style="fill:#000000;fill-opacity:1;stroke:#000000;stroke-width:0.264999;stroke-dasharray:none;stroke-opacity:1"
       id="path4026"
       d="m 115.79784,8.8439886 c -4.03445,0.3486168 -8.06719,0.7173677 -12.10064,1.0777209 -0.637,0.054102 -1.27399,0.1082045 -1.91098,0.1623065 0,0 -3.005066,2.224968 -3.005066,2.224968 v 0 c 0.648142,-0.06207 1.296286,-0.12413 1.944416,-0.186195 3.96718,-0.377804 7.93733,-0.748657 11.91772,-0.955475 0,0 3.15455,-2.3233254 3.15455,-2.3233254 z" />
    <path
       style="fill:#000000;fill-opacity:1;stroke:#000000;stroke-width:0.264999;stroke-dasharray:none;stroke-opacity:1"
       id="path4028"
       d="m 116.79864,14.376449 c -1.60029,0.112245 -3.20527,0.12934 -4.80804,0.189651 -1.10523,0.04825 -2.20809,0.150707 -3.30181,0.316504 0,0 -3.14382,2.367042 -3.14382,2.367042 v 0 c 1.09197,-0.210304 2.2004,-0.325873 3.31049,-0.386795 1.58485,-0.06538 3.17002,-0.105312 4.75584,-0.13945 0,0 3.18734,-2.346952 3.18734,-2.346952 z" />
    <path
       style="fill:#000000;fill-opacity:1;stroke:#000000;stroke-width:0.264999;stroke-dasharray:none;stroke-opacity:1"
       id="path4034"
       d="m 133.43158,34.867283 c -0.72869,1.310516 -1.39437,2.649286 -2.03769,4.003744 -0.57117,1.470917 -1.08333,2.966715 -1.61563,4.453498 -0.39596,1.139407 -0.83712,2.258854 -1.36715,3.342516 -0.0665,0.123981 -0.13309,0.247965 -0.19964,0.371949 0,0 3.59422,-1.621192 3.59422,-1.621192 v 0 c 0.0625,-0.126937 0.12504,-0.253873 0.18756,-0.38081 0.50118,-1.095811 0.92399,-2.223217 1.3181,-3.361682 0.53263,-1.47575 1.00859,-2.975406 1.62743,-4.417166 0.64573,-1.366491 1.33195,-2.709981 2.108,-4.008059 0,0 -3.6152,1.617202 -3.6152,1.617202 z" />
    <path
       style="fill:#000000;fill-opacity:1;stroke:#000000;stroke-width:0.264999;stroke-dasharray:none;stroke-opacity:1"
       id="path4036"
       d="m 127.53439,28.083626 c -0.73868,1.035545 -1.53109,2.029238 -2.37445,2.980968 -0.83951,0.912333 -1.7823,1.718905 -2.71258,2.535446 -0.60647,0.577374 -1.3093,1.046824 -1.90635,1.632958 -0.5002,0.501317 -1.06249,0.938245 -1.62315,1.369515 0,0 3.66363,-1.466992 3.66363,-1.466992 v 0 c 0.55729,-0.449419 1.10988,-0.905481 1.62439,-1.404149 0.62162,-0.541505 1.26839,-1.054153 1.87711,-1.610789 0.92721,-0.822838 1.85896,-1.64505 2.68017,-2.576936 0.8429,-0.977947 1.62619,-2.003293 2.40775,-3.030572 0,0 -3.63652,1.570551 -3.63652,1.570551 z" />
  </g>
</svg>
