<svg xmlns="http://www.w3.org/2000/svg" viewBox="0 0 1398 651" width="1398" height="651" style="background-color: transparent;"><defs><style>@import url('https://fonts.googleapis.com/css2?family=Caveat+Brush&amp;family=Source+Code+Pro&amp;family=Source+Sans+Pro&amp;family=Crimson+Pro&amp;display=block');</style></defs><g text-align="center" text-anchor="middle" transform="translate(243.00, 149.00) rotate(0.00, 448.50, 32.50)"><g id="b6dbdbf1-62ac-44e6-3455-9ea81bf4baf1_svg" class="tl-centered-g"><path d="M810.88,65.21 Q798.88,65.18 791.35,65.17 T775.90,65.14 759.96,65.11 743.89,65.09 727.79,65.06 711.69,65.03 695.58,65.01 679.47,64.98 663.37,64.95 647.26,64.93 631.15,64.90 615.04,64.87 598.93,64.84 582.83,64.82 566.72,64.79 550.61,64.76 534.50,64.74 518.39,64.71 502.29,64.68 486.18,64.65 470.07,64.63 453.96,64.61 437.85,64.62 421.75,64.64 405.64,64.66 389.53,64.68 373.42,64.70 357.31,64.72 341.21,64.74 325.10,64.76 308.99,64.78 292.88,64.80 276.77,64.82 260.67,64.84 244.56,64.86 228.45,64.88 212.34,64.90 196.23,64.92 180.13,64.95 164.02,64.97 147.91,64.99 131.80,65.01 115.69,65.03 99.58,65.05 83.48,65.07 67.37,65.09 51.26,65.11 35.15,65.13 19.02,65.14 6.92,63.39 1.78,57.97 0.49,50.40 0.34,42.58 0.33,34.76 0.20,26.92 -0.02,19.09 -0.21,11.19 1.54,4.20 10.14,0.33 24.59,-0.67 40.25,-0.84 56.25,-0.86 72.33,-0.84 88.45,-0.80 104.56,-0.77 120.68,-0.73 136.80,-0.69 152.92,-0.66 169.04,-0.62 185.15,-0.58 201.27,-0.54 217.39,-0.51 233.51,-0.47 249.63,-0.43 265.75,-0.40 281.87,-0.36 297.98,-0.32 314.10,-0.29 330.22,-0.25 346.34,-0.21 362.46,-0.17 378.58,-0.14 394.70,-0.10 410.81,-0.06 426.93,-0.03 443.05,-0.00 459.17,0.00 475.29,-0.01 491.41,-0.02 507.53,-0.03 523.64,-0.04 539.76,-0.05 555.88,-0.06 572.00,-0.07 588.12,-0.08 604.24,-0.09 620.36,-0.10 636.47,-0.11 652.59,-0.12 668.71,-0.13 684.83,-0.14 700.95,-0.15 717.07,-0.16 733.19,-0.17 749.30,-0.18 765.42,-0.19 781.54,-0.20 797.66,-0.21 813.78,-0.22 829.90,-0.23 846.02,-0.24 862.14,-0.25 878.28,-0.26 890.39,1.50 895.50,6.90 896.72,14.41 896.79,22.15 896.71,29.90 896.76,37.65 896.90,45.41 897.01,53.23 895.20,60.17 886.60,64.02 872.15,65.03 856.50,65.21 840.51,65.23 824.43,65.22 808.33,65.19 792.23,65.17 776.12,65.14 760.01,65.11 743.91,65.09 727.80,65.06 711.69,65.03 695.58,65.01 679.47,64.98 663.37,64.95 647.26,64.93 631.15,64.90 615.04,64.87 598.93,64.84 582.83,64.82 566.72,64.79 550.61,64.76 534.50,64.74 518.39,64.71 502.29,64.68 486.18,64.65 470.07,64.63 453.96,64.61 437.85,64.62 418.99,64.64 408.01,64.62 407.69,64.51 407.42,64.31 407.23,64.03 407.14,63.70 407.16,63.37 407.28,63.05 407.50,62.79 407.79,62.62 408.12,62.55 408.46,62.58 408.76,62.73 409.01,62.96 409.17,63.26 409.22,63.59 409.17,63.93 409.01,64.22 408.76,64.46 408.46,64.60 408.12,64.63 407.79,64.56 407.50,64.39 407.28,64.13 407.16,63.82 407.14,63.48 407.23,63.15 407.42,62.87 407.69,62.67 408.01,62.56 408.18,62.53 418.99,62.55 437.85,62.57 453.96,62.59 470.07,62.58 486.18,62.56 502.29,62.54 518.39,62.52 534.50,62.50 550.61,62.48 566.72,62.46 582.83,62.44 598.93,62.42 615.04,62.40 631.15,62.38 647.26,62.36 663.37,62.34 679.47,62.32 695.58,62.30 711.69,62.28 727.80,62.26 743.91,62.24 760.01,62.22 776.12,62.20 792.23,62.18 808.33,62.15 824.43,62.13 840.50,62.10 856.46,62.03 871.96,61.81 885.53,61.23 892.68,58.87 893.93,53.09 894.15,45.39 894.39,37.64 894.53,29.90 894.42,22.23 894.02,14.85 893.07,8.37 889.33,4.24 878.23,3.01 862.13,2.97 846.01,2.94 829.90,2.90 813.78,2.86 797.66,2.83 781.54,2.79 765.42,2.75 749.30,2.71 733.18,2.68 717.07,2.64 700.95,2.60 684.83,2.57 668.71,2.53 652.59,2.49 636.47,2.46 620.35,2.42 604.24,2.38 588.12,2.34 572.00,2.31 555.88,2.27 539.76,2.23 523.64,2.20 507.52,2.16 491.41,2.12 475.29,2.09 459.17,2.05 443.05,2.02 426.93,2.02 410.81,2.03 394.69,2.04 378.58,2.05 362.46,2.06 346.34,2.07 330.22,2.08 314.10,2.09 297.98,2.10 281.86,2.11 265.74,2.12 249.63,2.13 233.51,2.14 217.39,2.15 201.27,2.16 185.15,2.18 169.03,2.19 152.91,2.20 136.80,2.21 120.68,2.22 104.56,2.23 88.44,2.24 72.33,2.25 56.25,2.27 40.29,2.34 24.78,2.55 11.21,3.12 4.06,5.48 2.87,11.30 2.72,19.08 2.57,26.91 2.52,34.73 2.71,42.48 3.18,49.93 4.20,56.48 7.97,60.64 19.07,61.88 35.15,61.90 51.26,61.93 67.37,61.95 83.48,61.98 99.59,62.01 115.69,62.03 131.80,62.06 147.91,62.09 164.02,62.11 180.13,62.14 196.23,62.17 212.34,62.20 228.45,62.22 244.56,62.25 260.67,62.28 276.77,62.30 292.88,62.33 308.99,62.36 325.10,62.38 341.21,62.41 357.31,62.44 373.42,62.47 389.53,62.49 405.64,62.52 421.75,62.55 437.85,62.57 453.96,62.59 470.07,62.58 486.18,62.56 502.29,62.54 518.39,62.52 534.50,62.50 550.61,62.48 566.72,62.46 582.83,62.44 598.93,62.42 615.04,62.40 631.15,62.38 647.26,62.36 663.37,62.34 679.47,62.32 695.58,62.30 711.69,62.28 727.79,62.26 743.89,62.24 759.96,62.22 775.90,62.20 791.35,62.18 804.88,62.15 811.06,62.17 811.42,62.25 811.74,62.42 812.02,62.67 812.23,62.97 812.35,63.31 812.40,63.68 812.35,64.04 812.22,64.38 812.02,64.68 811.74,64.93 811.42,65.10 811.06,65.19 Z" fill="#1d1d1d" stroke="#1d1d1d" stroke-width="2" pointer-events="none"/></g><text font-size="28px" font-family="Caveat Brush" font-weight="normal" line-height="28px" letter-spacing="-0.03em" text-align="center" dominant-baseline="mathematical" alignment-baseline="mathematical" text-anchor="middle" transform="translate(391.5, 13.5)" fill="#1d1d1d" transform-origin="center center"><tspan y="14px" x="61">Input layer
</tspan></text></g><g text-align="center" text-anchor="middle" transform="translate(242.00, 28.00) rotate(0.00, 53.50, 35.00)"><g id="b05bbf41-75fb-4254-0ec0-a02a0c549dbd_svg" class="tl-centered-g"><path d="M107.51,47.19 Q107.72,53.58 107.81,57.65 T106.08,64.75 98.28,68.64 85.60,69.65 71.97,69.84 58.06,69.96 44.09,70.24 30.10,70.60 16.07,70.94 5.27,69.35 0.49,63.63 -0.60,55.42 -0.63,46.87 -0.52,38.27 -0.56,29.65 -0.67,21.02 -0.76,12.34 1.04,4.87 8.81,0.90 21.41,-0.09 34.94,-0.24 48.73,-0.32 62.59,-0.55 76.47,-0.86 90.39,-1.16 101.12,0.45 105.91,6.15 107.10,14.33 107.23,22.84 107.24,31.39 107.38,39.96 107.61,50.01 107.69,56.00 107.54,56.45 107.26,56.82 106.87,57.08 106.42,57.21 105.96,57.19 105.52,57.02 105.16,56.72 104.92,56.32 104.82,55.86 104.87,55.39 105.06,54.97 105.38,54.63 105.79,54.41 106.26,54.33 106.72,54.40 107.13,54.62 107.45,54.96 107.65,55.38 107.70,55.85 107.61,56.31 107.37,56.71 107.01,57.01 106.58,57.19 106.11,57.21 105.66,57.09 105.27,56.83 104.99,56.46 104.84,56.01 104.80,55.78 104.87,50.02 105.01,39.98 105.05,31.42 104.86,22.93 104.40,14.73 103.44,7.55 100.03,3.16 90.35,1.94 76.49,1.88 62.61,1.82 48.76,1.86 35.00,2.13 21.64,2.64 9.94,3.50 3.61,6.13 2.32,12.47 2.08,21.04 1.82,29.66 1.66,38.27 1.74,46.81 2.10,55.05 2.97,62.27 6.36,66.67 16.10,67.84 30.07,67.85 44.06,67.87 58.03,67.78 71.90,67.47 85.37,66.92 97.15,66.04 103.51,63.49 104.73,57.55 104.87,50.40 104.97,47.05 105.04,46.75 105.18,46.48 105.38,46.25 105.63,46.07 105.92,45.96 106.22,45.93 106.53,45.96 106.81,46.07 107.07,46.24 107.27,46.47 107.41,46.74 107.49,47.04 Z" fill="#1d1d1d" stroke="#1d1d1d" stroke-width="2" pointer-events="none"/></g><text font-size="28px" font-family="Caveat Brush" font-weight="normal" line-height="28px" letter-spacing="-0.03em" text-align="center" dominant-baseline="mathematical" alignment-baseline="mathematical" text-anchor="middle" transform="translate(6.5, 16)" fill="#1d1d1d" transform-origin="center center"><tspan y="14px" x="51">keyboard
</tspan></text></g><g id="db87078c-b64f-4b40-00d2-9598e2ff6480_svg" class="tl-centered-g" transform="translate(297.05, 98.00) rotate(0.00, 0.89, 19.98)"><defs><mask id="db87078c-b64f-4b40-00d2-9598e2ff6480_clip"><rect x="-100" y="-100" width="201.78" height="239.96" fill="white"/><rect x="0.89" y="19.98" width="0" height="0" rx="2" ry="2" fill="black" opacity="1"/></mask></defs><g pointer-events="none" opacity="1" mask=""><path d="M0.89,-0.04 Q1.24,9.45 1.42,14.20 T1.79,23.69 2.18,33.19 2.36,38.04 2.30,38.25 2.17,38.43 2.00,38.56 1.79,38.63 1.58,38.62 1.37,38.55 1.20,38.42 1.08,38.24 1.02,38.03 1.04,37.81 1.12,37.61 1.26,37.45 1.45,37.34 1.66,37.29 1.88,37.32 2.07,37.41 2.23,37.56 2.33,37.75 2.36,37.97 2.33,38.18 2.22,38.37 2.06,38.52 1.86,38.61 1.65,38.63 1.44,38.58 1.25,38.47 1.11,38.30 1.03,38.10 1.01,37.99 0.78,33.25 0.32,23.76 -0.15,14.27 -0.64,4.78 -0.88,-0.07 -0.84,-0.28 -0.75,-0.47 -0.62,-0.64 -0.45,-0.76 -0.25,-0.85 -0.04,-0.88 0.17,-0.87 0.38,-0.80 0.56,-0.69 0.71,-0.53 0.81,-0.35 0.87,-0.15 Z" fill="#1d1d1d" stroke="#1d1d1d" stroke-width="2.11" stroke-dasharray="none" stroke-dashoffset="none" stroke-linecap="round" stroke-linejoin="round" pointer-events="stroke"/><g><path d="M 7.92,28.127874954924614 L 1.78,39.96 -5.393841739578764,28.721208288257948" fill="none" stroke="#1d1d1d" stroke-width="4.23" stroke-linecap="round" stroke-linejoin="round" pointer-events="none"/></g></g></g><g text-align="center" text-anchor="middle" transform="translate(377.00, 32.00) rotate(0.00, 43.50, 28.50)"><g id="7715c1b7-4bb3-4f5a-29fa-64a380cd0355_svg" class="tl-centered-g"><path d="M-0.45,18.27 Q-0.58,13.31 -0.62,10.12 T1.15,4.15 7.86,0.60 18.10,-0.28 28.94,-0.38 39.94,-0.43 51.00,-0.63 62.06,-0.92 73.18,-1.20 82.14,0.41 86.46,5.42 87.53,12.11 87.62,18.91 87.61,25.68 87.74,32.46 87.95,39.24 88.14,46.10 86.41,52.42 79.68,56.03 69.36,56.83 58.44,56.82 47.35,56.76 36.21,56.84 25.05,57.01 13.85,57.16 4.84,55.48 0.54,50.49 -0.45,43.89 -0.46,37.20 -0.36,30.55 -0.41,23.88 -0.52,16.08 -0.52,11.37 -0.37,10.93 -0.08,10.56 0.31,10.30 0.76,10.18 1.22,10.21 1.66,10.39 2.01,10.70 2.25,11.10 2.34,11.56 2.29,12.02 2.09,12.44 1.76,12.78 1.35,13.00 0.88,13.07 0.42,12.99 0.01,12.76 -0.31,12.42 -0.50,11.99 -0.54,11.53 -0.44,11.07 -0.19,10.67 0.17,10.38 0.60,10.21 1.07,10.19 1.52,10.32 1.90,10.58 2.18,10.96 2.33,11.40 2.36,11.64 2.23,16.11 1.97,23.90 1.82,30.55 1.91,37.14 2.24,43.48 3.00,49.03 5.96,52.75 13.94,54.07 25.05,54.27 36.21,54.47 47.34,54.57 58.40,54.45 69.14,54.10 78.52,53.42 83.83,51.13 85.06,45.97 85.21,39.25 85.37,32.48 85.42,25.71 85.25,19.00 84.83,12.55 84.01,6.89 81.03,3.15 73.12,1.90 62.09,1.82 51.02,1.74 39.97,1.75 29.00,1.99 18.35,2.45 9.04,3.21 3.74,5.46 2.45,10.29 2.23,15.82 2.09,18.45 2.01,18.75 1.87,19.02 1.66,19.24 1.41,19.41 1.12,19.52 0.82,19.55 0.51,19.51 0.23,19.40 -0.02,19.23 -0.22,18.99 -0.36,18.72 -0.43,18.42 Z" fill="#1d1d1d" stroke="#1d1d1d" stroke-width="2" pointer-events="none"/></g><text font-size="28px" font-family="Caveat Brush" font-weight="normal" line-height="28px" letter-spacing="-0.03em" text-align="center" dominant-baseline="mathematical" alignment-baseline="mathematical" text-anchor="middle" transform="translate(11, 9.5)" fill="#1d1d1d" transform-origin="center center"><tspan y="14px" x="36.5">mouse
</tspan></text></g><g id="5e9f87b0-8efc-4e13-0e10-ad5e7968a8d8_svg" class="tl-centered-g" transform="translate(420.85, 89.00) rotate(0.00, 0.50, 22.00)"><defs><mask id="5e9f87b0-8efc-4e13-0e10-ad5e7968a8d8_clip"><rect x="-100" y="-100" width="201" height="244" fill="white"/><rect x="0.27" y="22" width="0" height="0" rx="2" ry="2" fill="black" opacity="1"/></mask></defs><g pointer-events="none" opacity="1" mask=""><path d="M0.90,-0.01 Q0.95,10.49 0.98,15.74 T1.06,26.24 1.15,36.74 1.18,42.10 1.11,42.31 0.98,42.49 0.80,42.61 0.59,42.68 0.37,42.67 0.16,42.59 -0.01,42.45 -0.12,42.26 -0.17,42.05 -0.15,41.83 -0.06,41.63 0.09,41.46 0.28,41.36 0.50,41.32 0.72,41.35 0.91,41.45 1.06,41.61 1.16,41.81 1.19,42.03 1.14,42.24 1.03,42.43 0.86,42.58 0.66,42.66 0.44,42.68 0.23,42.62 0.04,42.50 -0.09,42.33 -0.16,42.12 -0.18,42.01 -0.26,36.76 -0.43,26.26 -0.60,15.76 -0.80,5.26 -0.89,-0.10 -0.84,-0.31 -0.74,-0.50 -0.60,-0.66 -0.42,-0.78 -0.22,-0.86 -0.01,-0.89 0.20,-0.87 0.40,-0.79 0.58,-0.67 0.73,-0.51 0.83,-0.33 0.88,-0.12 Z" fill="#1d1d1d" stroke="#1d1d1d" stroke-width="2.11" stroke-dasharray="none" stroke-dashoffset="none" stroke-linecap="round" stroke-linejoin="round" pointer-events="stroke"/><g><path d="M 7.71,31.2099607444949 L 0.53,44 -6.9563311546685815,31.38662741116157" fill="none" stroke="#1d1d1d" stroke-width="4.23" stroke-linecap="round" stroke-linejoin="round" pointer-events="none"/></g></g></g><g text-align="center" text-anchor="middle" transform="translate(490.00, 37.00) rotate(0.00, 39.00, 26.00)"><g id="d4f9d281-bc3e-4adc-3d3b-afd10a3abd3e_svg" class="tl-centered-g"><path d="M78.84,34.81 Q79.05,39.35 79.13,42.28 T77.42,47.93 71.19,51.37 61.95,52.15 52.28,52.17 42.47,52.14 32.62,52.26 22.77,52.47 12.86,52.66 4.66,51.00 0.57,46.24 -0.39,40.14 -0.41,34.02 -0.33,27.95 -0.39,21.88 -0.54,15.81 -0.66,9.67 1.09,3.80 7.31,0.30 16.49,-0.53 26.09,-0.58 35.83,-0.58 45.60,-0.73 55.38,-0.96 65.21,-1.18 73.36,0.45 77.47,5.21 78.49,11.33 78.58,17.48 78.58,23.58 78.72,29.68 78.94,36.82 79.02,41.14 78.87,41.59 78.59,41.96 78.21,42.23 77.76,42.35 77.29,42.33 76.85,42.16 76.50,41.86 76.25,41.46 76.15,41.00 76.20,40.54 76.39,40.11 76.71,39.77 77.12,39.55 77.58,39.47 78.05,39.55 78.46,39.76 78.78,40.10 78.98,40.52 79.04,40.99 78.94,41.44 78.70,41.85 78.34,42.15 77.91,42.33 77.44,42.35 76.99,42.23 76.60,41.97 76.32,41.60 76.17,41.16 76.13,40.92 76.20,36.83 76.34,29.69 76.39,23.61 76.21,17.58 75.80,11.79 75.01,6.72 72.23,3.21 65.12,1.91 55.39,1.78 45.61,1.65 35.85,1.61 26.15,1.79 16.74,2.20 8.52,2.90 3.70,5.11 2.41,9.84 2.21,15.83 1.98,21.89 1.85,27.95 1.96,33.95 2.30,39.71 3.03,44.76 5.80,48.26 12.95,49.56 22.76,49.72 32.62,49.89 42.46,49.96 52.23,49.80 61.71,49.43 69.99,48.77 74.83,46.63 76.07,42.14 76.20,37.10 76.30,34.67 76.37,34.38 76.51,34.10 76.71,33.87 76.97,33.70 77.25,33.59 77.55,33.55 77.86,33.59 78.15,33.69 78.40,33.86 78.60,34.09 78.75,34.36 78.82,34.66 Z" fill="#1d1d1d" stroke="#1d1d1d" stroke-width="2" pointer-events="none"/></g><text font-size="28px" font-family="Caveat Brush" font-weight="normal" line-height="28px" letter-spacing="-0.03em" text-align="center" dominant-baseline="mathematical" alignment-baseline="mathematical" text-anchor="middle" transform="translate(1.5, 7)" fill="#1d1d1d" transform-origin="center center"><tspan y="14px" x="41.5">Joypad
</tspan></text></g><g id="e05fb8c5-a8a4-44cf-125d-aeb6dcdaf014_svg" class="tl-centered-g" transform="translate(529.87, 89.00) rotate(0.00, 0.74, 22.00)"><defs><mask id="e05fb8c5-a8a4-44cf-125d-aeb6dcdaf014_clip"><rect x="-100" y="-100" width="201.48" height="244" fill="white"/><rect x="0.74" y="22" width="0" height="0" rx="2" ry="2" fill="black" opacity="1"/></mask></defs><g pointer-events="none" opacity="1" mask=""><path d="M0.97,-0.03 Q1.26,10.47 1.41,15.72 T1.72,26.22 2.04,36.72 2.19,42.10 2.11,42.34 1.97,42.55 1.76,42.70 1.52,42.77 1.27,42.77 1.03,42.68 0.84,42.53 0.70,42.31 0.64,42.07 0.65,41.82 0.75,41.59 0.92,41.40 1.14,41.27 1.39,41.22 1.64,41.25 1.86,41.36 2.04,41.54 2.16,41.77 2.19,42.02 2.15,42.27 2.02,42.49 1.84,42.66 1.61,42.76 1.35,42.78 1.11,42.72 0.90,42.59 0.74,42.39 0.65,42.15 0.62,42.03 0.43,36.78 0.05,26.28 -0.35,15.78 -0.76,5.28 -0.96,-0.08 -0.91,-0.31 -0.81,-0.52 -0.66,-0.70 -0.48,-0.84 -0.26,-0.93 -0.03,-0.96 0.20,-0.94 0.42,-0.87 0.61,-0.74 0.77,-0.57 0.89,-0.37 0.95,-0.15 Z" fill="#1d1d1d" stroke="#1d1d1d" stroke-width="2.11" stroke-dasharray="none" stroke-dashoffset="none" stroke-linecap="round" stroke-linejoin="round" pointer-events="stroke"/><g><path d="M 8.38,31.05162741116157 L 1.48,44 -6.280572532533654,31.5449607444949" fill="none" stroke="#1d1d1d" stroke-width="4.23" stroke-linecap="round" stroke-linejoin="round" pointer-events="none"/></g></g></g><g text-align="center" text-anchor="middle" transform="translate(584.00, 36.00) rotate(0.00, 70.50, 27.50)"><g id="8b5a02d0-8cab-4616-2368-c3fd9dd90be3_svg" class="tl-centered-g"><path d="M141.59,36.59 Q141.74,41.39 141.78,44.48 T139.98,50.34 130.37,53.88 113.67,54.79 95.46,54.95 76.83,55.06 58.08,55.33 39.30,55.68 20.49,56.03 6.74,54.50 1.20,49.64 -0.18,43.14 -0.30,36.53 -0.24,29.98 -0.30,23.45 -0.45,16.92 -0.56,10.31 1.24,4.14 10.86,0.54 27.57,-0.31 45.77,-0.39 64.42,-0.42 83.17,-0.60 101.96,-0.86 120.77,-1.12 134.52,0.47 140.06,5.31 141.43,11.74 141.55,18.27 141.48,24.72 141.54,31.17 141.67,38.71 141.68,43.27 141.53,43.71 141.25,44.08 140.86,44.34 140.41,44.46 139.94,44.43 139.51,44.26 139.15,43.95 138.91,43.55 138.82,43.09 138.87,42.63 139.07,42.20 139.40,41.87 139.81,41.65 140.27,41.58 140.73,41.66 141.14,41.88 141.46,42.22 141.66,42.65 141.70,43.11 141.60,43.57 141.35,43.97 141.00,44.27 140.56,44.44 140.09,44.46 139.64,44.33 139.26,44.06 138.98,43.69 138.83,43.25 138.80,43.01 138.92,38.69 139.17,31.15 139.30,24.73 139.18,18.38 138.77,12.31 137.74,6.97 133.56,3.30 120.74,1.99 101.97,1.88 83.18,1.77 64.43,1.77 45.81,1.98 27.72,2.43 11.88,3.18 3.75,5.47 2.51,10.47 2.30,16.93 2.07,23.46 1.95,29.97 2.07,36.42 2.49,42.58 3.52,47.99 7.70,51.68 20.50,52.93 39.27,52.94 58.05,52.96 76.80,52.88 95.42,52.57 113.51,52.05 129.33,51.23 137.47,48.99 138.71,44.31 138.92,38.97 139.06,36.42 139.13,36.12 139.28,35.85 139.48,35.63 139.74,35.45 140.02,35.35 140.33,35.31 140.63,35.35 140.91,35.46 141.17,35.64 141.37,35.87 141.51,36.14 141.58,36.44 Z" fill="#1d1d1d" stroke="#1d1d1d" stroke-width="2" pointer-events="none"/></g><text font-size="28px" font-family="Caveat Brush" font-weight="normal" line-height="28px" letter-spacing="-0.03em" text-align="center" dominant-baseline="mathematical" alignment-baseline="mathematical" text-anchor="middle" transform="translate(11.5, 8.5)" fill="#1d1d1d" transform-origin="center center"><tspan y="14px" x="63">touchscreen
</tspan></text></g><g id="5b521109-ddaf-4598-2696-c257de842f95_svg" class="tl-centered-g" transform="translate(654.00, 93.00) rotate(0.00, 0.50, 20.00)"><defs><mask id="5b521109-ddaf-4598-2696-c257de842f95_clip"><rect x="-100" y="-100" width="201" height="240" fill="white"/><rect x="0.07" y="20" width="0" height="0" rx="2" ry="2" fill="black" opacity="1"/></mask></defs><g pointer-events="none" opacity="1" mask=""><path d="M0.89,-0.00 Q0.85,9.50 0.83,14.25 T0.81,23.75 0.81,33.25 0.79,38.11 0.72,38.31 0.59,38.49 0.41,38.61 0.20,38.67 -0.02,38.66 -0.22,38.58 -0.39,38.44 -0.50,38.25 -0.55,38.04 -0.53,37.82 -0.43,37.62 -0.29,37.47 -0.09,37.36 0.12,37.33 0.34,37.36 0.53,37.46 0.68,37.62 0.77,37.82 0.80,38.03 0.75,38.25 0.64,38.43 0.47,38.58 0.27,38.66 0.05,38.67 -0.16,38.61 -0.34,38.49 -0.47,38.32 -0.54,38.11 -0.56,38.00 -0.59,33.25 -0.66,23.75 -0.74,14.25 -0.84,4.75 -0.88,-0.10 -0.83,-0.31 -0.73,-0.50 -0.59,-0.66 -0.41,-0.78 -0.21,-0.86 -0.00,-0.89 0.21,-0.86 0.41,-0.79 0.59,-0.66 0.73,-0.51 0.83,-0.32 0.88,-0.11 Z" fill="#1d1d1d" stroke="#1d1d1d" stroke-width="2.11" stroke-dasharray="none" stroke-dashoffset="none" stroke-linecap="round" stroke-linejoin="round" pointer-events="stroke"/><g><path d="M 6.75,28.43132794954082 L 0.13,40 -6.574194434163991,28.474661282874152" fill="none" stroke="#1d1d1d" stroke-width="4.23" stroke-linecap="round" stroke-linejoin="round" pointer-events="none"/></g></g></g><g text-align="center" text-anchor="middle" transform="translate(243.00, 288.00) rotate(0.00, 76.50, 22.50)"><g id="380b89d2-6925-41a5-3d35-400c27f3a740_svg" class="tl-centered-g"><path d="M-0.67,15.12 Q-0.84,11.36 -0.89,8.91 T0.89,3.86 10.16,0.59 26.09,-0.12 43.40,-0.12 61.12,0.02 78.95,0.03 96.81,-0.12 114.67,-0.27 132.56,-0.41 145.69,1.19 151.10,5.41 152.58,10.55 152.84,15.62 152.91,20.54 153.11,25.43 153.38,30.30 153.63,35.27 151.91,40.43 142.63,43.79 126.63,44.64 109.23,44.78 91.42,44.79 73.49,44.93 55.55,45.23 37.59,45.52 19.61,45.81 6.41,44.30 1.01,40.02 -0.38,34.74 -0.53,29.51 -0.50,24.43 -0.59,19.37 -0.75,13.46 -0.79,9.84 -0.64,9.39 -0.36,9.02 0.03,8.76 0.48,8.64 0.95,8.67 1.38,8.84 1.74,9.14 1.98,9.55 2.07,10.00 2.02,10.47 1.82,10.89 1.50,11.23 1.09,11.45 0.62,11.52 0.16,11.44 -0.25,11.22 -0.57,10.88 -0.76,10.46 -0.81,9.99 -0.71,9.54 -0.47,9.14 -0.11,8.83 0.33,8.66 0.79,8.64 1.24,8.77 1.63,9.03 1.91,9.40 2.06,9.85 2.09,10.08 1.99,13.47 1.78,19.37 1.69,24.40 1.83,29.37 2.25,34.07 3.24,38.20 7.32,41.39 19.63,42.69 37.57,42.71 55.53,42.74 73.48,42.77 91.39,42.63 109.19,42.29 126.48,41.83 141.60,41.11 149.41,39.07 150.57,35.14 150.64,30.35 150.74,25.47 150.73,20.61 150.48,15.82 149.97,11.29 148.90,7.29 144.79,4.13 132.52,2.72 114.67,2.55 96.81,2.37 78.95,2.19 61.13,2.18 43.42,2.37 26.22,2.68 11.17,3.28 3.39,5.25 2.16,9.10 1.99,13.25 1.87,15.28 1.79,15.58 1.65,15.85 1.45,16.08 1.19,16.25 0.91,16.36 0.60,16.39 0.30,16.35 0.01,16.24 -0.24,16.07 -0.44,15.84 -0.58,15.57 -0.65,15.27 Z" fill="#1d1d1d" stroke="#1d1d1d" stroke-width="2" pointer-events="none"/></g><text font-size="28px" font-family="Caveat Brush" font-weight="normal" line-height="28px" letter-spacing="-0.03em" text-align="center" dominant-baseline="mathematical" alignment-baseline="mathematical" text-anchor="middle" transform="translate(3, 3.5)" fill="#1d1d1d" transform-origin="center center"><tspan y="14px" x="77.5">input interface
</tspan></text></g><g text-align="center" text-anchor="middle" transform="translate(960.00, 283.00) rotate(0.00, 84.50, 21.50)"><g id="64b14b88-8f22-4f6b-190d-bf671568f2a1_svg" class="tl-centered-g"><path d="M93.40,0.20 Q106.65,0.11 114.96,0.07 T132.02,-0.00 149.64,-0.08 162.68,1.57 168.01,5.74 169.36,10.73 169.48,15.63 169.41,20.36 169.47,25.05 169.60,29.75 169.70,34.52 167.90,39.55 158.71,42.83 142.98,43.59 125.90,43.63 108.41,43.55 90.82,43.50 73.20,43.59 55.57,43.76 37.95,43.92 20.30,44.07 7.32,42.49 1.93,38.32 0.41,33.24 0.09,28.25 -0.05,23.40 -0.30,18.60 -0.63,13.80 -0.93,8.91 0.75,3.79 9.96,0.50 25.81,-0.19 43.04,-0.16 60.68,0.02 78.43,0.15 96.21,0.14 117.03,0.08 129.19,0.09 129.60,0.23 129.94,0.50 130.18,0.86 130.30,1.28 130.27,1.71 130.11,2.11 129.83,2.44 129.46,2.67 129.03,2.76 128.60,2.71 128.21,2.52 127.89,2.22 127.69,1.84 127.62,1.41 127.69,0.98 127.90,0.60 128.21,0.30 128.61,0.12 129.04,0.08 129.47,0.17 129.84,0.40 130.12,0.73 130.28,1.13 130.30,1.57 130.18,1.99 129.93,2.34 129.59,2.61 129.18,2.74 128.96,2.78 117.02,2.66 96.20,2.43 78.42,2.29 60.68,2.30 43.06,2.42 25.94,2.67 10.97,3.20 3.24,5.14 2.12,9.02 2.11,13.72 2.07,18.52 2.14,23.30 2.44,28.02 3.01,32.48 4.12,36.41 8.21,39.55 20.34,40.93 37.94,41.05 55.57,41.18 73.20,41.30 90.82,41.36 108.40,41.26 125.87,41.05 142.84,40.72 157.69,40.12 165.39,38.15 166.64,34.31 166.86,29.71 167.10,25.03 167.23,20.37 167.12,15.76 166.74,11.42 165.79,7.58 161.76,4.49 149.59,3.07 132.01,2.86 114.95,2.65 100.01,2.45 93.26,2.33 93.01,2.27 92.79,2.15 92.59,1.98 92.45,1.77 92.36,1.53 92.33,1.27 92.36,1.02 92.45,0.78 92.60,0.57 92.79,0.40 93.02,0.28 93.27,0.22 Z" fill="#1d1d1d" stroke="#1d1d1d" stroke-width="2" pointer-events="none"/></g><text font-size="28px" font-family="Caveat Brush" font-weight="normal" line-height="28px" letter-spacing="-0.03em" text-align="center" dominant-baseline="mathematical" alignment-baseline="mathematical" text-anchor="middle" transform="translate(4, 2.5)" fill="#1d1d1d" transform-origin="center center"><tspan y="14px" x="84.5">internet browser
</tspan></text></g><g text-align="center" text-anchor="middle" transform="translate(748.00, 34.00) rotate(0.00, 77.50, 31.50)"><g id="f8413136-17a8-45d7-1907-8ad52800b478_svg" class="tl-centered-g"><path d="M154.88,43.13 Q154.96,48.77 154.97,52.36 T153.11,58.87 143.74,62.53 127.62,63.35 110.08,63.38 92.13,63.25 74.08,63.25 55.99,63.41 37.90,63.56 19.79,63.71 6.45,62.02 1.06,56.72 -0.15,49.40 -0.14,41.87 0.03,34.36 0.09,26.84 0.07,19.32 0.06,11.74 1.94,4.96 11.31,1.21 27.41,0.33 44.93,0.27 62.86,0.36 80.89,0.32 98.95,0.13 117.02,-0.06 135.11,-0.24 148.43,1.42 153.82,6.73 155.06,14.08 155.08,21.65 154.93,29.20 154.90,36.76 154.92,45.62 154.88,50.93 154.72,51.37 154.43,51.73 154.04,51.99 153.59,52.11 153.12,52.07 152.69,51.89 152.34,51.58 152.11,51.18 152.01,50.72 152.07,50.26 152.28,49.83 152.61,49.50 153.02,49.29 153.49,49.22 153.95,49.31 154.35,49.53 154.67,49.88 154.86,50.31 154.90,50.77 154.79,51.23 154.54,51.62 154.18,51.92 153.74,52.08 153.28,52.10 152.83,51.97 152.45,51.70 152.17,51.32 152.03,50.87 151.99,50.64 152.18,45.57 152.53,36.72 152.74,29.19 152.71,21.71 152.38,14.54 151.43,8.23 147.40,4.18 135.07,2.89 117.02,2.76 98.95,2.62 80.89,2.48 62.86,2.52 44.96,2.76 27.57,3.14 12.34,3.87 4.46,6.29 3.14,11.92 2.81,19.38 2.46,26.89 2.22,34.39 2.23,41.82 2.53,48.95 3.46,55.22 7.48,59.27 19.83,60.58 37.90,60.75 55.99,60.92 74.08,61.09 92.13,61.09 110.05,60.89 127.47,60.55 142.71,59.86 150.60,57.53 151.89,52.18 152.18,45.90 152.34,42.93 152.42,42.63 152.57,42.37 152.78,42.14 153.03,41.97 153.32,41.87 153.62,41.84 153.93,41.88 154.21,41.99 154.46,42.17 154.66,42.41 154.80,42.68 154.86,42.98 Z" fill="#1d1d1d" stroke="#1d1d1d" stroke-width="2" pointer-events="none"/></g><text font-size="28px" font-family="Caveat Brush" font-weight="normal" line-height="28px" letter-spacing="-0.03em" text-align="center" dominant-baseline="mathematical" alignment-baseline="mathematical" text-anchor="middle" transform="translate(55.5, 12.5)" fill="#1d1d1d" transform-origin="center center"><tspan y="14px" x="26">???
</tspan></text></g><g id="94a92894-3ff1-44cd-0fd8-3e46f822d77d_svg" class="tl-centered-g" transform="translate(823.33, 97.00) rotate(0.00, 0.60, 19.99)"><defs><mask id="94a92894-3ff1-44cd-0fd8-3e46f822d77d_clip"><rect x="-100" y="-100" width="201.21" height="239.98" fill="white"/><rect x="0.60" y="19.99" width="0" height="0" rx="2" ry="2" fill="black" opacity="1"/></mask></defs><g pointer-events="none" opacity="1" mask=""><path d="M2.13,0.03 Q1.77,9.52 1.60,14.27 T1.26,23.76 0.94,33.26 0.76,38.12 0.68,38.33 0.54,38.51 0.34,38.64 0.12,38.69 -0.11,38.67 -0.33,38.58 -0.50,38.43 -0.61,38.22 -0.65,38.00 -0.62,37.77 -0.52,37.56 -0.35,37.40 -0.15,37.30 0.08,37.27 0.31,37.31 0.51,37.43 0.66,37.60 0.75,37.81 0.77,38.04 0.71,38.26 0.59,38.46 0.41,38.60 0.19,38.68 -0.04,38.69 -0.26,38.62 -0.45,38.48 -0.58,38.30 -0.65,38.07 -0.66,37.96 -0.53,33.21 -0.28,23.71 -0.04,14.22 0.18,4.72 0.31,-0.14 0.36,-0.35 0.47,-0.54 0.62,-0.70 0.81,-0.82 1.02,-0.89 1.24,-0.91 1.46,-0.88 1.66,-0.80 1.84,-0.67 1.98,-0.50 2.07,-0.30 2.12,-0.08 Z" fill="#1d1d1d" stroke="#1d1d1d" stroke-width="2.11" stroke-dasharray="none" stroke-dashoffset="none" stroke-linecap="round" stroke-linejoin="round" pointer-events="stroke"/><g><path d="M 7.01,28.640434785566043 L 0,39.98 -6.3140364204736095,28.237101452232707" fill="none" stroke="#1d1d1d" stroke-width="4.23" stroke-linecap="round" stroke-linejoin="round" pointer-events="none"/></g></g></g><g text-align="center" text-anchor="middle" transform="translate(1220.00, 263.00) rotate(0.00, 81.00, 37.00)"><g id="ea988a7b-cd0b-4605-2b6a-c341dce36258_svg" class="tl-centered-g"><path d="M71.98,74.10 Q59.39,74.25 51.49,74.32 T35.28,74.47 18.53,74.62 5.96,72.90 0.76,66.94 -0.42,58.23 -0.42,49.10 -0.27,39.92 -0.26,30.71 -0.32,21.50 -0.36,12.23 1.50,4.38 10.39,0.38 25.43,-0.51 41.75,-0.51 58.43,-0.35 75.21,-0.22 92.01,-0.22 108.82,-0.29 125.64,-0.36 142.47,-0.42 155.02,1.34 160.26,7.26 161.53,15.89 161.65,24.92 161.61,34.00 161.71,43.10 161.88,52.21 162.04,61.37 160.25,69.16 151.35,73.18 136.24,74.14 119.84,74.22 103.07,74.14 86.20,74.09 69.31,74.17 49.52,74.32 37.96,74.36 37.55,74.23 37.21,73.96 36.96,73.60 36.84,73.18 36.87,72.75 37.03,72.35 37.31,72.01 37.68,71.79 38.11,71.70 38.54,71.74 38.93,71.93 39.25,72.23 39.45,72.61 39.52,73.04 39.45,73.47 39.25,73.85 38.93,74.15 38.54,74.33 38.11,74.38 37.68,74.29 37.31,74.06 37.03,73.73 36.87,73.33 36.84,72.89 36.96,72.47 37.20,72.11 37.55,71.85 37.96,71.71 38.18,71.68 49.52,71.74 69.31,71.88 86.20,71.94 103.06,71.85 119.80,71.64 136.06,71.28 150.30,70.52 157.73,67.89 158.95,61.26 159.14,52.21 159.34,43.10 159.43,34.01 159.28,25.00 158.83,16.30 157.81,8.66 153.94,4.04 142.41,2.72 125.62,2.51 108.81,2.29 92.00,2.07 75.20,1.93 58.43,1.94 41.77,2.06 25.60,2.35 11.43,3.04 4.01,5.67 2.73,12.37 2.43,21.53 2.11,30.74 1.91,39.93 1.95,49.05 2.29,57.85 3.22,65.58 7.05,70.22 18.58,71.47 35.28,71.61 51.49,71.74 65.68,71.88 72.11,71.97 72.36,72.03 72.58,72.15 72.78,72.32 72.92,72.53 73.01,72.77 73.04,73.02 73.01,73.28 72.92,73.52 72.78,73.73 72.59,73.90 72.36,74.02 72.11,74.08 Z" fill="#1d1d1d" stroke="#1d1d1d" stroke-width="2" pointer-events="none"/></g><text font-size="28px" font-family="Caveat Brush" font-weight="normal" line-height="28px" letter-spacing="-0.03em" text-align="center" dominant-baseline="mathematical" alignment-baseline="mathematical" text-anchor="middle" transform="translate(11, 18)" fill="#1d1d1d" transform-origin="center center"><tspan y="14px" x="74">global content
</tspan></text></g><g id="cb1acf01-0214-4ce5-1fc5-e6bd62002b86_svg" class="tl-centered-g" transform="translate(1145.00, 301.42) rotate(0.00, 37.50, 0.66)"><defs><mask id="cb1acf01-0214-4ce5-1fc5-e6bd62002b86_clip"><rect x="-100" y="-100" width="275" height="201.32" fill="white"/><rect x="37.5" y="0.66" width="0" height="0" rx="2.34" ry="2.34" fill="black" opacity="1"/></mask></defs><g pointer-events="none" opacity="1" mask=""><path d="M75.01,0.85 Q56.76,1.09 47.64,1.22 T29.39,1.48 11.14,1.76 1.91,1.89 1.72,1.83 1.56,1.71 1.45,1.55 1.39,1.36 1.40,1.16 1.47,0.98 1.59,0.82 1.76,0.72 1.96,0.67 2.15,0.69 2.33,0.77 2.48,0.91 2.58,1.08 2.61,1.27 2.58,1.47 2.49,1.65 2.35,1.79 2.17,1.87 1.98,1.90 1.78,1.86 1.61,1.76 1.48,1.61 1.40,1.43 1.39,1.23 1.44,1.04 1.55,0.87 1.70,0.75 1.89,0.68 1.99,0.66 11.11,0.49 29.36,0.12 47.61,-0.25 65.86,-0.65 75.09,-0.84 75.28,-0.79 75.47,-0.70 75.62,-0.57 75.74,-0.40 75.81,-0.22 75.84,-0.01 75.82,0.19 75.75,0.38 75.64,0.55 75.49,0.69 75.31,0.78 75.12,0.83 Z" fill="#1d1d1d" stroke="#1d1d1d" stroke-width="2.11" stroke-dasharray="none" stroke-dashoffset="none" stroke-linecap="round" stroke-linejoin="round" pointer-events="stroke"/><g><path d="M 13.99,9.074926256313187 L 0,1.32 13.71,-6.922596239245788" fill="none" stroke="#1d1d1d" stroke-width="4.23" stroke-linecap="round" stroke-linejoin="round" pointer-events="none"/></g></g></g><g id="f3e0f5cb-f7a0-4118-0b52-72fe1ee238a6_svg" class="tl-centered-g" transform="translate(1040.00, 216.00) rotate(0.00, 1.29, 25.50)"><defs><mask id="f3e0f5cb-f7a0-4118-0b52-72fe1ee238a6_clip"><rect x="-100" y="-100" width="202.59" height="251" fill="white"/><rect x="1.29" y="25.5" width="0" height="0" rx="2" ry="2" fill="black" opacity="1"/></mask></defs><g pointer-events="none" opacity="1" mask=""><path d="M0.93,-0.05 Q1.48,12.21 1.76,18.33 T2.34,30.59 2.93,42.84 3.21,49.08 3.14,49.31 3.01,49.50 2.83,49.64 2.60,49.72 2.37,49.72 2.15,49.64 1.96,49.50 1.83,49.30 1.77,49.08 1.78,48.84 1.87,48.63 2.02,48.45 2.22,48.33 2.45,48.28 2.68,48.31 2.90,48.40 3.07,48.57 3.18,48.77 3.21,49.01 3.17,49.24 3.06,49.44 2.89,49.60 2.68,49.70 2.45,49.73 2.22,49.67 2.02,49.55 1.87,49.37 1.78,49.16 1.76,49.04 1.43,42.92 0.77,30.67 0.10,18.42 -0.58,6.17 -0.92,-0.06 -0.88,-0.28 -0.79,-0.49 -0.65,-0.66 -0.47,-0.79 -0.27,-0.88 -0.05,-0.92 0.18,-0.91 0.39,-0.84 0.58,-0.72 0.73,-0.56 0.85,-0.37 0.91,-0.16 Z" fill="#1d1d1d" stroke="#1d1d1d" stroke-width="2.11" stroke-dasharray="none" stroke-dashoffset="none" stroke-linecap="round" stroke-linejoin="round" pointer-events="stroke"/><g><path d="M 9.87,36.75567558931566 L 2.59,51 -6.102486147656988,37.567178830461884" fill="none" stroke="#1d1d1d" stroke-width="4.23" stroke-linecap="round" stroke-linejoin="round" pointer-events="none"/></g></g></g><g id="36e1fa99-e8c3-49bb-19c6-26f9275ed9a9_svg" class="tl-centered-g" transform="translate(313.27, 214.00) rotate(0.00, 1.87, 29.00)"><defs><mask id="36e1fa99-e8c3-49bb-19c6-26f9275ed9a9_clip"><rect x="-100" y="-100" width="203.74" height="258" fill="white"/><rect x="1.87" y="29" width="0" height="0" rx="2" ry="2" fill="black" opacity="1"/></mask></defs><g pointer-events="none" opacity="1" mask=""><path d="M0.85,-0.05 Q1.67,13.95 2.09,20.95 T2.94,34.96 3.80,48.96 4.23,56.06 4.18,56.26 4.07,56.43 3.91,56.55 3.72,56.62 3.52,56.62 3.33,56.56 3.17,56.44 3.05,56.27 3.00,56.08 3.00,55.88 3.08,55.69 3.20,55.54 3.38,55.43 3.57,55.38 3.77,55.40 3.95,55.49 4.10,55.62 4.20,55.80 4.23,56.00 4.20,56.20 4.11,56.37 3.96,56.51 3.78,56.60 3.58,56.62 3.39,56.58 3.21,56.48 3.08,56.33 3.01,56.14 2.98,56.04 2.52,49.05 1.57,35.05 0.62,21.05 -0.36,7.05 -0.85,-0.05 -0.81,-0.25 -0.73,-0.44 -0.60,-0.60 -0.44,-0.72 -0.26,-0.81 -0.05,-0.85 0.15,-0.83 0.34,-0.77 0.52,-0.67 0.67,-0.53 0.77,-0.35 0.83,-0.16 Z" fill="#1d1d1d" stroke="#1d1d1d" stroke-width="2.11" stroke-dasharray="none" stroke-dashoffset="none" stroke-linecap="round" stroke-linejoin="round" pointer-events="stroke"/><g><path d="M 10.83,43.65751874466248 L 3.74,58 -5.135067073175719,44.68710458064692" fill="none" stroke="#1d1d1d" stroke-width="4.23" stroke-linecap="round" stroke-linejoin="round" pointer-events="none"/></g></g></g><g id="9ca5bf14-792b-4638-337c-b4129f026ae9_svg" class="tl-centered-g" transform="translate(776.00, 305.82) rotate(0.00, 92.00, 1.43)"><defs><mask id="9ca5bf14-792b-4638-337c-b4129f026ae9_clip"><rect x="-100" y="-100" width="384" height="202.86" fill="white"/><rect x="92" y="1.43" width="0" height="0" rx="4" ry="4" fill="black" opacity="1"/></mask></defs><g pointer-events="none" opacity="1" mask=""><path d="M184.02,1.05 Q138.52,1.71 115.77,2.04 T70.26,2.71 24.76,3.39 1.87,3.71 1.59,3.63 1.36,3.45 1.19,3.22 1.11,2.94 1.12,2.65 1.23,2.38 1.41,2.16 1.66,2.00 1.94,1.94 2.23,1.96 2.49,2.08 2.70,2.28 2.84,2.53 2.89,2.82 2.85,3.10 2.72,3.36 2.51,3.56 2.25,3.69 1.97,3.72 1.68,3.66 1.43,3.52 1.24,3.30 1.13,3.03 1.11,2.75 1.18,2.47 1.34,2.22 1.57,2.05 1.84,1.95 1.99,1.92 24.74,1.56 70.24,0.82 115.73,0.08 161.23,-0.67 184.11,-1.04 184.36,-0.98 184.58,-0.87 184.77,-0.71 184.92,-0.50 185.01,-0.27 185.05,-0.02 185.02,0.23 184.93,0.47 184.79,0.68 184.61,0.85 184.39,0.97 184.14,1.04 Z" fill="#1d1d1d" stroke="#1d1d1d" stroke-width="2.11" stroke-dasharray="none" stroke-dashoffset="none" stroke-linecap="round" stroke-linejoin="round" pointer-events="stroke"/><g><path d="M 13.97,10.643683036384655 L 0,2.86 13.73,-5.35438451603582" fill="none" stroke="#1d1d1d" stroke-width="4.23" stroke-linecap="round" stroke-linejoin="round" pointer-events="none"/></g></g></g><g text-align="center" text-anchor="middle" transform="translate(623.00, 279.00) rotate(0.00, 68.50, 31.00)"><g id="c0bf842c-15c9-4cc6-238a-aec36d44f771_svg" class="tl-centered-g"><path d="M96.03,-0.32 Q109.53,-0.41 118.02,-0.43 T130.63,1.30 135.88,6.54 137.19,13.73 137.33,21.11 137.31,28.47 137.41,35.82 137.59,43.18 137.76,50.61 135.98,57.31 126.56,61.01 110.32,61.82 92.63,61.82 74.52,61.76 56.31,61.85 38.07,62.02 19.79,62.18 6.36,60.51 0.94,55.23 -0.31,47.95 -0.33,40.47 -0.18,33.00 -0.16,25.53 -0.21,18.06 -0.24,10.52 1.63,3.77 11.02,0.09 27.16,-0.63 44.72,-0.52 62.70,-0.35 80.78,-0.33 101.99,-0.37 114.38,-0.33 114.83,-0.18 115.20,0.10 115.46,0.49 115.58,0.94 115.55,1.41 115.37,1.84 115.07,2.20 114.67,2.44 114.21,2.53 113.74,2.48 113.32,2.28 112.98,1.96 112.77,1.54 112.70,1.08 112.77,0.62 113.00,0.21 113.34,-0.11 113.76,-0.30 114.23,-0.35 114.68,-0.25 115.08,-0.00 115.38,0.35 115.55,0.79 115.58,1.26 115.45,1.71 115.18,2.09 114.81,2.37 114.36,2.52 114.13,2.55 101.97,2.38 80.76,2.04 62.69,1.84 44.73,1.85 27.29,2.11 12.02,2.74 4.13,5.10 2.84,10.70 2.53,18.11 2.21,25.57 2.00,33.02 2.04,40.40 2.37,47.49 3.33,53.72 7.39,57.75 19.84,59.08 38.07,59.28 56.31,59.48 74.52,59.58 92.60,59.45 110.17,59.09 125.54,58.37 133.47,56.00 134.68,50.48 134.85,43.18 135.04,35.83 135.12,28.49 134.96,21.21 134.51,14.23 133.50,8.09 129.59,4.07 117.96,2.67 102.76,2.38 95.86,2.22 95.56,2.15 95.29,2.00 95.06,1.80 94.89,1.54 94.79,1.26 94.75,0.95 94.79,0.65 94.90,0.36 95.08,0.11 95.31,-0.09 95.58,-0.23 95.88,-0.30 Z" fill="#1d1d1d" stroke="#1d1d1d" stroke-width="2" pointer-events="none"/></g><text font-size="28px" font-family="Caveat Brush" font-weight="normal" line-height="28px" letter-spacing="-0.03em" text-align="center" dominant-baseline="mathematical" alignment-baseline="mathematical" text-anchor="middle" transform="translate(8.5, 12)" fill="#1d1d1d" transform-origin="center center"><tspan y="14px" x="64">cached apps
</tspan></text></g><g id="c2565e56-cc9b-4566-35ee-ebede088b248_svg" class="tl-centered-g" transform="translate(691.50, 214.00) rotate(0.00, 0.50, 24.50)"><defs><mask id="c2565e56-cc9b-4566-35ee-ebede088b248_clip"><rect x="-100" y="-100" width="201" height="249" fill="white"/><rect x="0" y="24.5" width="0" height="0" rx="2" ry="2" fill="black" opacity="1"/></mask></defs><g pointer-events="none" opacity="1" mask=""><path d="M0.88,0.00 Q0.80,11.75 0.77,17.63 T0.71,29.38 0.68,41.13 0.64,47.11 0.57,47.30 0.45,47.47 0.27,47.59 0.07,47.65 -0.14,47.63 -0.34,47.56 -0.50,47.42 -0.60,47.24 -0.65,47.04 -0.63,46.83 -0.54,46.64 -0.39,46.48 -0.21,46.38 0.00,46.35 0.21,46.38 0.39,46.48 0.54,46.64 0.63,46.83 0.65,47.04 0.60,47.24 0.50,47.42 0.34,47.56 0.14,47.63 -0.07,47.65 -0.27,47.59 -0.45,47.47 -0.57,47.30 -0.64,47.10 -0.66,47.00 -0.68,41.13 -0.71,29.38 -0.77,17.63 -0.84,5.88 -0.86,-0.10 -0.81,-0.31 -0.72,-0.49 -0.58,-0.65 -0.40,-0.77 -0.21,-0.84 0.00,-0.87 0.21,-0.84 0.40,-0.77 0.58,-0.65 0.72,-0.49 0.81,-0.31 0.86,-0.10 Z" fill="#1d1d1d" stroke="#1d1d1d" stroke-width="2.11" stroke-dasharray="none" stroke-dashoffset="none" stroke-linecap="round" stroke-linejoin="round" pointer-events="stroke"/><g><path d="M 7.99,35.14359353944898 L 0,49 -7.999999999999999,35.14359353944898" fill="none" stroke="#1d1d1d" stroke-width="4.23" stroke-linecap="round" stroke-linejoin="round" pointer-events="none"/></g></g></g><g text-align="center" text-anchor="middle" transform="translate(233.00, 428.00) rotate(0.00, 453.50, 33.00)"><g id="2e6444be-88df-41fb-16ee-6aecce3d0078_svg" class="tl-centered-g"><path d="M-0.37,21.21 Q-0.62,15.38 -0.73,11.65 T0.99,4.97 9.66,1.18 24.27,0.19 40.10,0.01 56.29,-0.01 72.56,-0.00 88.86,0.02 105.17,0.04 121.47,0.07 137.78,0.09 154.09,0.11 170.39,0.14 186.70,0.16 203.01,0.18 219.32,0.21 235.62,0.23 251.93,0.26 268.24,0.28 284.55,0.30 300.85,0.33 317.16,0.35 333.47,0.37 349.78,0.40 366.08,0.42 382.39,0.45 398.70,0.47 415.01,0.49 431.31,0.52 447.62,0.53 463.93,0.52 480.23,0.49 496.54,0.47 512.85,0.45 529.16,0.42 545.46,0.40 561.77,0.38 578.08,0.35 594.39,0.33 610.69,0.31 627.00,0.28 643.31,0.26 659.62,0.23 675.92,0.21 692.23,0.19 708.54,0.16 724.85,0.14 741.15,0.12 757.46,0.09 773.77,0.07 790.07,0.05 806.38,0.02 822.69,-0.00 839.00,-0.02 855.30,-0.05 871.61,-0.07 887.94,-0.09 900.17,1.66 905.31,7.11 906.54,14.73 906.62,22.60 906.55,30.47 906.61,38.36 906.74,46.25 906.86,54.20 905.06,61.22 896.38,65.10 881.78,66.11 865.96,66.28 849.79,66.30 833.53,66.28 817.25,66.26 800.96,66.22 784.67,66.19 768.38,66.16 752.09,66.13 735.80,66.10 719.51,66.07 703.22,66.04 686.93,66.00 670.64,65.97 654.34,65.94 638.05,65.91 621.76,65.88 605.47,65.85 589.18,65.81 572.89,65.78 556.60,65.75 540.31,65.72 524.02,65.69 507.73,65.66 491.44,65.62 475.15,65.59 458.86,65.57 442.57,65.58 426.28,65.59 409.99,65.61 393.70,65.62 377.41,65.64 361.12,65.65 344.83,65.67 328.54,65.69 312.25,65.70 295.96,65.72 279.67,65.73 263.37,65.75 247.08,65.76 230.79,65.78 214.50,65.79 198.21,65.81 181.92,65.83 165.63,65.84 149.34,65.86 133.05,65.87 116.76,65.89 100.47,65.90 84.18,65.92 67.89,65.93 51.60,65.95 35.31,65.97 18.99,65.98 6.79,64.23 1.60,58.82 0.25,51.25 0.04,43.44 -0.02,35.62 -0.21,27.80 -0.49,18.63 -0.60,13.15 -0.46,12.70 -0.18,12.33 0.21,12.06 0.66,11.93 1.12,11.95 1.56,12.12 1.92,12.42 2.16,12.82 2.27,13.27 2.22,13.74 2.03,14.16 1.71,14.51 1.30,14.73 0.84,14.81 0.38,14.74 -0.04,14.53 -0.36,14.19 -0.56,13.77 -0.62,13.30 -0.52,12.84 -0.28,12.44 0.07,12.14 0.50,11.96 0.97,11.93 1.42,12.05 1.81,12.31 2.10,12.68 2.25,13.12 2.29,13.35 2.25,18.60 2.16,27.77 2.17,35.58 2.41,43.32 2.94,50.77 4.00,57.30 7.83,61.47 19.04,62.71 35.31,62.74 51.60,62.77 67.89,62.80 84.18,62.83 100.47,62.86 116.76,62.90 133.05,62.93 149.34,62.96 165.63,62.99 181.92,63.02 198.21,63.05 214.50,63.09 230.80,63.12 247.09,63.15 263.38,63.18 279.67,63.21 295.96,63.24 312.25,63.28 328.54,63.31 344.83,63.34 361.12,63.37 377.41,63.40 393.70,63.43 409.99,63.47 426.28,63.50 442.57,63.53 458.86,63.55 475.15,63.54 491.44,63.53 507.73,63.51 524.02,63.50 540.31,63.48 556.60,63.47 572.89,63.45 589.18,63.44 605.47,63.42 621.77,63.40 638.06,63.39 654.35,63.37 670.64,63.36 686.93,63.34 703.22,63.33 719.51,63.31 735.80,63.29 752.09,63.28 768.38,63.26 784.67,63.25 800.96,63.23 817.25,63.22 833.53,63.20 849.78,63.17 865.91,63.10 881.59,62.88 895.31,62.31 902.53,59.92 903.78,54.06 904.00,46.23 904.23,38.35 904.36,30.48 904.25,22.68 903.85,15.17 902.89,8.58 899.11,4.40 887.89,3.18 871.61,3.16 855.30,3.13 839.00,3.11 822.69,3.09 806.38,3.06 790.07,3.04 773.77,3.02 757.46,2.99 741.15,2.97 724.85,2.94 708.54,2.92 692.23,2.90 675.92,2.87 659.62,2.85 643.31,2.83 627.00,2.80 610.69,2.78 594.39,2.75 578.08,2.73 561.77,2.71 545.46,2.68 529.16,2.66 512.85,2.64 496.54,2.61 480.23,2.59 463.93,2.56 447.62,2.55 431.31,2.56 415.01,2.59 398.70,2.61 382.39,2.63 366.08,2.66 349.78,2.68 333.47,2.71 317.16,2.73 300.85,2.75 284.55,2.78 268.24,2.80 251.93,2.82 235.62,2.85 219.32,2.87 203.01,2.89 186.70,2.92 170.39,2.94 154.09,2.96 137.78,2.99 121.47,3.01 105.17,3.03 88.86,3.06 72.56,3.09 56.30,3.12 40.14,3.20 24.45,3.41 10.72,3.97 3.52,6.26 2.35,11.75 2.25,18.26 2.17,21.33 2.10,21.63 1.96,21.91 1.76,22.14 1.51,22.31 1.22,22.42 0.92,22.46 0.61,22.43 0.33,22.32 0.07,22.15 -0.13,21.93 -0.28,21.66 -0.35,21.36 Z" fill="#1d1d1d" stroke="#1d1d1d" stroke-width="2" pointer-events="none"/></g><text font-size="28px" font-family="Caveat Brush" font-weight="normal" line-height="28px" letter-spacing="-0.03em" text-align="center" dominant-baseline="mathematical" alignment-baseline="mathematical" text-anchor="middle" transform="translate(390.5, 14)" fill="#1d1d1d" transform-origin="center center"><tspan y="14px" x="67">Output layer
</tspan></text></g><g id="ac1b89a5-f990-4e01-05b2-2c2945192374_svg" class="tl-centered-g" transform="translate(319.62, 333.00) rotate(0.00, 0.50, 39.50)"><defs><mask id="ac1b89a5-f990-4e01-05b2-2c2945192374_clip"><rect x="-100" y="-100" width="201" height="279" fill="white"/><rect x="0.20" y="39.5" width="0" height="0" rx="2.46" ry="2.46" fill="black" opacity="1"/></mask></defs><g pointer-events="none" opacity="1" mask=""><path d="M0.85,-0.00 Q0.86,19.25 0.88,28.87 T0.93,48.12 0.99,67.37 1.00,77.10 0.94,77.28 0.82,77.44 0.66,77.55 0.47,77.61 0.27,77.60 0.09,77.52 -0.06,77.40 -0.17,77.23 -0.21,77.04 -0.19,76.84 -0.11,76.66 0.03,76.52 0.20,76.42 0.40,76.39 0.59,76.42 0.77,76.51 0.90,76.65 0.99,76.83 1.01,77.03 0.97,77.22 0.87,77.39 0.72,77.52 0.53,77.60 0.34,77.61 0.15,77.56 -0.02,77.45 -0.14,77.29 -0.20,77.10 -0.22,77.00 -0.29,67.38 -0.43,48.13 -0.58,28.88 -0.76,9.63 -0.84,-0.10 -0.79,-0.29 -0.69,-0.47 -0.56,-0.63 -0.39,-0.74 -0.21,-0.82 -0.00,-0.84 0.20,-0.82 0.39,-0.75 0.55,-0.63 0.69,-0.48 0.78,-0.30 0.83,-0.11 Z" fill="#1d1d1d" stroke="#1d1d1d" stroke-width="2.11" stroke-dasharray="none" stroke-dashoffset="none" stroke-linecap="round" stroke-linejoin="round" pointer-events="stroke"/><g><path d="M 8.33,65.10226171715081 L 0.41,79 -7.661804290125776,65.1852985735519" fill="none" stroke="#1d1d1d" stroke-width="4.23" stroke-linecap="round" stroke-linejoin="round" pointer-events="none"/></g></g></g><g id="f1bc6223-956e-428b-37ca-38e9e613eb58_svg" class="tl-centered-g" transform="translate(688.12, 341.00) rotate(0.00, 1.18, 35.50)"><defs><mask id="f1bc6223-956e-428b-37ca-38e9e613eb58_clip"><rect x="-100" y="-100" width="202.35" height="271" fill="white"/><rect x="1.17" y="35.5" width="0" height="0" rx="2.21" ry="2.21" fill="black" opacity="1"/></mask></defs><g pointer-events="none" opacity="1" mask=""><path d="M3.38,0.03 Q2.75,17.28 2.44,25.91 T1.84,43.16 1.24,60.41 0.91,69.17 0.81,69.43 0.64,69.65 0.40,69.80 0.13,69.86 -0.15,69.84 -0.40,69.73 -0.61,69.54 -0.75,69.29 -0.80,69.02 -0.76,68.74 -0.63,68.49 -0.43,68.30 -0.18,68.17 0.09,68.14 0.37,68.19 0.61,68.33 0.80,68.54 0.90,68.80 0.93,69.08 0.86,69.35 0.70,69.58 0.49,69.75 0.22,69.85 -0.06,69.86 -0.32,69.77 -0.55,69.61 -0.71,69.38 -0.79,69.11 -0.81,68.97 -0.53,60.35 0.01,43.10 0.54,25.84 1.06,8.59 1.34,-0.16 1.41,-0.39 1.53,-0.61 1.70,-0.79 1.90,-0.92 2.14,-1.00 2.38,-1.02 2.63,-0.99 2.86,-0.89 3.05,-0.74 3.21,-0.55 3.32,-0.33 3.37,-0.09 Z" fill="#1d1d1d" stroke="#1d1d1d" stroke-width="2.11" stroke-dasharray="none" stroke-dashoffset="none" stroke-linecap="round" stroke-linejoin="round" pointer-events="stroke"/><g><path d="M 8.45,57.41582108292002 L 0,71 -7.537245003214674,56.886533460502505" fill="none" stroke="#1d1d1d" stroke-width="4.23" stroke-linecap="round" stroke-linejoin="round" pointer-events="none"/></g></g></g><g id="26540e34-4c49-40e1-3307-a41fe066e9a3_svg" class="tl-centered-g" transform="translate(1043.70, 326.00) rotate(0.00, 0.50, 43.00)"><defs><mask id="26540e34-4c49-40e1-3307-a41fe066e9a3_clip"><rect x="-100" y="-100" width="201" height="286" fill="white"/><rect x="0.32" y="43" width="0" height="0" rx="2.68" ry="2.68" fill="black" opacity="1"/></mask></defs><g pointer-events="none" opacity="1" mask=""><path d="M1.52,0.01 Q1.28,21.01 1.17,31.51 T0.97,52.51 0.77,73.51 0.66,84.11 0.59,84.31 0.46,84.48 0.28,84.59 0.08,84.65 -0.13,84.64 -0.33,84.56 -0.49,84.42 -0.59,84.24 -0.64,84.03 -0.61,83.82 -0.52,83.63 -0.38,83.48 -0.19,83.38 0.02,83.35 0.23,83.38 0.41,83.48 0.56,83.64 0.65,83.83 0.67,84.04 0.62,84.25 0.51,84.43 0.35,84.56 0.15,84.64 -0.06,84.65 -0.26,84.59 -0.44,84.47 -0.56,84.30 -0.63,84.10 -0.65,84.00 -0.58,73.50 -0.47,52.49 -0.36,31.49 -0.28,10.49 -0.22,-0.11 -0.17,-0.32 -0.07,-0.50 0.07,-0.66 0.24,-0.77 0.44,-0.85 0.65,-0.87 0.85,-0.84 1.05,-0.77 1.22,-0.65 1.36,-0.49 1.46,-0.30 1.51,-0.10 Z" fill="#1d1d1d" stroke="#1d1d1d" stroke-width="2.11" stroke-dasharray="none" stroke-dashoffset="none" stroke-linecap="round" stroke-linejoin="round" pointer-events="stroke"/><g><path d="M 8.10,72.20351045155557 L 0,86 -7.8966638958945286,72.08444398109526" fill="none" stroke="#1d1d1d" stroke-width="4.23" stroke-linecap="round" stroke-linejoin="round" pointer-events="none"/></g></g></g><g text-align="center" text-anchor="middle" transform="translate(242.00, 549.00) rotate(0.00, 89.00, 39.50)"><g id="6c57ae0f-774e-453f-06d4-067983dc4b36_svg" class="tl-centered-g"><path d="M-0.55,25.27 Q-0.82,17.93 -0.96,13.28 T0.74,5.42 9.62,1.32 24.75,0.27 41.18,0.08 57.97,0.05 74.86,0.06 91.78,-0.04 108.71,-0.28 125.63,-0.51 142.56,-0.74 159.50,-0.97 172.14,0.70 177.40,6.93 178.63,16.24 178.70,26.07 178.63,35.98 178.68,45.92 178.81,55.87 178.93,65.87 177.12,74.18 168.25,78.36 153.23,79.39 136.92,79.52 120.25,79.47 103.48,79.39 86.69,79.42 69.90,79.58 53.10,79.75 36.30,79.91 19.48,80.06 6.93,78.36 1.64,72.17 0.25,62.94 0.00,53.21 -0.11,43.40 -0.34,33.56 -0.68,22.03 -0.82,15.19 -0.68,14.74 -0.40,14.37 -0.01,14.10 0.43,13.97 0.90,13.99 1.34,14.16 1.70,14.45 1.94,14.85 2.05,15.31 2.01,15.77 1.82,16.20 1.50,16.54 1.09,16.77 0.63,16.85 0.17,16.78 -0.25,16.56 -0.58,16.23 -0.78,15.81 -0.83,15.34 -0.74,14.88 -0.50,14.48 -0.15,14.17 0.28,14.00 0.75,13.96 1.20,14.08 1.59,14.34 1.88,14.71 2.03,15.15 2.07,15.38 2.06,21.99 2.03,33.53 2.08,43.35 2.37,53.10 2.95,62.52 4.09,70.78 8.01,75.66 19.52,76.90 36.30,77.00 53.09,77.10 69.89,77.19 86.69,77.29 103.48,77.26 120.23,77.08 136.87,76.87 153.03,76.49 167.19,75.69 174.59,72.93 175.84,65.76 176.07,55.86 176.31,45.91 176.44,35.98 176.33,26.13 175.92,16.62 174.92,8.26 171.06,3.37 159.48,2.19 142.57,2.17 125.65,2.14 108.72,2.11 91.80,2.09 74.88,2.19 57.99,2.44 41.23,2.73 24.95,3.17 10.69,3.99 3.26,6.66 2.13,13.34 2.06,21.57 1.99,25.39 1.93,25.69 1.79,25.96 1.59,26.19 1.34,26.37 1.05,26.48 0.75,26.52 0.44,26.49 0.16,26.38 -0.10,26.21 -0.30,25.99 -0.45,25.72 -0.52,25.42 Z" fill="#1d1d1d" stroke="#1d1d1d" stroke-width="2" pointer-events="none"/></g><text font-size="28px" font-family="Caveat Brush" font-weight="normal" line-height="28px" letter-spacing="-0.03em" text-align="center" dominant-baseline="mathematical" alignment-baseline="mathematical" text-anchor="middle" transform="translate(55, 20.5)" fill="#1d1d1d" transform-origin="center center"><tspan y="14px" x="38">screen
</tspan></text></g><g text-align="center" text-anchor="middle" transform="translate(439.00, 551.00) rotate(0.00, 68.00, 36.50)"><g id="8e58feba-2e92-4aa8-386c-a49833de8286_svg" class="tl-centered-g"><path d="M41.24,73.95 Q27.88,74.12 19.48,74.20 T6.97,72.51 1.71,66.62 0.38,58.04 0.19,49.07 0.16,40.04 -0.01,30.99 -0.25,21.94 -0.48,12.84 1.26,5.08 10.55,1.08 26.53,0.18 43.92,0.15 61.72,0.20 79.63,0.09 97.56,-0.09 115.52,-0.27 128.77,1.42 134.22,7.31 135.59,15.90 135.77,24.89 135.79,33.92 135.94,42.98 136.16,52.04 136.37,61.16 134.62,68.93 125.33,72.92 109.37,73.81 91.99,73.83 74.21,73.77 56.32,73.86 35.34,74.04 23.08,74.08 22.64,73.93 22.27,73.65 22.00,73.26 21.88,72.81 21.90,72.34 22.08,71.91 22.38,71.55 22.78,71.31 23.24,71.21 23.70,71.26 24.13,71.46 24.47,71.78 24.69,72.19 24.76,72.66 24.68,73.12 24.47,73.53 24.13,73.85 23.70,74.05 23.24,74.10 22.78,74.00 22.38,73.76 22.08,73.40 21.90,72.96 21.88,72.50 22.00,72.05 22.27,71.66 22.64,71.38 23.08,71.23 23.32,71.19 35.34,71.29 56.32,71.49 74.20,71.59 91.96,71.46 109.21,71.07 124.31,70.29 132.11,67.66 133.28,61.07 133.42,52.05 133.56,42.99 133.60,33.95 133.40,24.98 132.89,16.34 131.78,8.74 127.72,4.14 115.48,2.84 97.56,2.65 79.63,2.46 61.73,2.38 43.95,2.52 26.69,2.92 11.58,3.70 3.77,6.34 2.60,12.92 2.49,21.93 2.36,30.98 2.34,40.01 2.56,48.97 3.07,57.61 4.15,65.20 8.04,69.80 19.53,71.10 34.56,71.29 41.39,71.41 41.69,71.48 41.96,71.63 42.19,71.83 42.36,72.08 42.47,72.37 42.51,72.67 42.47,72.98 42.36,73.26 42.19,73.51 41.96,73.72 41.69,73.86 41.39,73.93 Z" fill="#1d1d1d" stroke="#1d1d1d" stroke-width="2" pointer-events="none"/></g><text font-size="28px" font-family="Caveat Brush" font-weight="normal" line-height="28px" letter-spacing="-0.03em" text-align="center" dominant-baseline="mathematical" alignment-baseline="mathematical" text-anchor="middle" transform="translate(38.5, 17.5)" fill="#1d1d1d" transform-origin="center center"><tspan y="14px" x="33.5">audio
</tspan></text></g><g text-align="center" text-anchor="middle" transform="translate(591.00, 555.00) rotate(0.00, 72.50, 35.00)"><g id="282c7ed6-b85a-4ab7-0d39-6c2d7d17b24d_svg" class="tl-centered-g"><path d="M0.15,21.51 Q0.07,15.09 0.05,11.02 T1.90,3.90 10.81,0.10 25.88,-0.71 42.22,-0.69 58.93,-0.50 75.74,-0.44 92.58,-0.52 109.42,-0.61 126.28,-0.69 138.85,1.06 144.04,6.77 145.20,14.91 145.18,23.38 145.01,31.88 144.97,40.40 145.00,48.93 145.02,57.51 143.15,64.92 134.25,68.82 119.20,69.72 102.87,69.76 86.18,69.64 69.39,69.65 52.58,69.80 35.75,69.96 18.91,70.11 6.35,68.40 1.15,62.67 -0.03,54.47 -0.03,45.92 0.12,37.35 0.14,28.75 0.10,18.67 0.14,12.67 0.30,12.23 0.59,11.86 0.98,11.60 1.43,11.48 1.90,11.52 2.33,11.70 2.68,12.00 2.91,12.41 3.01,12.87 2.95,13.33 2.75,13.75 2.42,14.09 2.00,14.30 1.54,14.37 1.08,14.28 0.67,14.06 0.36,13.72 0.17,13.29 0.12,12.82 0.23,12.37 0.48,11.97 0.84,11.67 1.28,11.51 1.74,11.49 2.19,11.62 2.57,11.89 2.85,12.27 2.99,12.71 3.03,12.95 2.85,18.72 2.51,28.78 2.30,37.36 2.34,45.87 2.67,54.07 3.60,61.27 7.42,65.70 18.96,66.98 35.76,67.15 52.58,67.32 69.39,67.48 86.17,67.48 102.84,67.27 119.03,66.91 133.21,66.17 140.63,63.62 141.94,57.35 142.26,48.88 142.60,40.37 142.83,31.86 142.81,23.43 142.50,15.30 141.59,8.17 137.77,3.76 126.22,2.44 109.40,2.20 92.56,1.96 75.73,1.73 58.93,1.66 42.24,1.80 26.03,2.09 11.84,2.76 4.42,5.21 3.13,11.17 2.85,18.34 2.69,21.70 2.61,21.99 2.46,22.26 2.26,22.49 2.00,22.66 1.71,22.76 1.41,22.79 1.11,22.75 0.82,22.64 0.57,22.46 0.37,22.23 0.24,21.96 0.17,21.66 Z" fill="#1d1d1d" stroke="#1d1d1d" stroke-width="2" pointer-events="none"/></g><text font-size="28px" font-family="Caveat Brush" font-weight="normal" line-height="28px" letter-spacing="-0.03em" text-align="center" dominant-baseline="mathematical" alignment-baseline="mathematical" text-anchor="middle" transform="translate(26, 16)" fill="#1d1d1d" transform-origin="center center"><tspan y="14px" x="50.5">vibration
</tspan></text></g><g text-align="center" text-anchor="middle" transform="translate(754.00, 555.00) rotate(0.00, 75.50, 33.50)"><g id="ff167dba-588f-447e-0d9e-a7865979b6d9_svg" class="tl-centered-g"><path d="M58.10,67.08 Q45.01,67.30 36.79,67.42 T19.91,67.66 7.07,66.03 1.71,60.49 0.28,52.61 0.01,44.43 -0.10,36.24 -0.34,28.04 -0.65,19.83 -0.95,11.57 0.75,4.33 9.95,0.50 25.73,-0.29 42.90,-0.22 60.47,0.02 78.14,0.13 95.84,0.08 113.55,0.05 131.29,0.01 144.38,1.77 149.75,7.25 151.07,14.95 151.19,22.91 151.15,30.88 151.24,38.85 151.40,46.82 151.55,54.86 149.76,61.93 140.60,65.79 124.92,66.74 107.88,66.86 90.44,66.83 72.90,66.92 52.32,67.18 40.31,67.29 39.91,67.15 39.57,66.90 39.34,66.55 39.22,66.14 39.24,65.72 39.40,65.33 39.67,65.00 40.03,64.78 40.44,64.69 40.86,64.73 41.25,64.91 41.56,65.20 41.76,65.57 41.83,65.99 41.76,66.41 41.56,66.78 41.26,67.07 40.88,67.25 40.46,67.30 40.04,67.21 39.68,67.00 39.40,66.68 39.24,66.28 39.22,65.86 39.33,65.45 39.57,65.10 39.90,64.84 40.30,64.71 40.51,64.67 52.31,64.70 72.88,64.76 90.42,64.67 107.83,64.37 124.75,63.93 139.56,63.14 147.24,60.64 148.47,54.73 148.66,46.81 148.87,38.84 148.97,30.89 148.82,23.00 148.39,15.42 147.35,8.75 143.33,4.52 131.22,3.14 113.53,2.86 95.83,2.57 78.13,2.29 60.46,2.18 42.91,2.27 25.87,2.52 10.95,3.15 3.25,5.60 2.13,11.64 2.09,19.79 2.03,28.00 2.09,36.19 2.38,44.31 2.96,52.12 4.10,58.98 8.10,63.27 19.94,64.53 36.78,64.61 51.54,64.70 58.23,64.77 58.50,64.83 58.75,64.96 58.96,65.15 59.12,65.37 59.22,65.63 59.25,65.91 59.22,66.19 59.12,66.45 58.96,66.68 58.76,66.86 58.51,66.99 58.24,67.06 Z" fill="#1d1d1d" stroke="#1d1d1d" stroke-width="2" pointer-events="none"/></g><text font-size="28px" font-family="Caveat Brush" font-weight="normal" line-height="28px" letter-spacing="-0.03em" text-align="center" dominant-baseline="mathematical" alignment-baseline="mathematical" text-anchor="middle" transform="translate(53.5, 14.5)" fill="#1d1d1d" transform-origin="center center"><tspan y="14px" x="26">???
</tspan></text></g><g id="a70fabdd-20ac-4d8f-2d2a-865db2d7facc_svg" class="tl-centered-g" transform="translate(330.07, 494.00) rotate(0.00, 0.50, 19.50)"><defs><mask id="a70fabdd-20ac-4d8f-2d2a-865db2d7facc_clip"><rect x="-100" y="-100" width="201" height="239" fill="white"/><rect x="0.19" y="19.5" width="0" height="0" rx="2" ry="2" fill="black" opacity="1"/></mask></defs><g pointer-events="none" opacity="1" mask=""><path d="M0.94,-0.01 Q0.96,9.24 0.98,13.87 T1.02,23.12 1.08,32.37 1.09,37.11 1.01,37.34 0.87,37.53 0.68,37.67 0.45,37.73 0.21,37.72 -0.01,37.63 -0.20,37.48 -0.32,37.28 -0.37,37.05 -0.35,36.81 -0.25,36.59 -0.09,36.42 0.12,36.30 0.35,36.26 0.59,36.30 0.80,36.41 0.97,36.58 1.07,36.80 1.10,37.03 1.05,37.27 0.93,37.47 0.75,37.63 0.53,37.72 0.29,37.73 0.06,37.67 -0.14,37.54 -0.29,37.35 -0.37,37.13 -0.39,37.01 -0.45,32.38 -0.57,23.13 -0.71,13.88 -0.86,4.63 -0.93,-0.10 -0.87,-0.32 -0.77,-0.52 -0.62,-0.69 -0.44,-0.82 -0.23,-0.90 -0.01,-0.93 0.21,-0.91 0.43,-0.83 0.61,-0.70 0.76,-0.54 0.87,-0.34 0.92,-0.12 Z" fill="#1d1d1d" stroke="#1d1d1d" stroke-width="2.11" stroke-dasharray="none" stroke-dashoffset="none" stroke-linecap="round" stroke-linejoin="round" pointer-events="stroke"/><g><path d="M 6.77,27.678336417468962 L 0.38,39 -6.229696551146028,27.805003084135627" fill="none" stroke="#1d1d1d" stroke-width="4.23" stroke-linecap="round" stroke-linejoin="round" pointer-events="none"/></g></g></g><g id="c554c84a-961d-4142-372f-9b364abedc0d_svg" class="tl-centered-g" transform="translate(501.27, 494.00) rotate(0.00, 1.25, 20.50)"><defs><mask id="c554c84a-961d-4142-372f-9b364abedc0d_clip"><rect x="-100" y="-100" width="202.51" height="241" fill="white"/><rect x="1.25" y="20.5" width="0" height="0" rx="2" ry="2" fill="black" opacity="1"/></mask></defs><g pointer-events="none" opacity="1" mask=""><path d="M1.01,-0.06 Q1.55,9.69 1.82,14.57 T2.38,24.32 2.95,34.08 3.22,39.09 3.15,39.35 3.00,39.57 2.78,39.74 2.53,39.83 2.26,39.83 2.00,39.74 1.79,39.58 1.63,39.36 1.56,39.10 1.57,38.83 1.67,38.58 1.84,38.37 2.07,38.23 2.34,38.17 2.61,38.20 2.85,38.31 3.05,38.49 3.18,38.73 3.22,39.00 3.18,39.27 3.06,39.51 2.86,39.69 2.62,39.81 2.35,39.84 2.08,39.78 1.85,39.64 1.67,39.44 1.57,39.19 1.54,39.06 1.23,34.18 0.61,24.43 -0.03,14.68 -0.68,4.94 -1.00,-0.06 -0.96,-0.30 -0.86,-0.52 -0.71,-0.71 -0.52,-0.86 -0.30,-0.96 -0.06,-1.00 0.18,-0.99 0.41,-0.92 0.62,-0.79 0.79,-0.62 0.92,-0.41 0.99,-0.18 Z" fill="#1d1d1d" stroke="#1d1d1d" stroke-width="2.11" stroke-dasharray="none" stroke-dashoffset="none" stroke-linecap="round" stroke-linejoin="round" pointer-events="stroke"/><g><path d="M 8.61,28.74598614827934 L 2.51,41 -5.047907921166312,29.582652814946005" fill="none" stroke="#1d1d1d" stroke-width="4.23" stroke-linecap="round" stroke-linejoin="round" pointer-events="none"/></g></g></g><g id="1a78cfec-a6d0-4484-0409-3530dd2444f4_svg" class="tl-centered-g" transform="translate(665.08, 494.00) rotate(0.00, 0.70, 22.50)"><defs><mask id="1a78cfec-a6d0-4484-0409-3530dd2444f4_clip"><rect x="-100" y="-100" width="201.4" height="245" fill="white"/><rect x="0.7" y="22.5" width="0" height="0" rx="2" ry="2" fill="black" opacity="1"/></mask></defs><g pointer-events="none" opacity="1" mask=""><path d="M2.34,0.03 Q1.94,10.78 1.74,16.15 T1.36,26.90 1.00,37.65 0.79,43.14 0.71,43.37 0.56,43.56 0.35,43.68 0.12,43.74 -0.12,43.72 -0.34,43.62 -0.52,43.46 -0.64,43.25 -0.68,43.02 -0.65,42.78 -0.54,42.57 -0.37,42.40 -0.15,42.29 0.09,42.26 0.32,42.31 0.53,42.42 0.69,42.60 0.78,42.82 0.80,43.06 0.74,43.30 0.61,43.50 0.42,43.65 0.20,43.73 -0.04,43.74 -0.27,43.66 -0.46,43.52 -0.60,43.33 -0.67,43.10 -0.69,42.98 -0.54,37.60 -0.24,26.85 0.05,16.10 0.33,5.35 0.48,-0.14 0.54,-0.36 0.65,-0.56 0.80,-0.72 0.99,-0.84 1.20,-0.92 1.43,-0.94 1.65,-0.90 1.86,-0.81 2.04,-0.68 2.19,-0.51 2.28,-0.30 2.33,-0.08 Z" fill="#1d1d1d" stroke="#1d1d1d" stroke-width="2.11" stroke-dasharray="none" stroke-dashoffset="none" stroke-linecap="round" stroke-linejoin="round" pointer-events="stroke"/><g><path d="M 7.90,32.242952276566754 L 0,45 -7.0958548115672615,31.776285609900086" fill="none" stroke="#1d1d1d" stroke-width="4.23" stroke-linecap="round" stroke-linejoin="round" pointer-events="none"/></g></g></g><g id="987b6d0f-6638-4f69-0a33-df9b3c837b09_svg" class="tl-centered-g" transform="translate(837.23, 494.00) rotate(0.00, 0.50, 22.50)"><defs><mask id="987b6d0f-6638-4f69-0a33-df9b3c837b09_clip"><rect x="-100" y="-100" width="201" height="245" fill="white"/><rect x="0.32" y="22.5" width="0" height="0" rx="2" ry="2" fill="black" opacity="1"/></mask></defs><g pointer-events="none" opacity="1" mask=""><path d="M1.03,-0.01 Q1.12,10.74 1.17,16.11 T1.29,26.86 1.41,37.61 1.45,43.13 1.37,43.39 1.20,43.62 0.97,43.78 0.71,43.85 0.43,43.84 0.17,43.74 -0.05,43.57 -0.19,43.33 -0.26,43.06 -0.23,42.78 -0.12,42.53 0.07,42.32 0.32,42.19 0.59,42.14 0.87,42.18 1.11,42.31 1.31,42.51 1.43,42.76 1.46,43.03 1.40,43.31 1.26,43.55 1.06,43.73 0.80,43.84 0.52,43.86 0.25,43.79 0.02,43.63 -0.15,43.41 -0.24,43.15 -0.27,43.01 -0.36,37.64 -0.53,26.89 -0.72,16.14 -0.92,5.39 -1.02,-0.11 -0.96,-0.35 -0.85,-0.57 -0.69,-0.75 -0.49,-0.90 -0.26,-0.99 -0.01,-1.02 0.23,-0.99 0.46,-0.91 0.67,-0.77 0.83,-0.59 0.95,-0.38 1.01,-0.14 Z" fill="#1d1d1d" stroke="#1d1d1d" stroke-width="2.11" stroke-dasharray="none" stroke-dashoffset="none" stroke-linecap="round" stroke-linejoin="round" pointer-events="stroke"/><g><path d="M 7.94,31.90461894323342 L 0.63,45 -7.051865334794731,32.114618943233424" fill="none" stroke="#1d1d1d" stroke-width="4.23" stroke-linecap="round" stroke-linejoin="round" pointer-events="none"/></g></g></g><g id="e279c95c-446c-4cea-0a91-780af33d8044_svg" class="tl-centered-g" transform="translate(16.00, 16.00) rotate(0.00, 103.50, 309.50)"><path d="M112.42,619.14 Q99.11,619.09 90.76,619.11 T73.63,619.17 55.95,619.22 38.13,619.27 20.25,619.31 7.00,617.46 1.50,608.74 0.07,594.01 -0.21,577.99 -0.24,561.64 -0.22,545.21 -0.18,528.76 -0.14,512.30 -0.10,495.84 -0.06,479.37 -0.02,462.91 0.02,446.45 0.07,429.99 0.11,413.52 0.15,397.06 0.19,380.60 0.24,364.14 0.28,347.67 0.32,331.21 0.34,314.75 0.33,298.29 0.30,281.82 0.28,265.36 0.25,248.90 0.22,232.44 0.19,215.97 0.16,199.51 0.14,183.05 0.11,166.59 0.08,150.13 0.05,133.66 0.02,117.20 -0.01,100.74 -0.03,84.28 -0.06,67.81 -0.09,51.35 -0.12,34.89 -0.14,18.40 1.73,6.01 10.98,0.79 26.87,-0.44 44.22,-0.57 61.95,-0.47 79.78,-0.31 97.63,-0.20 115.50,-0.20 133.36,-0.26 151.22,-0.32 169.09,-0.39 186.97,-0.44 200.23,1.41 205.73,10.12 207.16,24.85 207.43,40.88 207.47,57.23 207.45,73.66 207.41,90.12 207.37,106.58 207.33,123.05 207.29,139.52 207.25,155.98 207.21,172.45 207.17,188.91 207.12,205.38 207.08,221.84 207.04,238.31 207.00,254.77 206.96,271.24 206.92,287.71 206.89,304.17 206.90,320.64 206.93,337.10 206.96,353.57 206.99,370.03 207.02,386.50 207.05,402.96 207.08,419.43 207.11,435.90 207.13,452.36 207.16,468.83 207.19,485.29 207.22,501.76 207.25,518.22 207.28,534.69 207.31,551.15 207.34,567.62 207.36,584.09 207.39,600.58 205.52,612.97 196.27,618.18 180.37,619.41 163.02,619.53 145.29,619.41 127.46,619.25 109.60,619.13 91.74,619.12 70.82,619.16 58.62,619.13 58.23,619.00 57.90,618.75 57.67,618.41 57.56,618.01 57.58,617.59 57.74,617.21 58.01,616.90 58.36,616.68 58.77,616.60 59.18,616.64 59.55,616.82 59.85,617.10 60.05,617.47 60.11,617.88 60.04,618.29 59.85,618.65 59.55,618.93 59.17,619.11 58.76,619.15 58.35,619.06 58.00,618.84 57.73,618.53 57.58,618.14 57.56,617.73 57.67,617.33 57.91,616.99 58.24,616.74 58.63,616.61 58.84,616.58 70.83,616.68 91.75,616.88 109.61,617.01 127.47,617.01 145.29,616.94 162.98,616.82 180.14,616.48 195.21,615.52 203.02,611.78 204.13,600.53 204.17,584.08 204.21,567.62 204.25,551.15 204.29,534.69 204.34,518.22 204.38,501.76 204.42,485.29 204.46,468.83 204.50,452.36 204.54,435.89 204.58,419.43 204.63,402.96 204.67,386.50 204.71,370.03 204.75,353.57 204.79,337.10 204.83,320.64 204.86,304.17 204.85,287.70 204.82,271.24 204.79,254.77 204.76,238.31 204.73,221.84 204.70,205.38 204.67,188.91 204.65,172.45 204.62,155.98 204.59,139.51 204.56,123.05 204.53,106.58 204.50,90.12 204.47,73.67 204.42,57.24 204.31,40.94 203.98,25.13 203.01,11.24 199.06,3.94 186.92,2.73 169.08,2.56 151.21,2.38 133.35,2.21 115.49,2.03 97.63,1.92 79.77,1.92 61.95,2.00 44.26,2.14 27.10,2.49 12.03,3.45 4.23,7.20 3.11,18.45 3.08,34.89 3.03,51.35 2.99,67.81 2.95,84.28 2.91,100.74 2.87,117.20 2.82,133.66 2.78,150.13 2.74,166.59 2.70,183.05 2.66,199.51 2.61,215.98 2.57,232.44 2.53,248.90 2.49,265.36 2.45,281.83 2.40,298.29 2.38,314.75 2.39,331.21 2.42,347.68 2.45,364.14 2.47,380.60 2.50,397.06 2.53,413.52 2.56,429.99 2.59,446.45 2.62,462.91 2.64,479.37 2.67,495.84 2.70,512.30 2.73,528.76 2.76,545.21 2.81,561.63 2.92,577.93 3.25,593.73 4.22,607.62 8.17,614.93 20.31,616.14 38.14,616.32 55.96,616.51 73.63,616.69 90.77,616.88 105.78,616.99 112.56,617.04 112.80,617.10 113.03,617.22 113.22,617.38 113.36,617.59 113.45,617.83 113.48,618.08 113.45,618.33 113.36,618.57 113.21,618.78 113.02,618.95 112.80,619.06 112.55,619.12 Z" fill="#1d1d1d" stroke="#1d1d1d" stroke-width="2" pointer-events="none"/></g><g id="ed3d332a-dcfe-4e5c-2746-cef63056a523_svg" class="tl-centered-g" transform="translate(29.00, 151.00) rotate(0.00, 92.00, 175.50)"><path d="M91.51,-0.21 Q104.49,-0.34 112.64,-0.41 T129.36,-0.54 146.60,-0.68 164.01,-0.81 176.98,1.00 182.41,9.93 183.79,25.14 184.04,41.71 184.06,58.64 184.02,75.65 183.96,92.69 183.90,109.73 183.84,126.78 183.78,143.82 183.72,160.87 183.73,177.92 183.80,194.96 183.87,212.01 183.94,229.06 184.01,246.10 184.07,263.15 184.14,280.19 184.21,297.24 184.28,314.29 184.35,331.36 182.50,344.11 173.44,349.42 157.94,350.69 141.04,350.83 123.78,350.74 106.42,350.59 89.04,350.56 71.65,350.65 54.26,350.74 36.87,350.83 19.46,350.92 6.50,349.09 1.08,340.16 -0.33,324.96 -0.59,308.41 -0.63,291.51 -0.61,274.52 -0.57,257.50 -0.53,240.48 -0.49,223.45 -0.45,206.43 -0.41,189.41 -0.43,172.38 -0.52,155.36 -0.61,138.33 -0.70,121.31 -0.79,104.29 -0.87,87.26 -0.96,70.24 -1.05,53.21 -1.14,36.19 -1.22,19.14 0.61,6.40 9.68,1.08 25.21,-0.23 42.15,-0.41 59.45,-0.36 76.84,-0.26 94.26,-0.27 114.67,-0.41 126.57,-0.44 126.95,-0.32 127.27,-0.07 127.49,0.26 127.60,0.65 127.58,1.05 127.43,1.42 127.17,1.73 126.83,1.94 126.43,2.02 126.03,1.98 125.67,1.81 125.38,1.54 125.19,1.18 125.12,0.78 125.19,0.39 125.37,0.03 125.67,-0.25 126.03,-0.42 126.43,-0.46 126.82,-0.37 127.17,-0.17 127.43,0.14 127.58,0.52 127.60,0.92 127.49,1.30 127.27,1.64 126.95,1.88 126.57,2.01 126.37,2.04 114.67,1.98 94.26,1.86 76.84,1.87 59.46,2.03 42.20,2.24 25.46,2.67 10.76,3.71 3.12,7.58 2.00,19.18 1.96,36.19 1.92,53.21 1.88,70.23 1.84,87.26 1.80,104.28 1.76,121.31 1.72,138.33 1.67,155.35 1.63,172.38 1.66,189.40 1.75,206.43 1.83,223.45 1.92,240.47 2.01,257.50 2.11,274.51 2.22,291.49 2.38,308.35 2.76,324.69 3.77,339.06 7.67,346.56 19.51,347.76 36.88,347.92 54.27,348.09 71.66,348.26 89.05,348.43 106.43,348.46 123.77,348.35 140.99,348.18 157.70,347.80 172.37,346.78 179.99,342.93 181.12,331.31 181.18,314.29 181.24,297.24 181.30,280.20 181.36,263.15 181.42,246.10 181.48,229.06 181.54,212.01 181.60,194.96 181.66,177.92 181.66,160.87 181.59,143.82 181.52,126.78 181.45,109.73 181.38,92.69 181.30,75.65 181.21,58.65 181.07,41.77 180.70,25.40 179.71,11.02 175.82,3.52 163.96,2.35 146.60,2.23 129.36,2.11 112.64,1.98 98.00,1.86 91.39,1.78 91.16,1.72 90.95,1.61 90.77,1.45 90.63,1.26 90.54,1.03 90.52,0.79 90.54,0.56 90.63,0.33 90.77,0.14 90.94,-0.02 91.16,-0.13 91.39,-0.19 Z" fill="#1d1d1d" stroke="#1d1d1d" stroke-width="2" pointer-events="none"/></g><g id="2763203e-07aa-42b1-0826-a902d714f508_svg" class="tl-centered-g" transform="translate(42.00, 218.00) rotate(0.00, 79.00, 95.50)"><path d="M96.96,0.46 Q110.74,0.31 119.39,0.23 T137.16,0.08 150.63,1.88 156.14,11.17 157.49,27.15 157.68,44.61 157.62,62.45 157.51,80.39 157.52,98.35 157.65,116.32 157.78,134.30 157.91,152.27 158.03,170.27 156.21,183.60 146.77,189.07 130.44,190.41 112.59,190.59 94.35,190.54 76.00,190.59 57.62,190.79 39.24,190.98 20.83,191.17 7.24,189.39 1.66,180.11 0.23,164.10 -0.05,146.61 -0.09,128.74 -0.07,110.77 -0.16,92.78 -0.39,74.77 -0.61,56.77 -0.83,38.77 -1.04,20.74 0.72,7.38 10.19,1.92 26.61,0.62 44.57,0.47 62.93,0.56 81.39,0.55 103.05,0.39 115.67,0.34 116.07,0.48 116.41,0.73 116.65,1.08 116.76,1.49 116.74,1.91 116.58,2.31 116.31,2.63 115.94,2.85 115.53,2.94 115.11,2.89 114.73,2.71 114.42,2.42 114.22,2.05 114.15,1.63 114.22,1.21 114.42,0.84 114.73,0.55 115.11,0.37 115.53,0.33 115.94,0.42 116.31,0.64 116.58,0.96 116.74,1.35 116.76,1.77 116.65,2.18 116.41,2.53 116.07,2.79 115.67,2.92 115.46,2.96 103.05,2.87 81.39,2.71 62.94,2.72 44.62,2.96 26.85,3.42 11.24,4.53 3.22,8.55 2.12,20.77 2.08,38.75 2.04,56.76 2.00,74.76 1.97,92.76 2.06,110.76 2.30,128.72 2.60,146.54 3.12,163.84 4.29,179.02 8.40,186.88 20.87,188.04 39.23,188.17 57.62,188.30 75.99,188.43 94.33,188.37 112.54,188.10 130.20,187.61 145.71,186.47 153.71,182.43 154.87,170.22 155.00,152.27 155.13,134.30 155.26,116.32 155.39,98.35 155.38,80.39 155.23,62.46 155.03,44.66 154.59,27.40 153.50,12.24 149.46,4.39 137.11,3.21 119.39,3.04 103.85,2.87 96.82,2.77 96.55,2.70 96.30,2.58 96.10,2.39 95.94,2.16 95.84,1.90 95.81,1.63 95.84,1.35 95.94,1.09 96.10,0.86 96.30,0.68 96.55,0.55 96.82,0.48 Z" fill="#1d1d1d" stroke="#1d1d1d" stroke-width="2" pointer-events="none"/></g><text font-size="28px" font-family="Caveat Brush" font-weight="normal" line-height="28px" letter-spacing="-0.03em" text-align="center" dominant-baseline="mathematical" alignment-baseline="mathematical" text-anchor="middle" fill="#1d1d1d" transform="translate(61.00, 51.00) rotate(0.00, 50.00, 19.00)"><tspan y="14px" x="54">Hardware
</tspan></text><text font-size="28px" font-family="Caveat Brush" font-weight="normal" line-height="28px" letter-spacing="-0.03em" text-align="center" dominant-baseline="mathematical" alignment-baseline="mathematical" text-anchor="middle" fill="#1d1d1d" transform="translate(35.00, 165.00) rotate(0.00, 85.00, 19.00)"><tspan y="14px" x="89">Operating System
</tspan></text><text font-size="28px" font-family="Caveat Brush" font-weight="normal" line-height="28px" letter-spacing="-0.03em" text-align="center" dominant-baseline="mathematical" alignment-baseline="mathematical" text-anchor="middle" fill="#1d1d1d" transform="translate(55.00, 286.00) rotate(0.00, 61.00, 19.00)"><tspan y="14px" x="65">Applications
</tspan></text></svg>