<?xml version="1.0" encoding="UTF-8" standalone="no"?>
<!-- Created with Inkscape (http://www.inkscape.org/) -->

<svg
   width="400"
   height="200"
   viewBox="0 0 105.83333 52.916667"
   version="1.1"
   id="svg5"
   inkscape:version="1.2 (56b05e47e7, 2022-06-09, custom)"
   sodipodi:docname="roadbike.svg"
   xmlns:inkscape="http://www.inkscape.org/namespaces/inkscape"
   xmlns:sodipodi="http://sodipodi.sourceforge.net/DTD/sodipodi-0.dtd"
   xmlns="http://www.w3.org/2000/svg"
   xmlns:svg="http://www.w3.org/2000/svg">
  <sodipodi:namedview
     id="namedview7"
     pagecolor="#ffffff"
     bordercolor="#666666"
     borderopacity="1.0"
     inkscape:showpageshadow="2"
     inkscape:pageopacity="0.0"
     inkscape:pagecheckerboard="0"
     inkscape:deskcolor="#d1d1d1"
     inkscape:document-units="mm"
     showgrid="false"
     inkscape:zoom="2.1417558"
     inkscape:cx="181.15977"
     inkscape:cy="134.70256"
     inkscape:window-width="1846"
     inkscape:window-height="1016"
     inkscape:window-x="74"
     inkscape:window-y="27"
     inkscape:window-maximized="1"
     inkscape:current-layer="layer1" />
  <defs
     id="defs2" />
  <g
     inkscape:label="Layer 1"
     inkscape:groupmode="layer"
     id="layer1">
    <circle
       style="fill:#1a1a1a;fill-opacity:0;stroke:#1a1a1a;stroke-width:0.664898;stroke-dasharray:none"
       id="path1465"
       cx="22.356468"
       cy="34.507988"
       r="15" />
    <circle
       style="fill:#1a1a1a;fill-opacity:0;stroke:#1a1a1a;stroke-width:0.664898;stroke-dasharray:none"
       id="path1465-7"
       cx="80.825394"
       cy="34.850029"
       r="15" />
    <path
       style="fill:none;stroke:#000000;stroke-width:0.79375;stroke-linecap:butt;stroke-linejoin:miter;stroke-dasharray:none;stroke-opacity:1"
       d="M 21.950337,34.550301 C 22.368296,33.278918 36.45841,14.933442 36.45841,14.933442 l 29.896048,-0.04853 c 0,0 11.859723,23.413281 14.85869,20.629573"
       id="path2706" />
    <path
       style="fill:none;stroke:#000000;stroke-width:0.79375;stroke-linecap:butt;stroke-linejoin:miter;stroke-dasharray:none;stroke-opacity:1"
       d="m 21.919393,34.295026 c 23.522319,-0.07282 23.82836,0.29532 23.82836,0.29532 L 66.167797,14.977009 v 0"
       id="path2708" />
    <path
       style="fill:none;stroke:#000000;stroke-width:0.79375;stroke-linecap:butt;stroke-linejoin:miter;stroke-dasharray:none;stroke-opacity:1"
       d="M 45.693352,34.3249 34.664109,10.639295"
       id="path2710" />
    <path
       style="fill:#a58484;fill-opacity:1;stroke:#000000;stroke-width:0.79375;stroke-linecap:butt;stroke-linejoin:miter;stroke-dasharray:none;stroke-opacity:1"
       d="m 31.837221,13.164869 c 3.065206,-2.269781 10.164734,-3.024867 10.164734,-3.024867 0,0 5.141637,-1.4224928 2.143363,-1.3364238 -2.998275,0.08607 -8.277895,-0.315285 -9.241782,-1.283054 -0.963885,-0.967772 -1.594149,-4.016179 -3.340418,-1.892126 -1.746268,2.124057 -3.104898,6.7265448 -1.863495,7.4464518 1.241404,0.719905 2.137598,0.09002 2.137598,0.09002 z"
       id="path2716" />
    <ellipse
       style="fill:none;fill-opacity:1;stroke:#767676;stroke-width:0.79375;stroke-dasharray:none;stroke-opacity:1"
       id="path2770"
       cx="45.351917"
       cy="34.368011"
       rx="4.1265974"
       ry="4.2309246" />
    <ellipse
       style="fill:none;fill-opacity:1;stroke:#767676;stroke-width:0.79375;stroke-dasharray:none;stroke-opacity:1"
       id="path3084"
       cx="22.639477"
       cy="34.04126"
       rx="2.655901"
       ry="2.7447939" />
    <path
       style="fill:none;stroke:#767676;stroke-width:0.529167;stroke-linecap:butt;stroke-linejoin:miter;stroke-dasharray:none;stroke-opacity:1"
       d="m 22.164112,30.909082 c 23.67143,-1.071846 23.488622,-1.190186 23.488622,-1.190186 v 0"
       id="path3086" />
    <path
       style="fill:none;stroke:#767676;stroke-width:0.529167;stroke-linecap:butt;stroke-linejoin:miter;stroke-dasharray:none;stroke-opacity:1"
       d="M 45.252366,38.682963 C 22.729071,36.823173 22.729071,36.823173 22.729071,36.823173"
       id="path3088" />
    <path
       style="fill:none;stroke:#000000;stroke-width:0.642744;stroke-linecap:butt;stroke-linejoin:miter;stroke-dasharray:none;stroke-opacity:0.960784"
       d="m 66.027338,15.184199 c 0,-0.51459 -0.311688,-7.2874978 -0.311688,-7.2874978 l 4.817293,-4.649901 c 0,0 -0.05964,6.611902 4.358985,5.785037 4.418624,-0.826869 4.418624,-0.826869 4.418624,-0.826869"
       id="path3092" />
    <path
       style="fill:none;stroke:#000000;stroke-width:0.79375;stroke-linecap:butt;stroke-linejoin:miter;stroke-dasharray:none;stroke-opacity:1"
       d="m 67.360381,6.1856082 c -6.63322,7.4364788 -7.408614,7.6486558 -7.408614,7.6486558 0,0 3.460287,9.584039 9.358019,4.733656"
       id="path3127" />
  </g>
</svg>
